<svg fill="none" height="50" viewBox="0 0 50 50" width="50" xmlns="http://www.w3.org/2000/svg"><path clip-rule="evenodd" d="m47.1782 25.3707c.6032 1.6216.6032 3.0901-1.0478 4.314-1.3018.9178-2.7305 1.0096-4.0006.3671-.6032 1.2238-2.159 2.0805-3.3973 2.4476-.889.2754-1.7462.2754-2.54.1224-4.4451 4.4058-5.0483 10.8308-5.0166 16.6439 0 .1836-.0635.3366-.1587.4283 0 0-.0106.0103-.0318.0307-.0211 0-.0423.0101-.0635.0305-.0952.0918-.2222.153-.4127.153-3.6831 0-7.3979.0918-11.1127.0918-.1905 0-.3175-.0612-.4445-.153 0-.0204 0-.0306 0-.0306-.0212-.0204-.0423-.0408-.0635-.0612-.0953-.1223-.1588-.2141-.1588-.3977-.0635-5.5072-.889-12.4523-5.1753-16.4909-1.8733.1224-3.71478-.7649-4.09579-2.57-1.96853.9484-4.15931.8872-5.58808-1.1015-.79376-1.0708-1.23827-2.9371-.66676-4.2527-4.22282-1.0709-4.22281-6.0273-.28576-7.3735-1.33352-1.3768-2.15903-3.4573-1.30177-5.1706.82551-1.5604 2.76229-2.3559 4.54032-2.2335-.50801-1.89692 1.01601-3.97741 3.23855-3.73265.28575-1.77453.254-2.81477 2.19079-3.9774.0317-.0306.0635-.03061.0952-.03061.0212-.02039.0424-.03059.0635-.03059 0 0 .0106-.01019.0318-.03058h.0952c1.8733-.52012 3.5561-.03061 4.7309 1.2544 1.016-1.80513 2.6353-3.304306 4.826-3.579665 1.5876-.183572 3.0163.305965 3.8101 1.407395 1.8415-2.23346 6.5406-1.774536 7.6836.94845 2.9845-2.202864 7.7154-.70369 7.3979 3.12074 2.667-.30595 5.4293 1.3462 4.9213 4.0386 1.6828.15297 3.048 1.25441 3.6195 2.84541.7303 1.9581-.254 3.3654-1.6827 4.5281 3.7465 1.6521 3.7783 6.5474 0 8.4443zm-12.351 6.7616c-.635-.306-1.2065-.7037-1.7462-1.1932-.6351 1.1626-1.5558 2.0499-3.0481 2.3558-.8573 1.0403-1.7145 2.0805-2.3813 3.2431-.3175.5813-1.2382.306-1.2382-.3059 0-1.3156 0-2.6312-.0635-3.9468 0-.1224 0-.1836-.0318-.2754-.2857-.3671-.5398-.7649-.7938-1.1932-.508.6731-1.0795 1.285-1.7462 1.8051 0 1.3462.0635 2.6822.1905 4.008.0635.6119-.9843.9179-1.2383.3366-.5398-1.1627-1.2383-2.2029-2.1273-3.1514-.0317-.0306-.0317-.0918-.0635-.1223-.0635 0-.1164 0-.1587 0-1.5876-.153-2.8258-1.1321-3.5243-2.3865-.508.5507-1.1113.9485-1.8098 1.2238 3.937 4.1916 4.8896 10.6778 5.0166 16.185 3.2703 0 6.5088-.0918 9.7791-.0918 0-5.8131.7938-11.9934 4.9848-16.4909zm-12.7637 1.3768c.1482.1632.2858.3263.4128.4895 0-.204-.0106-.4181-.0317-.6425-.1059.0612-.2329.1122-.3811.153zm6.2866-.2142c-.254-.0408-.4868-.1122-.6985-.2142.0212.3468.0424.6935.0635 1.0403.1905-.2856.4022-.5609.635-.8261zm17.2405-15.5424c-.6032-.153-.6032-.8873-.1587-1.1933 2.3178-1.4991 2.8258-6.1191-1.0478-5.7213-.5715.0612-.762-.5813-.5715-.97906.4128-1.10143-.1587-1.89691-.8572-2.60061-1.0161-.79548-2.0638-.97906-3.2703-.27536-.4763.15297-.9526-.33655-.8256-.79548.1905-3.63065-1.7251-4.37516-5.7468-2.23348-.381.48953-1.2383.36715-1.27-.30595 0-2.35585-5.6516-3.426671-5.9691-.52011-.0952.64251-1.2065.94846-1.3335.15298-2.0532-1.9785-3.7995-2.27427-5.2388-.88728-.9526.61191-1.5982 1.49918-1.9368 2.66181-.1905.48953-.9208.6731-1.2065.15298-.9526-1.59096-2.2755-2.13148-3.9689-1.62156-1.143.76489-1.3652 2.50882-1.6192 3.79382-.0635.33655-.4763.55072-.82554.45893-1.92619-.32635-2.51887.63232-1.77802 2.87597.53975.5201-.15875 1.3462-.82551 1.0097-3.90531-1.98875-5.71509 3.5796-2.47654 5.5989.57151.3672.3175 1.132-.34926 1.1932-4.2228101.4284-3.5243 5.0483 0 5.3236.53976.0306.95252.6731.47626 1.0709-2.28603 2.0193 2.00028 5.9661 4.95307 3.7326.50804-.3977 1.04774.2448.98424.7343.0953 2.6006 3.2703 3.0595 5.5881.153.1588-.5813 1.1748-.6425 1.3018 0 .4657 2.4272 2.1484 3.1819 5.0483 2.264 1.016-.6731 1.7992-1.5297 2.3495-2.57.254-.3977.9208-.4589 1.1431 0 .5715 1.1015.762 1.591 1.8732 2.2641 1.9368 1.1626 3.5243-.0306 4.2228-1.8969.1588-.3978.7938-.7037 1.1113-.2754 1.016 1.2238 2.2225 2.0499 3.8418 2.0499 1.143 0 3.8418-.8261 3.8418-2.3253 0-.5813.7303-.826 1.143-.4589 2.3813 1.9581 4.5404-1.4074 3.5243-3.3655-.1905-.3365.1588-.6731.4446-.7955 3.8418-1.4073 3.0797-5.9049-.5716-6.6697zm-23.3683 21.6309c.8573 2.1723.762 4.8953.762 7.1899 0 .8261-1.3335.8261-1.3335 0 0-2.2028.0952-4.7729-.6985-6.8534-.3175-.7954.9842-1.1014 1.27-.3365zm-1.397-1.1014c-.8573 0-.8573-1.285 0-1.285.8572 0 .8572 1.285 0 1.285zm-5.1436-20.4072c.381.7343-.762 1.3768-1.143.6425-.5398-1.0708-2.0638-.7037-1.9685.4896.0317.826-1.3018.826-1.3336 0-.0952-1.0403.635-2.1111 1.7146-2.3865 1.0795-.2753 2.2542.2754 2.7305 1.2544zm19.7488-5.1706c.127.7955-1.143 1.132-1.3018.3366-.0952-.612-.3175-1.2545-.9207-1.5604-.4128-.2142-1.2701-.0918-1.1431.5201.1588.8261-1.1112 1.1626-1.27.3672-.254-1.2239.7303-2.3559 2.0321-2.2947 1.4605.0918 2.3495 1.3462 2.6035 2.6312zm-4.6673 10.0047c-.0318.8261-1.3653.8261-1.3335 0 0-.4589-.3493-.9791-.8891-.9485-.5397.0612-.7937.5814-.762 1.0403.0953.8261-1.2382.8261-1.3335 0-.127-1.132.889-2.2947 2.0955-2.3253 1.2383 0 2.2543 1.0709 2.2226 2.2335z" fill="#fff" fill-rule="evenodd"/></svg>