<svg fill="none" height="50" viewBox="0 0 50 50" width="50" xmlns="http://www.w3.org/2000/svg"><path clip-rule="evenodd" d="m49.9878 12.3244c-.2283 2.8682-2.5431 5.1885-4.9559 3.9639-.5868 1.4179-2.0866 1.9336-3.8472 1.6435-1.076-.1933-1.8911-.5478-2.5105-1.0634-.0435.0859-.1196.1611-.2283.2255-1.2715.9346-2.4779 1.9336-3.619 2.9649 1.5976 2.1269 2.4127 4.415 1.2715 7.3476-1.6954 4.4795-6.0317 7.96-9.716 10.7637-4.3689 3.2549-8.9661 6.832-13.7589 9.3779-2.4779 1.3213-9.09653 3.9639-11.57444 1.3213-2.47791-2.6748.0326-8.8301 1.40197-11.3437 2.57573-4.7696 6.22739-9.3135 9.52037-13.5996 2.804-3.6739 6.3578-7.96 10.8572-9.6358 2.9343-1.0957 5.2492-.3222 7.3685 1.2246 1.2716-1.1923 2.2823-2.6425 3.5538-3.8672-1.6302-1.3857-2.6083-3.48042-2.0866-5.47846.6521-2.48145 2.7387-3.60937 4.8906-2.6748.4891-2.38476 3.456-3.996099 5.8035-3.351568 3.6517.999018 4.5972 4.801748 3.3908 7.831048 2.2497.32226 4.4342 1.93359 4.2386 4.35058zm-14.8349 10.9248c-.489-1.8047-2.1518-3.3193-3.456-4.6084s-2.804-2.9004-4.6298-3.416c-2.9344-.8057-5.9339 1.3213-8.0206 3.0615-1.8258 1.5147-3.456 3.2549-4.9232 5.124 1.0433.9346 2.1519 1.837 2.967 3.0293.489.709-.6847 1.3858-1.1738.6768-.7173-1.0313-1.6954-1.8369-2.6409-2.6426-.3913.4941-.7716.999-1.1412 1.5147h.0326c.6739.9023 1.402 1.7509 2.1845 2.5459.6521.6445-.326 1.5791-.9455.9668-.7499-.7413-1.4346-1.5469-2.0867-2.3848-1.9888 2.7392-4.01026 5.5107-5.9339 8.3144-.65208.9346-1.53239 2.3203-2.28228 3.835.52166.8379 1.17374 1.5146 1.95624 2.1269.29344.2256.22823.7412 0 .9668-.29344.2578-.68469.2256-.97812 0-.61948-.4834-1.17374-1.0634-1.6628-1.6757-1.07594 2.5458-1.565002 5.2529-.06521 6.9609 2.64093 2.9971 9.91167-1.3213 12.38957-2.9649.5542-.3867 1.0759-.7734 1.6302-1.1279-.5543-.5478-1.0434-1.1279-1.4998-1.7402-.4891-.7412.6847-1.418 1.1737-.709.4239.6123.913 1.1601 1.4672 1.6758 2.1193-1.4824 4.2386-2.9649 6.3578-4.4795 1.4672-1.0313 2.9018-2.127 4.2711-3.2549-.0652-.0644-.1304-.0967-.163-.1289-.3478-.3867-.6955-.7734-1.0433-1.1602-.5543-.6445.3912-1.6113.9781-.9668.3478.3868.6847.7735 1.0107 1.1602.087.086.1413.1719.1631.2578l.9129-.8379c-.6304-.7304-1.2607-1.4502-1.8911-2.1591-.5868-.6768.3587-1.6114.9456-.9668.6303.7089 1.2607 1.4287 1.891 2.1591.6195-.6445 1.2063-1.3213 1.7606-2.0302 1.5324-1.9659 3.1626-4.5117 2.4453-7.1221zm2.6083-7.3154c.0326-.0323.0653-.0322.0653-.0322-.4348-.752-.6304-1.6758-.5869-2.7715-.8151-.0323-1.6302-.2901-2.3475-.709-1.3368 1.2246-2.3475 2.707-3.6191 3.9639.3696.3222.7282.6552 1.076.999.8912-.9239 1.7823-1.8369 2.6735-2.7393.6195-.6123 1.5976.3545.9781.9668-.8911.9024-1.7823 1.8047-2.6735 2.707.2174.2364.4238.4727.6195.709 1.2172-1.0957 2.4887-2.1269 3.8146-3.0937zm9.5857-5.99415c-.6847-.4834-1.8259-.70899-2.641-.70899-.5217.03223-.8477-.58007-.5869-.99902 1.076-1.86914 1.2064-4.125-.4564-5.67188-1.5324-1.45019-6.4556-1.54688-5.8035 1.86914.0978.51562-.4891 1.16016-1.0108.77344-1.6954-1.19238-3.2278-.77343-3.8799 1.35352-.7172 2.41699 2.4454 5.44624 4.9885 5.22074.2282-.0323.3912.0644.5216.1611.1305.1289.1957.29.1631.5156-.1957 1.6758.0652 2.836 1.4671 3.6738 1.0108.6123 3.6517 1.1924 3.8473-.9345.0652-.5801.7173-.8701 1.1738-.4834 1.1737 1.0634 3.2604-.8701 3.4234-2.0303.1304-1.0312-.4239-2.1269-1.2063-2.73925zm-21.1927 8.95895c-2.4127-.5801-4.7276 1.8692-6.2274 3.4805-.5869.6445-1.5324-.3223-.9455-.9668 1.8584-2.0303 4.532-4.5439 7.5315-3.835.8804.1934.4891 1.5147-.3586 1.3213zm2.6409 1.2246c-.8803 0-.8803-1.3535 0-1.3535s.8803 1.3535 0 1.3535z" fill="#fff" fill-rule="evenodd"/></svg>