<svg width="375" height="140" viewBox="0 0 375 140" fill="none" xmlns="http://www.w3.org/2000/svg">
<rect width="375" height="140" fill="white"/>
<path opacity="0.16" d="M323.19 115.447L323.19 115.447L323.19 115.449C323.19 115.451 323.189 115.455 323.186 115.462C323.18 115.476 323.167 115.501 323.136 115.538C323.073 115.613 322.958 115.712 322.766 115.827C322.382 116.055 321.784 116.293 320.966 116.529C319.339 116.998 316.96 117.427 313.992 117.789C308.064 118.512 299.859 118.961 290.786 118.961C281.714 118.961 273.509 118.512 267.58 117.789C264.612 117.427 262.233 116.998 260.606 116.529C259.789 116.293 259.19 116.055 258.806 115.827C258.615 115.712 258.499 115.613 258.436 115.538C258.406 115.501 258.392 115.476 258.386 115.462C258.384 115.455 258.383 115.451 258.382 115.449L258.382 115.447L258.382 115.447L258.382 115.447L258.382 115.447L258.382 115.447L258.382 115.445C258.383 115.443 258.384 115.439 258.386 115.432C258.392 115.419 258.406 115.393 258.436 115.357C258.499 115.281 258.615 115.182 258.806 115.068C259.19 114.839 259.789 114.601 260.606 114.365C262.233 113.896 264.612 113.467 267.58 113.105C273.509 112.382 281.714 111.934 290.786 111.934C299.859 111.934 308.064 112.382 313.992 113.105C316.96 113.467 319.339 113.896 320.966 114.365C321.784 114.601 322.382 114.839 322.766 115.068C322.958 115.182 323.073 115.281 323.136 115.357C323.167 115.393 323.18 115.419 323.186 115.432C323.189 115.439 323.19 115.443 323.19 115.445L323.19 115.447L323.19 115.447Z" fill="black" stroke="#030113"/>
<path opacity="0.07" d="M264.673 43.0134L292.197 57.5147L251.621 51.1222C252.92 50.1973 254.251 49.4129 255.59 48.6659C256.063 48.402 256.54 48.1418 257.016 47.8814C258.208 47.2303 259.402 46.5778 260.558 45.8628L260.56 45.8617C261.975 44.9778 263.348 44.0273 264.673 43.0134ZM240.558 72.4498L291.996 59.7582L243.18 89.0891C241.251 83.731 240.25 77.882 240.558 72.4498ZM309.545 105.839C307.976 105.897 306.415 105.924 304.892 105.951C302.2 105.997 299.629 106.042 297.35 106.253L295.733 62.1449L309.545 105.839ZM327.794 101.715L297.802 61.2835L336.301 92.1121C334.217 96.6702 331.242 99.6932 327.794 101.715ZM339.422 73.9969L299.132 59.4069L338.256 63.541C338.844 67.0014 339.233 70.4923 339.422 73.9969ZM334.797 50.0176L299.191 57.1484L331.408 42.3507C332.728 44.8182 333.86 47.381 334.797 50.0176ZM258.634 107.568L293.512 61.4057L276.171 109.575C269.818 110.035 263.741 109.629 258.634 107.568ZM281.96 26.85L293.382 55.5167L275.48 33.0263C275.993 32.4755 276.494 31.9256 276.984 31.3766L276.985 31.3759C278.479 29.6953 280.147 28.1783 281.96 26.85ZM295.536 54.7835L294.985 21.695C297.995 21.3505 301.039 21.463 304.014 22.0285L295.536 54.7835ZM323.454 32.0049L297.76 55.3785L316.663 26.9728C319.076 28.4375 321.349 30.122 323.454 32.0049Z" fill="black" stroke="#030113"/>
<path d="M332.904 88.8852C332.904 88.8852 330.589 88.1023 329.901 87.6239C329.212 87.1455 327.451 85.3779 327.041 84.0158C326.688 82.7584 326.453 81.4707 326.34 80.1695C326.237 79.1141 325.795 78.8417 325.147 79.659C324.499 80.4763 324.289 81.8041 324.467 82.6622C324.645 83.5202 325.181 84.5006 325.111 84.6722C325.04 84.8438 324.939 85.1827 324.939 85.1827C324.939 85.1827 322.862 84.9446 321.706 84.6722C320.55 84.3998 319.63 84.2968 319.561 84.8416C319.492 85.3865 319.731 86.2381 319.799 86.8173C319.868 87.3965 320.752 89.9492 321.196 90.5263C321.51 90.9753 321.875 91.387 322.283 91.7533C322.556 91.9571 322.556 92.1265 323.204 92.1952C323.752 92.2444 324.298 92.3239 324.838 92.4333C325.076 92.5019 325.314 92.7401 326.438 92.7057C327.145 92.6814 327.849 92.6134 328.547 92.5019L331.917 93.759L332.904 88.8852Z" fill="white" stroke="#030113" stroke-width="0.75" stroke-miterlimit="10"/>
<path d="M331.814 88.2373L330.418 94.2973L332.7 95.2154L333.857 88.9195L331.814 88.2373Z" fill="white" stroke="#030113" stroke-width="0.75" stroke-miterlimit="10"/>
<path d="M337.563 89.3954L333.107 88.3057L331.473 95.5219L337.537 98.3514L337.563 97.8044V89.3954Z" fill="#263238" stroke="#030113" stroke-width="0.75" stroke-miterlimit="10"/>
<path d="M324.801 85.4805C324.801 85.4805 324.494 87.3231 324.494 87.7522C324.494 88.1812 325.447 89.3868 325.781 89.4533" stroke="#030113" stroke-width="0.75" stroke-miterlimit="10"/>
<path d="M324.119 90.1123C324.119 90.1123 324.598 90.2818 324.46 90.6915C324.323 91.1012 323.302 91.6783 322.826 91.9507C322.35 92.2231 322.182 92.1888 321.635 91.882C321.314 91.7043 321.071 91.4128 320.953 91.0647C321.296 91.0562 321.638 91.0225 321.976 90.9639L324.119 90.1123Z" fill="white" stroke="#030113" stroke-width="0.75" stroke-miterlimit="10"/>
<path d="M320.205 89.2246C320.205 89.2246 320.205 90.7906 320.58 90.9279C320.939 91.0662 321.32 91.1353 321.704 91.1317C321.942 91.0973 323.542 90.5525 323.849 90.3487C324.156 90.1449 324.463 89.7051 324.293 89.2933L324.122 88.8857C323.604 88.9743 323.081 89.0195 322.556 89.0208C321.698 89.0208 320.275 88.7484 320.172 88.8514C320.07 88.9543 320.205 89.2246 320.205 89.2246Z" fill="white" stroke="#030113" stroke-width="0.75" stroke-miterlimit="10"/>
<path d="M319.69 87.1094C319.622 87.1527 319.568 87.2138 319.532 87.286C319.496 87.3581 319.48 87.4387 319.487 87.5191C319.487 87.8259 319.079 88.744 319.555 89.0507C320.031 89.3575 321.529 89.5956 321.836 89.5956C322.142 89.5956 323.946 88.9521 324.116 88.8813C324.285 88.8105 324.287 88.1991 324.219 87.961C324.15 87.7229 323.539 87.6542 323.539 87.6542C323.539 87.6542 320.922 87.592 319.69 87.1094Z" fill="white" stroke="#030113" stroke-width="0.75" stroke-miterlimit="10"/>
<path d="M320.58 85.0364C320.58 85.0364 321.67 85.8537 321.867 85.9223L323.536 86.5015C323.536 86.5015 323.75 86.6023 323.75 87.0121C323.747 87.1885 323.68 87.3578 323.562 87.4889C323.443 87.62 323.282 87.7043 323.107 87.7264C322.768 87.7951 321.541 87.9988 321.099 87.8294C320.497 87.5315 319.917 87.1902 319.364 86.8083C319.057 86.5938 319.023 86.3299 319.192 85.9502C319.339 85.5833 319.465 85.208 319.567 84.8262" fill="white"/>
<path d="M320.58 85.0364C320.58 85.0364 321.67 85.8537 321.867 85.9223L323.536 86.5015C323.536 86.5015 323.75 86.6023 323.75 87.0121C323.747 87.1885 323.68 87.3578 323.562 87.4889C323.443 87.62 323.282 87.7043 323.107 87.7264C322.768 87.7951 321.541 87.9988 321.099 87.8294C320.497 87.5315 319.917 87.1902 319.364 86.8083C319.057 86.5938 319.023 86.3299 319.192 85.9502C319.339 85.5833 319.465 85.208 319.567 84.8262" stroke="#030113" stroke-width="0.75" stroke-miterlimit="10"/>
<path d="M326.125 36.2436C326.125 36.2436 323.784 36.9537 322.954 36.9623C322.124 36.9708 319.653 36.5611 318.529 35.6902C317.506 34.877 316.562 33.9692 315.71 32.9787C315.013 32.1786 314.494 32.2151 314.442 33.2554C314.391 34.2958 314.998 35.495 315.633 36.0892C316.268 36.6834 317.283 37.1617 317.328 37.3462C317.373 37.5307 317.486 37.8611 317.486 37.8611C317.486 37.8611 315.659 38.8757 314.558 39.3262C313.458 39.7767 312.651 40.2314 312.913 40.7141C313.175 41.1968 313.863 41.7502 314.256 42.1814C314.648 42.6126 316.854 44.1721 317.551 44.3866C318.068 44.5673 318.604 44.6889 319.149 44.7491C319.49 44.7491 319.578 44.895 320.155 44.5754C320.629 44.2947 321.119 44.0418 321.622 43.8181C321.856 43.7345 322.188 43.7902 323.081 43.1081C323.642 42.6769 324.176 42.2112 324.679 41.7137L328.154 40.7763L326.125 36.2436Z" fill="white" stroke="#030113" stroke-width="0.75" stroke-miterlimit="10"/>
<path d="M324.859 36.3508L327.251 42.0912L329.641 41.512L326.917 35.7158L324.859 36.3508Z" fill="white" stroke="#030113" stroke-width="0.75" stroke-miterlimit="10"/>
<path d="M330.209 33.9482L325.951 35.6536L328.821 42.473L335.398 41.246L335.102 40.787L330.209 33.9482Z" fill="#263238" stroke="#030113" stroke-width="0.75" stroke-miterlimit="10"/>
<path d="M317.544 38.2002C317.544 38.2002 318.366 39.8734 318.617 40.2338C318.867 40.5942 320.333 41.0082 320.659 40.8645" stroke="#030113" stroke-width="0.75" stroke-miterlimit="10"/>
<path d="M319.689 42.3509C319.689 42.3509 320.176 42.2114 320.302 42.6233C320.429 43.0352 319.935 44.0991 319.706 44.599C319.476 45.0988 319.32 45.1696 318.698 45.2425C318.333 45.2857 317.965 45.19 317.668 44.9744C317.942 44.7682 318.2 44.5416 318.44 44.2965L319.689 42.3509Z" fill="white" stroke="#030113" stroke-width="0.75" stroke-miterlimit="10"/>
<path d="M315.993 43.9084C315.993 43.9084 316.902 45.1826 317.28 45.0753C317.652 44.979 318.003 44.8138 318.314 44.5884C318.488 44.4211 319.472 43.0482 319.601 42.7028C319.73 42.3574 319.723 41.8212 319.348 41.5873L318.972 41.3535C318.603 41.7271 318.204 42.0693 317.778 42.3767C317.085 42.8701 315.763 43.4815 315.74 43.6231C315.716 43.7647 315.993 43.9084 315.993 43.9084Z" fill="white" stroke="#030113" stroke-width="0.75" stroke-miterlimit="10"/>
<path d="M314.348 42.4906C314.318 42.5656 314.309 42.6472 314.322 42.7269C314.335 42.8066 314.369 42.8813 314.421 42.9432C314.599 43.192 314.801 44.1767 315.367 44.1488C315.933 44.1209 317.297 43.443 317.54 43.265C317.782 43.0869 318.878 41.5102 318.979 41.3558C319.08 41.2013 318.72 40.7122 318.527 40.5492C318.334 40.3862 317.795 40.6972 317.795 40.6972C317.795 40.6972 315.614 42.1645 314.348 42.4906Z" fill="white" stroke="#030113" stroke-width="0.75" stroke-miterlimit="10"/>
<path d="M313.861 40.2851C313.861 40.2851 315.221 40.3152 315.427 40.253C315.633 40.1907 317.122 39.7531 317.122 39.7531C317.122 39.7531 317.347 39.7167 317.585 40.0492C317.686 40.1951 317.73 40.3725 317.709 40.5485C317.689 40.7244 317.605 40.887 317.474 41.0059C317.238 41.2612 316.361 42.1385 315.901 42.2587C315.237 42.3668 314.566 42.4271 313.894 42.4389C313.527 42.4389 313.34 42.2479 313.25 41.8446C313.156 41.4613 313.039 41.0838 312.9 40.7142" fill="white"/>
<path d="M313.861 40.2851C313.861 40.2851 315.221 40.3152 315.427 40.253C315.633 40.1907 317.122 39.7531 317.122 39.7531C317.122 39.7531 317.347 39.7167 317.585 40.0492C317.686 40.1951 317.73 40.3725 317.709 40.5485C317.689 40.7244 317.605 40.887 317.474 41.0059C317.238 41.2612 316.361 42.1385 315.901 42.2587C315.237 42.3668 314.566 42.4271 313.894 42.4389C313.527 42.4389 313.34 42.2479 313.25 41.8446C313.156 41.4613 313.039 41.0838 312.9 40.7142" stroke="#030113" stroke-width="0.75" stroke-miterlimit="10"/>
<path d="M251.226 88.1145C251.226 88.1145 253.54 87.3316 254.229 86.8553C254.917 86.3791 256.672 84.6072 257.08 83.2472C257.439 81.9906 257.679 80.7028 257.796 79.401C257.897 78.3456 258.341 78.0731 258.987 78.8904C259.632 79.7077 259.845 81.0356 259.667 81.8936C259.489 82.7517 258.952 83.732 259.023 83.9015C259.094 84.0709 259.193 84.412 259.193 84.412C259.193 84.412 261.269 84.1739 262.428 83.9015C263.586 83.629 264.504 83.5261 264.573 84.0709C264.641 84.6158 264.401 85.4674 264.335 86.0466C264.268 86.6258 263.38 89.1785 262.938 89.7577C262.623 90.2064 262.257 90.6174 261.848 90.9826C261.576 91.1971 261.576 91.358 260.93 91.4245C260.381 91.4746 259.836 91.5541 259.296 91.6626C259.057 91.7312 258.819 91.9694 257.695 91.935C256.988 91.9108 256.283 91.8427 255.585 91.7312L252.214 92.9904L251.226 88.1145Z" fill="white" stroke="#030113" stroke-width="0.75" stroke-miterlimit="10"/>
<path d="M252.316 87.4668L253.71 93.5268L251.43 94.4471L250.271 88.149L252.316 87.4668Z" fill="white" stroke="#030113" stroke-width="0.75" stroke-miterlimit="10"/>
<path d="M246.564 88.6249L251.02 87.5352L252.655 94.7514L246.592 97.5809L246.564 97.0338V88.6249Z" fill="#263238" stroke="#030113" stroke-width="0.75" stroke-miterlimit="10"/>
<path d="M259.328 84.71C259.328 84.71 259.635 86.5483 259.635 86.9902C259.635 87.4321 258.68 88.6248 258.348 88.6935" stroke="#030113" stroke-width="0.75" stroke-miterlimit="10"/>
<path d="M260.008 89.3398C260.008 89.3398 259.532 89.5115 259.667 89.919C259.802 90.3266 260.825 90.9058 261.301 91.1782C261.778 91.4507 261.945 91.4163 262.494 91.1096C262.815 90.9332 263.058 90.6421 263.174 90.2944C262.832 90.2861 262.49 90.2517 262.153 90.1915L260.008 89.3398Z" fill="white" stroke="#030113" stroke-width="0.75" stroke-miterlimit="10"/>
<path d="M263.917 88.4553C263.917 88.4553 263.917 90.0213 263.544 90.1564C263.186 90.2993 262.805 90.3721 262.42 90.3709C262.182 90.3366 260.581 89.7939 260.274 89.5879C259.968 89.382 259.661 88.9444 259.833 88.5325L260.002 88.125C260.519 88.2135 261.043 88.2587 261.568 88.2601C262.426 88.2601 263.848 87.9877 263.951 88.0906C264.054 88.1936 263.917 88.4553 263.917 88.4553Z" fill="white" stroke="#030113" stroke-width="0.75" stroke-miterlimit="10"/>
<path d="M264.434 86.3447C264.504 86.3852 264.562 86.4451 264.6 86.5173C264.638 86.5895 264.655 86.671 264.648 86.7523C264.648 87.0591 265.058 87.9772 264.582 88.2839C264.105 88.5907 262.595 88.8245 262.288 88.8245C261.982 88.8245 260.178 88.181 260.008 88.1102C259.839 88.0394 259.839 87.428 259.907 87.1899C259.976 86.9518 260.587 86.8853 260.587 86.8853C260.587 86.8853 263.209 86.8209 264.434 86.3447Z" fill="white" stroke="#030113" stroke-width="0.75" stroke-miterlimit="10"/>
<path d="M263.549 84.2682C263.549 84.2682 262.46 85.0834 262.262 85.152C262.065 85.2207 260.593 85.7312 260.593 85.7312C260.593 85.7312 260.379 85.8342 260.379 86.2418C260.382 86.4183 260.449 86.5878 260.567 86.719C260.686 86.8503 260.847 86.9344 261.022 86.9561C261.364 87.0247 262.588 87.2285 263.032 87.059C263.637 86.7611 264.22 86.4191 264.774 86.0358C265.081 85.832 265.115 85.5596 264.944 85.1778C264.797 84.8107 264.673 84.4354 264.571 84.0537" fill="white"/>
<path d="M263.549 84.2682C263.549 84.2682 262.46 85.0834 262.262 85.152C262.065 85.2207 260.593 85.7312 260.593 85.7312C260.593 85.7312 260.379 85.8342 260.379 86.2418C260.382 86.4183 260.449 86.5878 260.567 86.719C260.686 86.8503 260.847 86.9344 261.022 86.9561C261.364 87.0247 262.588 87.2285 263.032 87.059C263.637 86.7611 264.22 86.4191 264.774 86.0358C265.081 85.832 265.115 85.5596 264.944 85.1778C264.797 84.8107 264.673 84.4354 264.571 84.0537" stroke="#030113" stroke-width="0.75" stroke-miterlimit="10"/>
<path d="M253.742 38.2817C253.742 38.2817 256.08 38.9918 256.913 39.0003C257.745 39.0089 260.212 38.5992 261.338 37.7283C262.361 36.9151 263.305 36.0073 264.157 35.0168C264.854 34.2167 265.373 34.2531 265.422 35.2935C265.472 36.3339 264.867 37.5331 264.234 38.1273C263.601 38.7215 262.582 39.1998 262.539 39.3843C262.497 39.5688 262.381 39.8991 262.381 39.8991C262.381 39.8991 264.208 40.9117 265.309 41.3643C266.409 41.8169 267.216 42.2674 266.954 42.75C266.692 43.2327 266.004 43.7861 265.611 44.2173C265.219 44.6485 263.013 46.2102 262.316 46.4247C261.799 46.6053 261.263 46.727 260.718 46.7872C260.377 46.7872 260.289 46.9331 259.712 46.6113C259.237 46.3328 258.747 46.08 258.245 45.8541C258.011 45.7725 257.679 45.8262 256.784 45.1462C256.224 44.7146 255.691 44.249 255.188 43.7518L251.713 42.8144L253.742 38.2817Z" fill="white" stroke="#030113" stroke-width="0.75" stroke-miterlimit="10"/>
<path d="M255.006 38.3889L252.614 44.1293L250.225 43.5501L252.949 37.7539L255.006 38.3889Z" fill="white" stroke="#030113" stroke-width="0.75" stroke-miterlimit="10"/>
<path d="M249.656 35.9863L253.914 37.6917L251.044 44.5111L244.467 43.2841L244.763 42.8229L249.656 35.9863Z" fill="#263238" stroke="#030113" stroke-width="0.75" stroke-miterlimit="10"/>
<path d="M262.314 40.2275C262.314 40.2275 261.492 41.9007 261.241 42.259C260.99 42.6172 259.525 43.0334 259.199 42.9025" stroke="#030113" stroke-width="0.75" stroke-miterlimit="10"/>
<path d="M260.173 44.3889C260.173 44.3889 259.686 44.2495 259.56 44.6614C259.433 45.0732 259.926 46.1372 260.156 46.6349C260.385 47.1326 260.542 47.2055 261.164 47.2784C261.529 47.3204 261.896 47.2248 262.194 47.0103C261.92 46.8041 261.661 46.5775 261.421 46.3324L260.173 44.3889Z" fill="white" stroke="#030113" stroke-width="0.75" stroke-miterlimit="10"/>
<path d="M263.872 45.9465C263.872 45.9465 262.96 47.2207 262.584 47.1134C262.212 47.0178 261.861 46.8518 261.55 46.6243C261.377 46.4592 260.392 45.0841 260.263 44.7409C260.135 44.3977 260.143 43.8571 260.519 43.6254L260.894 43.3916C261.262 43.7654 261.662 44.107 262.089 44.4127C262.782 44.9082 264.103 45.5196 264.127 45.6612C264.15 45.8027 263.872 45.9465 263.872 45.9465Z" fill="white" stroke="#030113" stroke-width="0.75" stroke-miterlimit="10"/>
<path d="M265.515 44.526C265.546 44.6007 265.555 44.6824 265.543 44.7621C265.53 44.8419 265.496 44.9167 265.445 44.9786C265.266 45.2274 265.063 46.212 264.499 46.1842C263.934 46.1563 262.568 45.4784 262.325 45.3004C262.083 45.1223 260.985 43.5456 260.886 43.3912C260.787 43.2367 261.144 42.7476 261.339 42.5846C261.534 42.4216 262.07 42.7305 262.07 42.7305C262.07 42.7305 264.241 44.2063 265.515 44.526Z" fill="white" stroke="#030113" stroke-width="0.75" stroke-miterlimit="10"/>
<path d="M266.003 42.3232C266.003 42.3232 264.641 42.3533 264.435 42.2911C264.229 42.2288 262.743 41.7891 262.743 41.7891C262.743 41.7891 262.528 41.7548 262.279 42.0873C262.179 42.2331 262.135 42.4103 262.155 42.5861C262.175 42.7619 262.258 42.9245 262.389 43.044C262.627 43.2971 263.504 44.1766 263.963 44.2968C264.627 44.4053 265.298 44.4649 265.971 44.4748C266.338 44.4877 266.525 44.286 266.604 43.8827C266.698 43.4987 266.815 43.1205 266.954 42.7501" fill="white"/>
<path d="M266.003 42.3232C266.003 42.3232 264.641 42.3533 264.435 42.2911C264.229 42.2288 262.743 41.7891 262.743 41.7891C262.743 41.7891 262.528 41.7548 262.279 42.0873C262.179 42.2331 262.135 42.4103 262.155 42.5861C262.175 42.7619 262.258 42.9245 262.389 43.044C262.627 43.2971 263.504 44.1766 263.963 44.2968C264.627 44.4053 265.298 44.4649 265.971 44.4748C266.338 44.4877 266.525 44.286 266.604 43.8827C266.698 43.4987 266.815 43.1205 266.954 42.7501" stroke="#030113" stroke-width="0.75" stroke-miterlimit="10"/>
<path d="M285.153 69.3802C285.153 69.3802 283.652 75.9572 283.591 79.0505C283.531 82.1438 283.703 93.2921 283.761 95.6839C283.819 98.0757 284.87 105.839 284.87 106.538C284.87 107.238 285.046 108.58 285.046 108.58L284.578 111.09C284.121 111.444 283.632 111.756 283.12 112.023C282.068 112.607 280.844 113.366 280.494 113.774C280.451 113.823 280.421 113.882 280.406 113.945C280.391 114.008 280.391 114.074 280.406 114.137C280.422 114.2 280.452 114.258 280.495 114.307C280.538 114.356 280.592 114.394 280.653 114.417C281.069 114.58 281.507 114.679 281.953 114.711C282.944 114.769 284.578 114.769 285.453 114.535C286.329 114.302 287.03 113.544 287.438 113.248L287.847 112.957L287.905 113.6C288.102 113.571 288.297 113.532 288.489 113.482C288.917 113.359 289.328 113.183 289.714 112.959C289.714 112.959 289.772 111.966 289.772 111.382C289.772 110.799 289.48 109.747 289.422 109.516C289.364 109.284 289.422 107.18 289.248 106.48C289.074 105.781 288.956 105.955 288.838 104.672C288.72 103.389 289.772 91.2477 289.714 90.8981C289.656 90.5484 291.198 80.0308 291.198 80.0308C291.198 80.0308 294.148 93.7597 295.081 96.3875C296.014 99.0153 296.482 104.091 296.482 104.442C296.482 104.794 297.007 108.934 297.241 109.52C297.475 110.106 298.116 111.912 298.116 111.912C298.116 111.912 299.049 113.313 299.457 114.012C299.864 114.711 301.267 115.299 302.316 115.471C303.365 115.642 304.185 115.704 304.247 114.304C304.309 112.903 303.782 111.97 302.904 111.328C302.027 110.687 301.855 110.104 301.855 110.104C301.919 109.247 301.919 108.386 301.855 107.529C301.737 106.536 301.096 105.777 301.038 103.735C300.98 101.692 300.57 90.9539 300.221 89.2613C299.871 87.5688 299.41 76.2468 299.468 74.6744C299.526 73.102 299.32 68.7087 299.32 68.7087L285.11 68.5479L285.153 69.3802Z" fill="#263238" stroke="#030113" stroke-width="0.75" stroke-miterlimit="10"/>
<path d="M290.731 45.8675C290.731 45.8675 288.563 47.1546 287.027 47.914C285.491 48.6733 283.616 49.1152 283.425 49.5464C283.234 49.9776 279.92 57.0394 279.296 57.9983C278.671 58.9571 277.183 60.832 277.47 61.8874C277.757 62.9428 278.959 64.3844 279.727 64.29C280.495 64.1956 282.033 63.7601 282.657 62.6575C283.281 61.5549 284.77 57.9983 284.77 57.9983C284.77 57.9983 285.01 61.3125 284.961 62.945C284.912 64.5774 284.914 65.9224 284.817 66.7376C284.721 67.5527 284.289 68.5631 284.48 68.8505C284.671 69.138 284.909 69.4276 285.154 69.3804C285.398 69.3332 288.996 69.2839 290.088 69.331C291.18 69.3782 296.186 69.3311 297.244 69.3804C298.301 69.4297 299.213 68.8999 299.308 68.7068C299.402 68.5138 299.597 68.2263 299.501 67.1709C299.404 66.1155 299.597 62.8978 299.885 61.6493C300.172 60.4008 301.901 55.5979 301.901 55.5979C301.901 55.5979 306.464 59.1995 307.425 59.487C308.386 59.7744 310.977 59.3433 311.842 58.2879C312.706 57.2325 312.994 56.413 312.466 55.6944C311.938 54.9758 310.016 54.3022 308 52.1399C305.983 49.9776 305.211 48.9715 303.823 48.2979C302.435 47.6244 299.597 46.7148 298.924 46.4252C298.25 46.1356 298.066 45.9962 297.637 45.801C297.207 45.6058 296.195 45.2261 294.322 45.1768C293.092 45.1769 291.874 45.4114 290.731 45.8675Z" fill="#92E3A9" stroke="#030113" stroke-width="0.75" stroke-miterlimit="10"/>
<path d="M283.8 54.5957C283.867 54.8274 284.767 57.9979 284.767 57.9979L283.438 55.3615" stroke="#030113" stroke-width="0.75" stroke-miterlimit="10"/>
<path d="M301.909 55.598C301.71 55.598 299.822 54.5254 299.822 54.5254" stroke="#030113" stroke-width="0.75" stroke-miterlimit="10"/>
<path d="M298.861 54.3984C298.861 54.3984 299.623 55.3916 300.286 55.589" stroke="#030113" stroke-width="0.75" stroke-miterlimit="10"/>
<path d="M290.46 48.813L291.063 51.089C291.063 51.089 289.154 60.6327 288.853 62.2437C288.67 63.217 288.547 64.2006 288.484 65.189L290.158 68.5032L292.268 64.9209C292.268 64.9209 292.067 60.401 292 56.7865C291.934 53.1719 292.067 51.4236 292.032 51.3292C291.998 51.2348 294.143 49.6539 294.143 49.6539C294.143 49.6539 295.381 48.281 295.448 48.0472C295.514 47.8133 294.579 48.1137 294.375 48.3153C294.147 48.5083 293.877 48.6451 293.586 48.7148C293.295 48.7845 292.993 48.785 292.702 48.7165C291.831 48.5491 290.692 47.5795 290.524 48.0472C290.424 48.2896 290.402 48.5572 290.46 48.813Z" fill="#263238" stroke="#030113" stroke-width="0.75" stroke-miterlimit="10"/>
<path d="M291.9 44.9297C291.8 44.9962 290.997 45.1979 290.729 45.8671C290.461 46.5364 289.088 49.6168 288.687 50.1188C288.286 50.6208 288.921 50.4191 289.457 50.0845C289.993 49.7498 290.461 48.4456 290.761 49.0119C291.062 49.5782 291.935 49.8142 291.935 49.8142C291.935 49.8142 293.741 49.4796 294.144 49.2114C294.419 49.0196 294.677 48.8043 294.914 48.5679C294.914 48.5679 296.455 50.8782 296.888 51.0777C297.321 51.2772 297.392 50.9447 297.424 50.5757C297.583 49.2308 297.84 47.8994 298.194 46.5922C298.623 45.1528 297.793 44.683 297.257 44.0824C296.72 43.4817 296.118 43.8807 295.517 43.9472C294.916 44.0137 291.9 44.9297 291.9 44.9297Z" fill="#92E3A9" stroke="#030113" stroke-width="0.75" stroke-miterlimit="10"/>
<path d="M290.982 34.6205C290.982 34.6205 289.935 36.21 290.124 36.5962C290.313 36.9823 290.317 37.4885 290.124 37.7588C289.978 37.9365 289.872 38.1431 289.811 38.3649C289.751 38.5868 289.738 38.8189 289.774 39.0459C289.852 39.7045 289.465 43.0359 290.047 43.4242C290.421 43.6673 290.823 43.8627 291.246 44.0055C291.246 44.0055 291.904 49.5829 292.138 49.4284C292.372 49.274 295.708 45.8567 296.094 45.1188C296.48 44.3809 296.952 43.3383 296.952 43.3383C296.952 43.3383 298.269 40.82 299.043 39.7731C299.818 38.7263 300.71 36.7914 300.44 35.7832C300.17 34.7749 298.773 34.0392 298.115 33.4964C297.456 32.9537 297.883 31.716 296.952 31.096C296.021 30.4761 294.899 30.3216 294.163 30.5919C293.428 30.8622 293.389 31.45 292.497 30.8622C291.604 30.2744 290.755 29.7017 289.399 30.3602C288.043 31.0188 287.771 33.342 288.584 33.9619C289.397 34.5819 290.982 34.6205 290.982 34.6205Z" fill="white" stroke="#030113" stroke-width="0.75" stroke-miterlimit="10"/>
<path d="M298.11 33.4964C297.451 32.9559 297.878 31.716 296.947 31.096C296.016 30.4761 294.894 30.3216 294.158 30.5919C293.423 30.8622 293.384 31.45 292.492 30.8622C291.599 30.2744 290.75 29.7017 289.394 30.3602C288.038 31.0188 287.766 33.342 288.579 33.9619C289.392 34.5819 290.981 34.6205 290.981 34.6205C290.981 34.6205 292.144 34.0778 292.912 33.653C293.68 33.2283 295.43 33.9233 295.739 34.1958C296.048 34.4682 295.585 34.273 295.508 34.7749C295.43 35.2769 296.398 36.0942 296.825 36.4911C297.252 36.8879 296.748 37.1496 296.632 37.6537C296.516 38.1578 296.979 38.3509 297.252 38.1578C297.524 37.9648 298.374 36.8707 298.685 37.4993C298.996 38.1278 299.459 39.0481 298.607 39.7066C297.756 40.3652 297.134 40.2107 297.134 40.2107C297.134 40.2107 296.857 41.8882 297.661 42.0191C298.079 41.2506 298.537 40.5045 299.032 39.7838C299.809 38.7392 300.699 36.8021 300.429 35.7939C300.158 34.7857 298.768 34.0392 298.11 33.4964Z" fill="#263238" stroke="#030113" stroke-width="0.75" stroke-miterlimit="10"/>
<path d="M293.073 36.673C293.32 36.5807 293.584 36.5413 293.848 36.5571" stroke="#030113" stroke-width="0.5" stroke-miterlimit="10"/>
<path d="M291.091 37.0557C290.9 37.0961 290.715 37.1625 290.542 37.253" stroke="#030113" stroke-width="0.5" stroke-miterlimit="10"/>
<path d="M291.103 35.998C291.241 36.2618 291.281 36.5656 291.217 36.8561C291.091 37.2851 289.891 38.2226 289.906 38.4049C289.921 38.5872 290.61 38.9691 290.597 39.1235C290.584 39.278 290.541 39.5332 290.541 39.5332" stroke="#030113" stroke-width="0.75" stroke-miterlimit="10"/>
<path d="M293.726 37.21C293.866 37.21 293.979 37.0707 293.979 36.8989C293.979 36.7271 293.866 36.5879 293.726 36.5879C293.586 36.5879 293.473 36.7271 293.473 36.8989C293.473 37.0707 293.586 37.21 293.726 37.21Z" fill="#263238" stroke="#030113" stroke-width="0.5" stroke-miterlimit="10"/>
<path d="M293.232 37.4072C293.573 37.2646 293.936 37.1833 294.305 37.167" stroke="#030113" stroke-width="0.75" stroke-miterlimit="10"/>
<path d="M292.338 35.5404C292.338 35.5404 293.168 34.7703 293.812 34.9248C294.455 35.0792 294.7 35.6992 294.597 35.7013C294.494 35.7035 294.168 35.2251 293.816 35.1886C293.464 35.1522 293.213 35.3195 292.908 35.4739C292.604 35.6284 292.417 35.7356 292.338 35.5404Z" fill="#263238" stroke="#030113" stroke-width="0.5" stroke-miterlimit="10"/>
<path d="M291.159 36.1522C291.15 36.0999 291.129 36.0501 291.099 36.0062C291.069 35.9623 291.03 35.9252 290.985 35.8972C290.94 35.8693 290.889 35.8513 290.836 35.8442C290.784 35.8371 290.73 35.8412 290.679 35.8562C290.299 35.9141 290.012 36.6049 290.128 36.5963C290.243 36.5877 290.37 36.1522 290.666 36.1115C290.962 36.0707 291.159 36.5341 291.159 36.1522Z" fill="#263238" stroke="#030113" stroke-width="0.5" stroke-miterlimit="10"/>
<path d="M290.516 40.4083C290.516 40.4083 291.123 40.3375 291.912 40.2388C292.702 40.1402 293.813 39.9857 293.997 39.4215C294.102 39.1482 294.15 38.8561 294.137 38.5635" stroke="#030113" stroke-width="0.75" stroke-miterlimit="10"/>
<path d="M293.71 38.5207C293.941 38.5018 294.174 38.5163 294.401 38.5636" stroke="#030113" stroke-width="0.75" stroke-miterlimit="10"/>
<path d="M296.962 41.3047C296.851 41.8276 296.544 42.2882 296.104 42.5918C295.401 43.0401 290.233 43.5528 290.405 43.6172C290.576 43.6815 291.248 44.0033 291.248 44.0033L291.449 45.8374C292.263 45.1169 293.168 44.5067 294.141 44.0226C295.853 43.1345 296.922 42.8406 296.962 41.3047Z" fill="#263238" stroke="#030113" stroke-width="0.5" stroke-miterlimit="10"/>
<path d="M299.845 66.3537C299.845 66.3537 298.884 66.3065 298.644 66.2593C298.404 66.2121 297.636 65.4892 297.299 65.5385C296.962 65.5879 296.34 66.2593 296.1 66.8256C295.86 67.3919 295.763 67.6837 295.763 67.6837C295.763 67.6837 294.905 68.4516 295.334 68.9708C295.763 69.4899 296.248 69.3076 296.248 69.3076C296.248 69.3076 296.535 69.7881 296.919 69.8353C297.204 69.8669 297.491 69.8833 297.777 69.8846C298.026 69.9608 298.286 69.9934 298.545 69.9811C298.75 69.9361 298.946 69.8547 299.122 69.7409C299.326 69.7646 299.531 69.7127 299.699 69.595C299.875 69.4556 300.727 68.5846 301.167 68.1363L301.426 67.8682L299.845 66.3537Z" fill="white" stroke="#030113" stroke-width="0.75" stroke-miterlimit="10"/>
<path d="M307.864 56.4625C307.864 56.4625 306.088 58.4318 305.504 59.3906C304.575 60.8538 303.565 62.2646 302.48 63.6166C301.808 64.3845 299.455 66.2594 299.455 66.2594C299.455 66.2594 300.174 67.7953 300.704 68.0356C301.012 68.1774 301.333 68.2895 301.662 68.3702L303.593 66.9308C303.593 66.9308 307.24 64.1421 309.17 62.5612C311.101 60.9802 313.78 58.8629 313.973 57.9513C314.166 57.0396 314.021 56.5591 313.062 55.8383C312.465 55.3966 311.8 55.056 311.092 54.8301" fill="#92E3A9"/>
<path d="M307.864 56.4625C307.864 56.4625 306.088 58.4318 305.504 59.3906C304.575 60.8538 303.565 62.2646 302.48 63.6166C301.808 64.3845 299.455 66.2594 299.455 66.2594C299.455 66.2594 300.174 67.7953 300.704 68.0356C301.012 68.1774 301.333 68.2895 301.662 68.3702L303.593 66.9308C303.593 66.9308 307.24 64.1421 309.17 62.5612C311.101 60.9802 313.78 58.8629 313.973 57.9513C314.166 57.0396 314.021 56.5591 313.062 55.8383C312.465 55.3966 311.8 55.056 311.092 54.8301" stroke="#030113" stroke-width="0.75" stroke-miterlimit="10"/>
<path d="M300.95 65.0576C300.95 65.0576 301.379 67.1706 302.87 67.1706" stroke="#030113" stroke-width="0.75" stroke-miterlimit="10"/>
<path d="M280.026 49.4994C280.026 49.4994 280.224 51.1876 280.324 51.9491C280.353 52.3329 280.466 52.7057 280.655 53.041C280.655 53.041 279.1 56.5162 279.033 56.617C278.967 56.7178 277.345 59.7618 277.079 60.1243C276.813 60.4868 276.187 61.6473 276.583 62.3767C276.98 63.106 277.609 64.5948 278.437 64.6269C279.265 64.6591 280.423 64.1636 281.225 63.7002C282.028 63.2369 282.285 62.9387 282.352 61.6152C282.418 60.2916 282.384 57.9084 282.618 56.6492C282.851 55.39 283.014 54.075 283.18 53.5709C283.345 53.0668 284.306 53.2405 284.636 53.041C284.967 52.8415 285.265 52.4125 285.861 52.1465C286.378 51.9499 286.941 51.9045 287.483 52.0156C287.682 52.0821 288.045 51.784 287.946 51.4193C287.847 51.0546 287.185 50.8573 286.522 50.9216C285.859 50.986 285.265 51.1876 285.1 51.0889C284.934 50.9903 284.769 49.2334 284.769 49.2334C284.769 49.2334 282.41 49.4329 281.59 49.4651C280.771 49.4973 280.026 49.4994 280.026 49.4994Z" fill="white" stroke="#030113" stroke-width="0.75" stroke-miterlimit="10"/>
<path d="M283.666 48.2076C283.666 48.2076 283.7 50.3935 283.7 50.5909C283.701 50.6369 283.711 50.6824 283.729 50.7244C283.748 50.7664 283.776 50.8041 283.81 50.8351C283.844 50.8661 283.884 50.8898 283.927 50.9046C283.971 50.9194 284.017 50.9251 284.063 50.9213C284.23 50.8891 284.659 51.0543 284.76 50.5587C284.861 50.0632 285.056 48.671 284.957 48.3406C284.859 48.0103 283.964 47.8773 283.666 48.2076Z" fill="white" stroke="#030113" stroke-width="0.75" stroke-miterlimit="10"/>
<path d="M283.666 48.2077C283.666 48.2077 282.609 47.9439 282.311 48.1091C282.012 48.2742 282.476 50.6253 282.508 50.8227C282.54 51.02 283.006 51.1208 283.203 51.0543C283.4 50.9878 283.701 50.857 283.701 50.591C283.701 50.325 283.666 48.2077 283.666 48.2077Z" fill="white" stroke="#030113" stroke-width="0.75" stroke-miterlimit="10"/>
<path d="M282.079 48.1757C282.079 48.1757 281.384 48.0427 281.184 48.2744C280.985 48.506 280.921 48.8364 280.985 49.4327C281.072 50.0197 281.251 50.5893 281.515 51.121C281.648 51.3205 282.079 51.3526 282.343 51.254C282.607 51.1553 282.508 50.8249 282.508 50.8249C282.508 50.8249 282.375 50.6919 282.343 49.6666C282.311 48.6412 282.311 48.1113 282.311 48.1113L282.079 48.1757Z" fill="white" stroke="#030113" stroke-width="0.75" stroke-miterlimit="10"/>
<path d="M280.921 48.5723C280.788 48.6044 279.96 48.6388 279.928 48.9691C279.896 49.2995 280.192 50.8568 280.325 51.022C280.458 51.1872 280.821 51.1207 280.954 51.0542C281.087 50.9877 281.318 50.889 281.284 50.6895C281.25 50.49 280.921 48.5723 280.921 48.5723Z" fill="white" stroke="#030113" stroke-width="0.75" stroke-miterlimit="10"/>
<path d="M281.184 55.1256C280.946 55.0878 280.722 54.9888 280.534 54.8383C280.346 54.6879 280.201 54.4912 280.112 54.2676C279.657 55.2801 279.078 56.5607 279.039 56.6272C278.972 56.7259 277.351 59.772 277.085 60.1345C276.819 60.4971 276.192 61.6576 276.589 62.3869C276.986 63.1163 277.615 64.605 278.443 64.6372C279.271 64.6694 280.429 64.1738 281.231 63.7105C282.034 63.2471 282.291 62.949 282.357 61.6254C282.424 60.3019 282.39 57.9186 282.623 56.6594C282.735 56.0416 282.838 55.4109 282.924 54.8661C282.365 55.0605 281.775 55.1485 281.184 55.1256Z" fill="#92E3A9" stroke="#030113" stroke-width="0.75" stroke-miterlimit="10"/>
<path d="M282.708 51.4854C282.708 51.4854 282.144 51.9809 282.08 52.4121C282.046 52.6876 282.104 52.9665 282.245 53.2058" fill="white"/>
<path d="M282.708 51.4854C282.708 51.4854 282.144 51.9809 282.08 52.4121C282.046 52.6876 282.104 52.9665 282.245 53.2058" stroke="#030113" stroke-width="0.75" stroke-miterlimit="10"/>
<path d="M32.079 48.988H34.664V50H30.825V42.355H32.079V48.988ZM36.9667 43.367V45.611H39.6067V46.634H36.9667V48.977H39.9367V50H35.7127V42.344H39.9367V43.367H36.9667ZM46.0903 48.438H42.8893L42.3393 50H41.0303L43.7693 42.344H45.2213L47.9603 50H46.6403L46.0903 48.438ZM45.7383 47.415L44.4953 43.862L43.2413 47.415H45.7383ZM53.1222 50L51.3622 46.942H50.4052V50H49.1512V42.355H51.7912C52.3778 42.355 52.8728 42.4577 53.2762 42.663C53.6868 42.8683 53.9912 43.1433 54.1892 43.488C54.3945 43.8327 54.4972 44.2177 54.4972 44.643C54.4972 45.1417 54.3505 45.5963 54.0572 46.007C53.7712 46.4103 53.3275 46.6853 52.7262 46.832L54.6182 50H53.1222ZM50.4052 45.941H51.7912C52.2605 45.941 52.6125 45.8237 52.8472 45.589C53.0892 45.3543 53.2102 45.039 53.2102 44.643C53.2102 44.247 53.0928 43.939 52.8582 43.719C52.6235 43.4917 52.2678 43.378 51.7912 43.378H50.4052V45.941ZM62.3824 50H61.1284L57.3554 44.291V50H56.1014V42.344H57.3554L61.1284 48.042V42.344H62.3824V50Z" fill="#6BAF92"/>
<path d="M39.072 58.228V68H37.112V63.842H32.926V68H30.966V58.228H32.926V62.246H37.112V58.228H39.072ZM44.4452 68.126C43.6985 68.126 43.0265 67.9627 42.4292 67.636C41.8318 67.3 41.3605 66.8287 41.0152 66.222C40.6792 65.6153 40.5112 64.9153 40.5112 64.122C40.5112 63.3287 40.6838 62.6287 41.0292 62.022C41.3838 61.4153 41.8645 60.9487 42.4712 60.622C43.0778 60.286 43.7545 60.118 44.5012 60.118C45.2478 60.118 45.9245 60.286 46.5312 60.622C47.1378 60.9487 47.6138 61.4153 47.9592 62.022C48.3138 62.6287 48.4912 63.3287 48.4912 64.122C48.4912 64.9153 48.3092 65.6153 47.9452 66.222C47.5905 66.8287 47.1052 67.3 46.4892 67.636C45.8825 67.9627 45.2012 68.126 44.4452 68.126ZM44.4452 66.418C44.7998 66.418 45.1312 66.334 45.4392 66.166C45.7565 65.9887 46.0085 65.7273 46.1952 65.382C46.3818 65.0367 46.4752 64.6167 46.4752 64.122C46.4752 63.3847 46.2792 62.82 45.8872 62.428C45.5045 62.0267 45.0332 61.826 44.4732 61.826C43.9132 61.826 43.4418 62.0267 43.0592 62.428C42.6858 62.82 42.4992 63.3847 42.4992 64.122C42.4992 64.8593 42.6812 65.4287 43.0452 65.83C43.4185 66.222 43.8852 66.418 44.4452 66.418ZM60.6809 60.244L58.4129 68H56.2989L54.8849 62.582L53.4709 68H51.3429L49.0609 60.244H51.0489L52.4209 66.152L53.9049 60.244H55.9769L57.4329 66.138L58.8049 60.244H60.6809ZM67.3593 61.854V65.606C67.3593 65.8673 67.42 66.0587 67.5413 66.18C67.672 66.292 67.8867 66.348 68.1853 66.348H69.0953V68H67.8633C66.2113 68 65.3853 67.1973 65.3853 65.592V61.854H64.4613V60.244H65.3853V58.326H67.3593V60.244H69.0953V61.854H67.3593ZM73.9491 68.126C73.2024 68.126 72.5304 67.9627 71.9331 67.636C71.3357 67.3 70.8644 66.8287 70.5191 66.222C70.1831 65.6153 70.0151 64.9153 70.0151 64.122C70.0151 63.3287 70.1877 62.6287 70.5331 62.022C70.8877 61.4153 71.3684 60.9487 71.9751 60.622C72.5817 60.286 73.2584 60.118 74.0051 60.118C74.7517 60.118 75.4284 60.286 76.0351 60.622C76.6417 60.9487 77.1177 61.4153 77.4631 62.022C77.8177 62.6287 77.9951 63.3287 77.9951 64.122C77.9951 64.9153 77.8131 65.6153 77.4491 66.222C77.0944 66.8287 76.6091 67.3 75.9931 67.636C75.3864 67.9627 74.7051 68.126 73.9491 68.126ZM73.9491 66.418C74.3037 66.418 74.6351 66.334 74.9431 66.166C75.2604 65.9887 75.5124 65.7273 75.6991 65.382C75.8857 65.0367 75.9791 64.6167 75.9791 64.122C75.9791 63.3847 75.7831 62.82 75.3911 62.428C75.0084 62.0267 74.5371 61.826 73.9771 61.826C73.4171 61.826 72.9457 62.0267 72.5631 62.428C72.1897 62.82 72.0031 63.3847 72.0031 64.122C72.0031 64.8593 72.1851 65.4287 72.5491 65.83C72.9224 66.222 73.3891 66.418 73.9491 66.418ZM85.8067 60.118C86.3854 60.118 86.8941 60.2347 87.3327 60.468C87.7714 60.692 88.1167 60.986 88.3687 61.35V60.244H90.3427V68.056C90.3427 68.7747 90.1981 69.414 89.9087 69.974C89.6194 70.5433 89.1854 70.9913 88.6067 71.318C88.0281 71.654 87.3281 71.822 86.5067 71.822C85.4054 71.822 84.5001 71.5653 83.7907 71.052C83.0907 70.5387 82.6941 69.8387 82.6007 68.952H84.5467C84.6494 69.3067 84.8687 69.5867 85.2047 69.792C85.5501 70.0067 85.9654 70.114 86.4507 70.114C87.0201 70.114 87.4821 69.9413 87.8367 69.596C88.1914 69.26 88.3687 68.7467 88.3687 68.056V66.852C88.1167 67.216 87.7667 67.5193 87.3187 67.762C86.8801 68.0047 86.3761 68.126 85.8067 68.126C85.1534 68.126 84.5561 67.958 84.0147 67.622C83.4734 67.286 83.0441 66.8147 82.7267 66.208C82.4187 65.592 82.2647 64.8873 82.2647 64.094C82.2647 63.31 82.4187 62.6147 82.7267 62.008C83.0441 61.4013 83.4687 60.9347 84.0007 60.608C84.5421 60.2813 85.1441 60.118 85.8067 60.118ZM88.3687 64.122C88.3687 63.646 88.2754 63.24 88.0887 62.904C87.9021 62.5587 87.6501 62.2973 87.3327 62.12C87.0154 61.9333 86.6747 61.84 86.3107 61.84C85.9467 61.84 85.6107 61.9287 85.3027 62.106C84.9947 62.2833 84.7427 62.5447 84.5467 62.89C84.3601 63.226 84.2667 63.6273 84.2667 64.094C84.2667 64.5607 84.3601 64.9713 84.5467 65.326C84.7427 65.6713 84.9947 65.9373 85.3027 66.124C85.6201 66.3107 85.9561 66.404 86.3107 66.404C86.6747 66.404 87.0154 66.3153 87.3327 66.138C87.6501 65.9513 87.9021 65.69 88.0887 65.354C88.2754 65.0087 88.3687 64.598 88.3687 64.122ZM99.467 63.954C99.467 64.234 99.4483 64.486 99.411 64.71H93.741C93.7877 65.27 93.9837 65.7087 94.329 66.026C94.6743 66.3433 95.099 66.502 95.603 66.502C96.331 66.502 96.849 66.1893 97.157 65.564H99.271C99.047 66.3107 98.6177 66.9267 97.983 67.412C97.3483 67.888 96.569 68.126 95.645 68.126C94.8983 68.126 94.2263 67.9627 93.629 67.636C93.041 67.3 92.579 66.8287 92.243 66.222C91.9163 65.6153 91.753 64.9153 91.753 64.122C91.753 63.3193 91.9163 62.6147 92.243 62.008C92.5697 61.4013 93.027 60.9347 93.615 60.608C94.203 60.2813 94.8797 60.118 95.645 60.118C96.3823 60.118 97.0403 60.2767 97.619 60.594C98.207 60.9113 98.6597 61.364 98.977 61.952C99.3037 62.5307 99.467 63.198 99.467 63.954ZM97.437 63.394C97.4277 62.89 97.2457 62.4887 96.891 62.19C96.5363 61.882 96.1023 61.728 95.589 61.728C95.1037 61.728 94.693 61.8773 94.357 62.176C94.0303 62.4653 93.8297 62.8713 93.755 63.394H97.437ZM103.18 61.854V65.606C103.18 65.8673 103.24 66.0587 103.362 66.18C103.492 66.292 103.707 66.348 104.006 66.348H104.916V68H103.684C102.032 68 101.206 67.1973 101.206 65.592V61.854H100.282V60.244H101.206V58.326H103.18V60.244H104.916V61.854H103.18ZM30.49 84.1C30.49 83.1387 30.7047 82.28 31.134 81.524C31.5727 80.7587 32.1653 80.166 32.912 79.746C33.668 79.3167 34.5127 79.102 35.446 79.102C36.538 79.102 37.4947 79.382 38.316 79.942C39.1373 80.502 39.7113 81.2767 40.038 82.266H37.784C37.56 81.7993 37.2427 81.4493 36.832 81.216C36.4307 80.9827 35.964 80.866 35.432 80.866C34.8627 80.866 34.354 81.0013 33.906 81.272C33.4673 81.5333 33.122 81.9067 32.87 82.392C32.6273 82.8773 32.506 83.4467 32.506 84.1C32.506 84.744 32.6273 85.3133 32.87 85.808C33.122 86.2933 33.4673 86.6713 33.906 86.942C34.354 87.2033 34.8627 87.334 35.432 87.334C35.964 87.334 36.4307 87.2173 36.832 86.984C37.2427 86.7413 37.56 86.3867 37.784 85.92H40.038C39.7113 86.9187 39.1373 87.698 38.316 88.258C37.504 88.8087 36.5473 89.084 35.446 89.084C34.5127 89.084 33.668 88.874 32.912 88.454C32.1653 88.0247 31.5727 87.432 31.134 86.676C30.7047 85.92 30.49 85.0613 30.49 84.1ZM49.0341 81.244V89H47.0601V88.02C46.8081 88.356 46.4768 88.622 46.0661 88.818C45.6648 89.0047 45.2261 89.098 44.7501 89.098C44.1434 89.098 43.6068 88.972 43.1401 88.72C42.6734 88.4587 42.3048 88.0807 42.0341 87.586C41.7728 87.082 41.6421 86.4847 41.6421 85.794V81.244H43.6021V85.514C43.6021 86.13 43.7561 86.606 44.0641 86.942C44.3721 87.2687 44.7921 87.432 45.3241 87.432C45.8654 87.432 46.2901 87.2687 46.5981 86.942C46.9061 86.606 47.0601 86.13 47.0601 85.514V81.244H49.0341ZM53.936 89.126C53.3013 89.126 52.732 89.014 52.228 88.79C51.724 88.5567 51.3226 88.244 51.024 87.852C50.7346 87.46 50.576 87.026 50.548 86.55H52.522C52.5593 86.8487 52.704 87.096 52.956 87.292C53.2173 87.488 53.5393 87.586 53.922 87.586C54.2953 87.586 54.5846 87.5113 54.79 87.362C55.0046 87.2127 55.112 87.0213 55.112 86.788C55.112 86.536 54.9813 86.3493 54.72 86.228C54.468 86.0973 54.062 85.9573 53.502 85.808C52.9233 85.668 52.4473 85.5233 52.074 85.374C51.71 85.2247 51.3926 84.996 51.122 84.688C50.8606 84.38 50.73 83.9647 50.73 83.442C50.73 83.0127 50.8513 82.6207 51.094 82.266C51.346 81.9113 51.7006 81.6313 52.158 81.426C52.6246 81.2207 53.1706 81.118 53.796 81.118C54.72 81.118 55.4573 81.3513 56.008 81.818C56.5586 82.2753 56.862 82.896 56.918 83.68H55.042C55.014 83.372 54.8833 83.1293 54.65 82.952C54.426 82.7653 54.1226 82.672 53.74 82.672C53.3853 82.672 53.11 82.7373 52.914 82.868C52.7273 82.9987 52.634 83.1807 52.634 83.414C52.634 83.6753 52.7646 83.876 53.026 84.016C53.2873 84.1467 53.6933 84.282 54.244 84.422C54.804 84.562 55.266 84.7067 55.63 84.856C55.994 85.0053 56.3066 85.2387 56.568 85.556C56.8386 85.864 56.9786 86.2747 56.988 86.788C56.988 87.236 56.862 87.6373 56.61 87.992C56.3673 88.3467 56.0126 88.6267 55.546 88.832C55.0886 89.028 54.552 89.126 53.936 89.126ZM60.8789 82.854V86.606C60.8789 86.8673 60.9395 87.0587 61.0609 87.18C61.1915 87.292 61.4062 87.348 61.7049 87.348H62.6149V89H61.3829C59.7309 89 58.9049 88.1973 58.9049 86.592V82.854H57.9809V81.244H58.9049V79.326H60.8789V81.244H62.6149V82.854H60.8789ZM67.4686 89.126C66.7219 89.126 66.0499 88.9627 65.4526 88.636C64.8553 88.3 64.3839 87.8287 64.0386 87.222C63.7026 86.6153 63.5346 85.9153 63.5346 85.122C63.5346 84.3287 63.7073 83.6287 64.0526 83.022C64.4073 82.4153 64.8879 81.9487 65.4946 81.622C66.1013 81.286 66.7779 81.118 67.5246 81.118C68.2713 81.118 68.9479 81.286 69.5546 81.622C70.1613 81.9487 70.6373 82.4153 70.9826 83.022C71.3373 83.6287 71.5146 84.3287 71.5146 85.122C71.5146 85.9153 71.3326 86.6153 70.9686 87.222C70.6139 87.8287 70.1286 88.3 69.5126 88.636C68.9059 88.9627 68.2246 89.126 67.4686 89.126ZM67.4686 87.418C67.8233 87.418 68.1546 87.334 68.4626 87.166C68.7799 86.9887 69.0319 86.7273 69.2186 86.382C69.4053 86.0367 69.4986 85.6167 69.4986 85.122C69.4986 84.3847 69.3026 83.82 68.9106 83.428C68.5279 83.0267 68.0566 82.826 67.4966 82.826C66.9366 82.826 66.4653 83.0267 66.0826 83.428C65.7093 83.82 65.5226 84.3847 65.5226 85.122C65.5226 85.8593 65.7046 86.4287 66.0686 86.83C66.4419 87.222 66.9086 87.418 67.4686 87.418ZM82.5843 81.132C83.5363 81.132 84.3017 81.426 84.8803 82.014C85.4683 82.5927 85.7623 83.4047 85.7623 84.45V89H83.8023V84.716C83.8023 84.1093 83.6483 83.6473 83.3403 83.33C83.0323 83.0033 82.6123 82.84 82.0803 82.84C81.5483 82.84 81.1237 83.0033 80.8063 83.33C80.4983 83.6473 80.3443 84.1093 80.3443 84.716V89H78.3843V84.716C78.3843 84.1093 78.2303 83.6473 77.9223 83.33C77.6143 83.0033 77.1943 82.84 76.6623 82.84C76.121 82.84 75.6917 83.0033 75.3743 83.33C75.0663 83.6473 74.9123 84.1093 74.9123 84.716V89H72.9523V81.244H74.9123V82.182C75.1643 81.8553 75.4863 81.5987 75.8783 81.412C76.2797 81.2253 76.7183 81.132 77.1943 81.132C77.801 81.132 78.3423 81.2627 78.8183 81.524C79.2943 81.776 79.663 82.14 79.9243 82.616C80.1763 82.168 80.5403 81.8087 81.0163 81.538C81.5017 81.2673 82.0243 81.132 82.5843 81.132ZM94.8323 84.954C94.8323 85.234 94.8136 85.486 94.7763 85.71H89.1063C89.1529 86.27 89.3489 86.7087 89.6943 87.026C90.0396 87.3433 90.4643 87.502 90.9683 87.502C91.6963 87.502 92.2143 87.1893 92.5223 86.564H94.6363C94.4123 87.3107 93.9829 87.9267 93.3483 88.412C92.7136 88.888 91.9343 89.126 91.0103 89.126C90.2636 89.126 89.5916 88.9627 88.9943 88.636C88.4063 88.3 87.9443 87.8287 87.6083 87.222C87.2816 86.6153 87.1182 85.9153 87.1182 85.122C87.1182 84.3193 87.2816 83.6147 87.6083 83.008C87.9349 82.4013 88.3923 81.9347 88.9803 81.608C89.5683 81.2813 90.2449 81.118 91.0103 81.118C91.7476 81.118 92.4056 81.2767 92.9843 81.594C93.5723 81.9113 94.0249 82.364 94.3423 82.952C94.6689 83.5307 94.8323 84.198 94.8323 84.954ZM92.8023 84.394C92.7929 83.89 92.6109 83.4887 92.2563 83.19C91.9016 82.882 91.4676 82.728 90.9543 82.728C90.4689 82.728 90.0583 82.8773 89.7223 83.176C89.3956 83.4653 89.1949 83.8713 89.1203 84.394H92.8023ZM98.2229 82.448C98.4749 82.0373 98.8015 81.7153 99.2029 81.482C99.6135 81.2487 100.08 81.132 100.603 81.132V83.19H100.085C99.4689 83.19 99.0022 83.3347 98.6849 83.624C98.3769 83.9133 98.2229 84.4173 98.2229 85.136V89H96.2629V81.244H98.2229V82.448ZM111.909 79.228V80.81H109.305V89H107.345V80.81H104.741V79.228H111.909ZM115.299 82.448C115.551 82.0373 115.878 81.7153 116.279 81.482C116.69 81.2487 117.156 81.132 117.679 81.132V83.19H117.161C116.545 83.19 116.078 83.3347 115.761 83.624C115.453 83.9133 115.299 84.4173 115.299 85.136V89H113.339V81.244H115.299V82.448ZM126.321 81.244V89H124.347V88.02C124.095 88.356 123.764 88.622 123.353 88.818C122.952 89.0047 122.513 89.098 122.037 89.098C121.431 89.098 120.894 88.972 120.427 88.72C119.961 88.4587 119.592 88.0807 119.321 87.586C119.06 87.082 118.929 86.4847 118.929 85.794V81.244H120.889V85.514C120.889 86.13 121.043 86.606 121.351 86.942C121.659 87.2687 122.079 87.432 122.611 87.432C123.153 87.432 123.577 87.2687 123.885 86.942C124.193 86.606 124.347 86.13 124.347 85.514V81.244H126.321ZM131.223 89.126C130.588 89.126 130.019 89.014 129.515 88.79C129.011 88.5567 128.61 88.244 128.311 87.852C128.022 87.46 127.863 87.026 127.835 86.55H129.809C129.846 86.8487 129.991 87.096 130.243 87.292C130.504 87.488 130.826 87.586 131.209 87.586C131.582 87.586 131.872 87.5113 132.077 87.362C132.292 87.2127 132.399 87.0213 132.399 86.788C132.399 86.536 132.268 86.3493 132.007 86.228C131.755 86.0973 131.349 85.9573 130.789 85.808C130.21 85.668 129.734 85.5233 129.361 85.374C128.997 85.2247 128.68 84.996 128.409 84.688C128.148 84.38 128.017 83.9647 128.017 83.442C128.017 83.0127 128.138 82.6207 128.381 82.266C128.633 81.9113 128.988 81.6313 129.445 81.426C129.912 81.2207 130.458 81.118 131.083 81.118C132.007 81.118 132.744 81.3513 133.295 81.818C133.846 82.2753 134.149 82.896 134.205 83.68H132.329C132.301 83.372 132.17 83.1293 131.937 82.952C131.713 82.7653 131.41 82.672 131.027 82.672C130.672 82.672 130.397 82.7373 130.201 82.868C130.014 82.9987 129.921 83.1807 129.921 83.414C129.921 83.6753 130.052 83.876 130.313 84.016C130.574 84.1467 130.98 84.282 131.531 84.422C132.091 84.562 132.553 84.7067 132.917 84.856C133.281 85.0053 133.594 85.2387 133.855 85.556C134.126 85.864 134.266 86.2747 134.275 86.788C134.275 87.236 134.149 87.6373 133.897 87.992C133.654 88.3467 133.3 88.6267 132.833 88.832C132.376 89.028 131.839 89.126 131.223 89.126ZM138.166 82.854V86.606C138.166 86.8673 138.227 87.0587 138.348 87.18C138.479 87.292 138.693 87.348 138.992 87.348H139.902V89H138.67C137.018 89 136.192 88.1973 136.192 86.592V82.854H135.268V81.244H136.192V79.326H138.166V81.244H139.902V82.854H138.166Z" fill="#030113"/>
</svg>
