<svg fill="none" height="235" viewBox="0 0 249 235" width="249" xmlns="http://www.w3.org/2000/svg" xmlns:xlink="http://www.w3.org/1999/xlink"><clipPath id="a"><path d="m0 0h249v235h-249z"/></clipPath><g clip-path="url(#a)"><g fill="#000"><path d="m200.937 153.962c.078-2.805-.775-5.557-2.427-7.828-1.652-2.272-4.011-3.936-6.709-4.733-5.441-1.46-11.222 1.222-14.9 5.185-1.653 1.723-2.891 3.798-3.619 6.069-.545 1.782-.732 4.244 1.261 5.186 1.992.942 3.848-.467 5.108-1.885 1.575-1.739 2.699-3.827 4.632-5.228 1.194-.881 2.56-1.505 4.01-1.831s2.952-.347 4.41-.062c1.425.299 2.759.93 3.891 1.842 1.207 1.112 2.21 2.424 2.963 3.879.08.104.194.175.323.2.128.025.261.003.374-.063.113-.065.198-.17.239-.294.041-.123.035-.258-.016-.378-1.226-2.028-2.444-3.878-4.555-5.092-1.921-1.081-4.132-1.54-6.326-1.316-2.204.21-4.306 1.027-6.071 2.36-1.635 1.23-2.69 2.877-3.968 4.447-1.03 1.273-3.405 3.913-5.108 2.08-1.405-1.477.076-4.592.851-6.035 2.555-4.507 7.476-8.131 12.772-8.394 6.564-.331 11.996 5.423 11.766 11.882 0 .679 1.039.679 1.065 0z"/><path d="m189.272 231.257c-.045.008-.091.008-.136 0-.107-.039-.194-.117-.243-.218-.049-.102-.057-.218-.021-.325 5.551-15.94 8.216-45.569 9.808-63.274.4-4.464.749-8.318 1.047-10.983.211-1.637-.131-3.297-.97-4.719-.03-.048-.049-.101-.058-.156-.008-.056-.006-.112.008-.167.013-.054.037-.105.071-.151.033-.045.075-.083.124-.111.047-.029.1-.049.154-.057.055-.009.112-.006.165.007.054.014.105.038.15.071.044.033.081.075.109.123.94 1.582 1.326 3.429 1.099 5.254-.307 2.656-.647 6.501-1.056 10.965-1.592 17.739-4.257 47.437-9.842 63.478-.033.08-.09.148-.163.195s-.159.071-.246.068z"/><path d="m219.506 148.275c2.487-5.185 8.838-8.029 14.313-5.941 5.032 1.927 8.25 7.35 8.931 12.494.345 1.995.151 4.045-.561 5.941-.946 2.105-3.142 1.825-4.096-.11-.851-1.8-.962-3.896-1.371-5.823-.465-2.169-1.529-4.165-3.073-5.763-1.785-1.867-4.16-3.066-6.727-3.395-3.031-.356-5.466.798-7.977 2.334-.104.079-.176.194-.201.322-.026.127-.003.26.063.373.066.112.17.197.295.238.124.041.259.035.379-.016 1.261-.885 2.655-1.564 4.129-2.012 1.4-.333 2.858-.333 4.257 0 1.397.356 2.707.991 3.85 1.866 1.143.876 2.095 1.973 2.8 3.227 1.167 2.028 1.32 4.244 1.788 6.459.366 1.757.996 4.031 2.878 4.736 4.666 1.748 4.989-5.814 4.615-8.547-.724-5.33-3.959-10.796-9.034-13.037-6.011-2.648-13.359.314-16.177 6.162-.29.611.63 1.154.919.535z"/><path d="m196.825 233.107h-.06c-.056-.007-.11-.025-.159-.054-.049-.028-.092-.066-.126-.111s-.058-.096-.072-.151-.017-.112-.009-.167c3.159-21.363 16.79-70.582 21.337-82.388.645-1.722 1.842-3.184 3.406-4.159.048-.029.101-.049.157-.057.055-.009.112-.006.167.007.054.014.106.038.151.071s.083.075.112.124c.057.097.074.212.047.322-.027.109-.096.203-.192.263-1.405.874-2.48 2.187-3.056 3.735-4.538 11.78-18.127 60.888-21.286 82.209-.017.098-.069.187-.145.252s-.172.102-.272.104z"/><path d="m193.606 232.318c-.048.008-.097.008-.145 0-.105-.037-.192-.113-.241-.213-.05-.1-.058-.216-.022-.322 6.862-19.674 16.611-81.725 18.203-95.56.208-1.637-.136-3.298-.979-4.719-.059-.096-.077-.213-.049-.322.027-.11.097-.205.194-.263.097-.059.213-.076.323-.049.111.027.205.096.264.193.939 1.582 1.322 3.43 1.09 5.254-1.592 13.86-11.367 76.013-18.238 95.738-.032.079-.088.146-.159.193s-.155.071-.241.07z"/><path d="m207.118 165.734c-.055-.002-.11-.015-.16-.039-.051-.023-.096-.056-.133-.098-.037-.041-.066-.089-.084-.141-.019-.052-.026-.108-.023-.163.383-6.561-1.226-20.455-1.243-20.599-.012-.112.021-.223.091-.31.07-.088.172-.144.284-.157.111-.012.223.021.311.091s.144.171.157.282c0 .136 1.635 14.107 1.252 20.735-.004.056-.018.111-.042.161-.025.05-.059.095-.101.132s-.091.066-.144.084-.109.026-.165.022z"/><path d="m206.335 148.776h-.043c-.105-.01-.203-.06-.274-.138-.071-.079-.11-.181-.109-.286-.066-2.029-.504-4.028-1.294-5.899-.752-1.886-2.001-3.534-3.615-4.771s-3.533-2.017-5.555-2.257c-5.466-.848-8.991-2.401-10.481-4.634-.309-.42-.526-.899-.638-1.408-.111-.509-.114-1.035-.009-1.545.131-.577.385-1.119.743-1.59s.813-.861 1.334-1.143c2.359-1.333 6.386-1.112 11.963.628 12.039 3.76 8.429 22.517 8.395 22.704-.021.095-.074.18-.15.242-.075.061-.17.096-.267.097zm-15.965-23.68c-1.231-.063-2.457.195-3.559.747-.426.222-.799.534-1.093.913-.294.38-.502.818-.609 1.285-.075.397-.066.804.024 1.197.091.393.263.763.503 1.087.929 1.391 3.406 3.259 9.903 4.243 7.39 1.146 9.893 6.79 10.745 10.457.434-5.39.136-15.889-8.217-18.494-2.48-.855-5.074-1.339-7.697-1.435z"/><path d="m211.826 136.24s-10.889-12.281-5.253-12.918c5.637-.636 7.305 8.309 5.253 12.918z"/><path d="m211.826 136.648c-.06 0-.12-.012-.175-.035-.056-.024-.106-.058-.148-.101-.852-.934-8.063-9.217-6.812-12.4.158-.364.418-.674.749-.892.331-.219.719-.337 1.116-.339.901-.109 1.815.034 2.639.413s1.526.98 2.027 1.734c2.052 2.784 2.554 7.996 1.013 11.374-.03.063-.075.119-.132.162-.056.043-.122.072-.192.084zm-4.683-12.952h-.519c-.936.11-1.107.552-1.158.696-.851 2.139 3.849 8.233 6.216 11.034 1.081-3.115.604-7.486-1.167-9.888-.367-.558-.867-1.017-1.455-1.336-.589-.318-1.247-.486-1.917-.489z"/><path d="m202.358 194.617s4.428-8.657 8.404-5.296-8.404 5.296-8.404 5.296z"/><path d="m202.359 195.041c-.068.001-.136-.014-.197-.046-.061-.031-.113-.076-.152-.132-.04-.067-.061-.143-.061-.221 0-.077.021-.154.061-.22.119-.221 2.895-5.577 6.173-6.23.515-.097 1.046-.071 1.55.076.503.148.964.413 1.345.773.33.217.588.528.739.892.152.365.191.766.112 1.153-.724 2.546-8.599 3.853-9.493 3.998zm6.454-6.068c-.166 0-.332.017-.494.051-2.205.432-4.257 3.556-5.109 5.024 3.176-.586 7.536-1.833 7.936-3.234 0-.127.144-.526-.613-1.171-.47-.429-1.083-.669-1.72-.67z"/><path d="m215.939 191.341c-.608.016-1.205-.163-1.703-.51-1.269-.891-1.839-2.885-1.703-5.941.111-2.436-.341-4.243-1.303-5.313-.429-.507-1.04-.827-1.703-.891-.089-.003-.175-.034-.246-.088-.071-.055-.123-.13-.148-.216-.026-.085-.023-.176.006-.261.03-.084.085-.156.159-.207.136-.102 3.55-2.47 6.607-1.486 1.617.518 2.818 1.876 3.55 4.015 2.452 7.121 1.03 9.336-1.839 10.541-.533.218-1.101.338-1.677.357zm-5.288-13.232c.458.201.872.489 1.218.849 1.149 1.23 1.703 3.233 1.549 5.941-.153 2.707.333 4.515 1.337 5.22.391.211.827.326 1.271.335.445.009.885-.089 1.284-.285 2.043-.848 3.839-2.257 1.362-9.472-.647-1.875-1.703-3.055-3.006-3.488-1.813-.569-3.891.297-5.015.9z"/><path d="m213.521 164.936h-.094c-.109-.028-.203-.096-.263-.191-.06-.094-.081-.208-.061-.318l9.281-41.673c.025-.113.094-.211.191-.273s.215-.083.328-.058.212.093.274.19.083.215.058.327l-9.28 41.674c-.024.095-.08.18-.159.239s-.177.088-.275.083z"/><path d="m221.788 126.463c-2.145-7.783-18.85-4.991-20.051-8.114-2.452-6.349 6.114-4.329 8.651-3.607 3.866 1.175 7.452 3.121 10.54 5.72-1.813-3.633-4.844-5.839-8.054-7.834-2.384-1.307-10.617-4.379-9.962-8.046 1.422-8.2836 17.88 7.35 19.685 10.609-.477-3.564-5.108-20.8023 2.257-21.6341 6.045-.5347-.648 15.6171.928 18.6721 2.639-2.69 6.36-8.351 9.621-10.516 7.22-4.8035 11.852-1.604 6.632 2.071-4.657 3.285-11.749 7.639-14.474 13.801 3.687-1.468 6.556-3.616 10.311-4.32 2.231-.577 12.226-1.638 11.068 2.639-1.702 5.263-17.88 2.131-22.018 5.339 2.453 2.062 7.476.679 10.822 2.088 3.321 1.044 8.216 5.169 2.231 6.45-5.637.849-12.61-7.817-18.153-3.344"/><path d="m198.579 181.988c-3.559-3.964-12.602 2.546-14.228 1.078-3.312-3.031 2.342-4.346 4.044-4.66 2.63-.437 5.321-.336 7.91.297-2.145-1.621-4.58-2.029-7.058-2.275-1.797-.068-7.561.527-8.25-1.833-1.601-5.305 12.728-.891 14.738.509-1.328-1.969-9.128-10.796-5.041-13.435 3.406-2.08 4.215 9.404 6.062 10.77.758-2.368 1.295-6.79 2.555-9.022 2.844-4.948 6.522-4.413 4.521-.721-1.78 3.301-4.675 7.969-4.487 12.383 1.745-1.944 2.81-4.049 4.81-5.559 1.15-1.002 6.735-4.55 7.306-1.698.562 3.599-9.945 6.493-11.427 9.591 2.052.501 4.607-1.782 6.999-1.927 2.265-.356 6.369.645 3.219 3.149-3.074 2.164-9.749-.925-11.699 3.336"/><path d="m214.475 161.787c.476-5.304-10.481-7.435-10.498-9.641 0-4.482 4.785-1.257 6.172-.221 2.118 1.606 3.883 3.628 5.186 5.941-.281-2.665-1.635-4.719-3.151-6.688-1.175-1.366-5.542-5.16-4.257-7.274 2.801-4.778 9.366 8.674 9.681 11.093.536-2.308 1.703-14.012 6.42-12.833 3.857 1.07-4.028 9.489-3.764 11.764 2.248-1.061 5.858-3.692 8.378-4.244 5.569-1.298 7.663 1.749 3.61 2.818-3.635.951-9.033 2.02-12.149 5.16 2.613-.051 4.887-.713 7.364-.28 1.516.162 7.927 1.808 6.207 4.176-2.247 2.869-11.536-2.809-14.823-1.782 1.03 1.833 4.453 2.139 6.19 3.785 1.805 1.409 3.874 5.093-.119 4.49-3.687-.755-5.96-7.732-10.422-6.247"/></g><path d="m81.4305 234.839c-13.5207-.925-36.356.051-39.6595.051-12.7118 0 8.957-10.703 13.8612-10.593 7.135.06 15.4194 2.326 21.7114 5.305-4.9979-5.686-11.5113-8.216-18.229-10.295-4.9298-1.18-21.2261-2.877-21.7881-9.769-1.3793-15.592 35.76 4.761 40.5109 9.786-2.5542-6.187-19.0975-35.053-6.2494-40.035 10.6258-3.82 6.275 28.424 10.5917 33.236 3.4653-6.102 7.467-18.044 12.3032-23.493 10.7191-12.077 20.5871-8.487 12.9421.594-6.812 8.114-17.5058 19.377-19.5237 31.701 5.96-4.38 10.0894-9.608 16.5007-12.655 3.755-2.096 21.286-8.75 21.166-.492-.493 10.278-31.2214 12.332-37.1047 20.056 5.3895 2.546 13.7757-2.326 20.4857-1.367 6.47.297 19.225 6.451 7.875 7.512-9.8.916-18.8333.152-34.21.195" fill="#95d67c"/><path d="m189.06.424316h-87.007c-7.5242 0-13.6233 6.079924-13.6233 13.579884v206.9918c0 7.5 6.0991 13.58 13.6233 13.58h87.007c7.524 0 13.623-6.08 13.623-13.58v-206.9918c0-7.49996-6.099-13.579884-13.623-13.579884z" fill="#fff"/><path d="m189.06 235h-87.008c-3.7241-.004-7.2947-1.481-9.9284-4.107-2.6336-2.625-4.1152-6.184-4.1197-9.897v-206.9917c.0045-3.7128 1.4861-7.27225 4.1197-9.89759 2.6337-2.62533 6.2043-4.10221782 9.9284-4.10671h87.008c3.724.00449218 7.295 1.48138 9.929 4.10671 2.633 2.62534 4.115 6.18479 4.119 9.89759v206.9917c-.004 3.713-1.486 7.272-4.119 9.897-2.634 2.626-6.205 4.103-9.929 4.107zm-87.008-234.151257c-3.4983.004492-6.8524 1.391957-9.3263 3.858127-2.474 2.46616-3.8659 5.80973-3.8704 9.29743v206.9917c.0045 3.487 1.3964 6.831 3.8704 9.297 2.4739 2.466 5.828 3.854 9.3263 3.858h87.008c3.499-.002 6.855-1.389 9.329-3.855 2.475-2.467 3.866-5.812 3.868-9.3v-206.9917c-.002-3.4884-1.393-6.83326-3.868-9.29991-2.474-2.46665-5.83-3.853398-9.329-3.855647z" fill="#000"/><path d="m175.505.424316h-86.8544c-7.566 0-13.6994 6.114124-13.6994 13.656284v206.8384c0 7.542 6.1334 13.657 13.6994 13.657h86.8544c7.566 0 13.699-6.115 13.699-13.657v-206.8384c0-7.54216-6.133-13.656284-13.699-13.656284z" fill="#fff"/><path d="m175.505 235h-86.8456c-3.7449-.004-7.3351-1.489-9.9831-4.129s-4.1376-6.219-4.1421-9.952v-206.8384c.0045-3.7315 1.4929-7.3091 4.1391-9.94852s6.2342-4.12534295 9.9776-4.13208h86.8451c3.745.00449223 7.335 1.48943 9.984 4.12909 2.648 2.63966 4.137 6.21851 4.142 9.95151v206.8384c-.005 3.732-1.493 7.31-4.139 9.949-2.647 2.639-6.235 4.125-9.978 4.132zm-86.8541-234.151257c-3.5198.002249-6.8947 1.397047-9.3835 3.878017-2.4888 2.48098-3.8881 5.84524-3.8903 9.35384v206.8384c.0022 3.509 1.4015 6.873 3.8903 9.354s5.8637 3.876 9.3835 3.878h86.8451c3.52-.004 6.893-1.4 9.381-3.88 2.489-2.481 3.889-5.844 3.893-9.352v-206.8384c-.004-3.5064-1.403-6.86812-3.89-9.34837-2.486-2.48025-5.857-3.876751-9.375-3.883487z" fill="#000"/><path d="m175.088 3.23364h-86.0285c-6.2353 0-11.29 5.03874-11.29 11.25436v181.402c0 6.215 5.0547 11.254 11.29 11.254h86.0285c6.235 0 11.29-5.039 11.29-11.254v-181.402c0-6.21562-5.055-11.25436-11.29-11.25436z" fill="#fff"/><path d="m175.096 207.577h-86.0366c-3.1065-.002-6.0851-1.233-8.2817-3.423s-3.4317-5.159-3.4339-8.256v-181.41c.0022-3.0967 1.2373-6.06588 3.4339-8.25558 2.1966-2.18969 5.1752-3.42085 8.2817-3.42309h86.0366c3.105.00449 6.082 1.23664 8.276 3.42609 2.195 2.18945 3.429 5.15738 3.431 8.25258v181.41c-.002 3.096-1.236 6.064-3.431 8.253-2.194 2.189-5.171 3.422-8.276 3.426zm-86.0366-203.91893c-2.88.00449-5.6407 1.14694-7.6772 3.17698-2.0364 2.03004-3.1825 4.78205-3.187 7.65295v181.41c.0045 2.871 1.1506 5.623 3.187 7.653 2.0365 2.03 4.7972 3.173 7.6772 3.177h86.0366c2.879-.004 5.639-1.147 7.674-3.177s3.18-4.782 3.182-7.653v-181.41c-.002-2.8701-1.147-5.62215-3.182-7.65243s-4.795-3.17301-7.674-3.1775z" fill="#000"/><path d="m181.422 233.073c.281-.144.562-.297.851-.458-.289.161-.57.314-.851.458z" fill="#eaf4ff"/><path d="m181.422 1.92676c.281.14428.562.29706.851.45832-.289-.16126-.57-.31404-.851-.45832z" fill="#eaf4ff"/><path d="m198.135 21.0488c0-1.0359-.842-1.8757-1.881-1.8757s-1.882.8398-1.882 1.8757v12.188c0 1.0359.843 1.8757 1.882 1.8757s1.881-.8398 1.881-1.8757z" fill="#000"/><path d="m128.523 230.357c5.201 0 9.417-4.202 9.417-9.387 0-5.184-4.216-9.387-9.417-9.387s-9.417 4.203-9.417 9.387c0 5.185 4.216 9.387 9.417 9.387z" fill="#000"/><path d="m150.048 7.77441h-28.081c-.757 0-1.37.6118-1.37 1.36648s.613 1.36651 1.37 1.36651h28.081c.757 0 1.37-.61183 1.37-1.36651s-.613-1.36648-1.37-1.36648z" fill="#000"/><path d="m118.766 9.14089c0-.75468-.614-1.36648-1.371-1.36648s-1.371.6118-1.371 1.36648.614 1.36651 1.371 1.36651 1.371-.61183 1.371-1.36651z" fill="#000"/><path d="m47.6115 105.244 22.3074 4.117c.3713.061.7476.086 1.1239.076 1.0046-.085 4.1123-.611 5.9003-.314.1044.018.2002.069.274.144.0738.076.1216.173.1367.278.0151.104-.0033.211-.0526.304-.0493.094-.1269.169-.2218.216-.9111.416-2.3159.755-2.5543 1.103 0 0-.5194.705.9791 1.036 1.7029.365 5.5684 1.035 7.9694 1.247.1129 0 .2212.045.301.125.0799.079.1247.187.1247.3 0 .112-.0448.22-.1247.3-.0798.08-.1881.124-.301.124-2.5806.135-5.1679.076-7.7395-.178l.1107.136c2.3074.484 6.6156 1.171 8.9059 1.409.1129 0 .2212.044.3011.124.0798.08.1246.188.1246.3 0 .113-.0448.221-.1246.3-.0799.08-.1882.124-.3011.124-2.8928.155-5.7932.09-8.676-.195.0033.034.0033.068 0 .102 1.9242.391 5.049.849 7.1009 1.019.1129 0 .2212.044.301.124.0799.079.1247.187.1247.3s-.0448.22-.1247.3c-.0798.08-.1881.124-.301.124-2.7519.139-5.5104.062-8.2503-.229l-.1022.094c1.2594.436 2.5759.688 3.908.746.5279 0 .4854.943 0 .951-2.5905.034-5.1807-.088-7.7565-.365l-2.5542-.263-25.1512-3.217c-1.1596-.147-2.2396-.666-3.0768-1.479s-1.386-1.876-1.5635-3.028l1.9838-8.487" fill="#fff"/><path d="m77.6589 120.292c-3.3291 0-6.7433-.381-6.8114-.381l-2.5543-.264-25.1597-3.216c-1.2495-.165-2.4123-.728-3.3158-1.604-.9034-.876-1.4993-2.019-1.6991-3.26-.0084-.053-.0084-.107 0-.161l1.9839-8.487c.0262-.109.0947-.203.1904-.262.0958-.059.2109-.078.3204-.052.0547.012.1065.034.1522.067.0457.032.0844.073.1138.121.0294.047.0488.1.0573.155.0084.055.0056.112-.0082.166l-1.9583 8.369c.1827 1.042.694 1.999 1.4595 2.731.7656.733 1.7456 1.203 2.7976 1.342l25.2108 3.268 2.5543.263c2.5451.267 5.1037.386 7.6628.357.013-.039.013-.081 0-.119-1.3701-.055-2.7244-.313-4.0187-.764-.0641-.03-.12-.074-.1628-.13-.0429-.056-.0714-.121-.0832-.191-.0117-.069-.0063-.14.0158-.207s.0602-.128.111-.176c.1191-.113.2713-.184.4342-.204 2.7007.28 5.4191.354 8.1311.221-2.103-.179-5.2448-.629-7.152-1.019-.0606-.013-.1178-.038-.1678-.075-.0499-.036-.0914-.083-.1217-.137-.025-.058-.038-.12-.038-.183 0-.062.013-.125.038-.182.0407-.097.1061-.182.1897-.246.0837-.064.1826-.105.2871-.119 2.8573.283 5.7319.351 8.5995.204-2.3925-.238-6.7008-.942-8.94-1.409-.0963-.019-.1834-.07-.2469-.145l-.1107-.135c-.0458-.07-.0702-.151-.0702-.234s.0244-.164.0702-.233c.0349-.066.0861-.121.1487-.161s.1346-.064.2089-.068c2.5463.248 5.1076.308 7.6628.178-2.6966-.278-5.3766-.697-8.0289-1.256-.7493-.161-1.1835-.442-1.3453-.849-.0508-.14-.0672-.29-.048-.438.0193-.147.0737-.288.1587-.411.2043-.297.7067-.492 1.5837-.848.3831-.136.7833-.272 1.1238-.433 0-.119 0-.128 0-.136-1.6405-.122-3.2898-.048-4.9127.221l-.8514.101c-.4105.011-.8211-.017-1.2261-.084l-22.3159-4.117c-.1129-.02-.2131-.084-.2786-.178-.0654-.094-.0908-.21-.0705-.323.0203-.112.0847-.212.1789-.277.0942-.066.2106-.091.3235-.071l22.3074 4.108c.3375.056.6795.082 1.0217.077l.8514-.094c1.7043-.284 3.4376-.355 5.1596-.212.1972.031.379.125.5186.267.1395.142.2294.325.2562.522.028.195-.0084.393-.1037.564-.0953.172-.2442.308-.4241.387-.3662.17-.7834.323-1.192.467-.4139.117-.8115.285-1.1835.501 0 .051.0851.229.7237.373 1.7624.374 5.5939 1.036 7.9268 1.248.2258 0 .4424.089.602.248.1597.159.2494.375.2494.6 0 .226-.0897.441-.2494.601-.1596.159-.3762.248-.602.248-.6556.051-1.3453.077-2.0349.085 1.2345.187 2.418.34 3.3205.433.2092.023.4025.123.5424.279.14.157.2167.36.2154.57.0007.214-.0796.42-.2248.577s-.3447.254-.5585.271c-.4938.043-1.0132.068-1.5496.085.1999.035.3809.139.5105.295.1296.155.1991.352.1962.554.0008.213-.0783.418-.2217.575-.1435.157-.3408.255-.5531.274-1.2781.086-2.5596.109-3.84.068.1435.173.2164.395.2044.619.0058.115-.012.23-.0522.338s-.102.207-.1816.29c-.0797.083-.1755.15-.2817.195-.1061.045-.2205.069-.3359.068-.4172 0-.7408 0-1.0899 0z" fill="#000"/><path d="m37.1818 208.536-1.175 18.927v6.502c.0022.105.0451.205.1197.279.0745.075.1751.117.2805.12h21.8732c.0551.001.1099-.009.1608-.03.0509-.022.0968-.053.1346-.093.0377-.04.0666-.088.0847-.14.018-.052.0249-.107.02-.162-.1021-.967-1.1664-3.268-8.8122-3.692l-.1873-.059c-.8417-.274-1.5866-.784-2.1456-1.469-.7289-.891-1.1099-2.016-1.0728-3.165l1.9242-19.878c-3.3183 2.155-7.2561 3.16-11.2048 2.86z" fill="#fff"/><path d="m58.2803 234.805h-21.8732c-.2258 0-.4424-.09-.6021-.249-.1596-.159-.2493-.375-.2493-.6v-6.493l1.1749-18.969c.0029-.059.0181-.116.0445-.169.0263-.053.0634-.099.1088-.137.0913-.072.2076-.106.3235-.093 3.8431.281 7.6739-.69 10.9153-2.767.0673-.043.1457-.066.2257-.066s.1583.023.2256.066c.0717.04.1301.099.168.172.0378.072.0534.154.0448.235l-1.9242 19.878c-.0347 1.038.3137 2.053.9792 2.852.5072.62 1.1802 1.085 1.9412 1.341l.1362.042c7.6629.425 9.0167 2.725 9.1614 4.066 0 .225-.0897.441-.2494.6-.1596.159-.3762.248-.602.248zm-20.6982-25.81-1.1495 18.511v6.476h21.8477c-.0937-.628-.9111-2.852-8.4377-3.268h-.0936l-.2044-.059c-.917-.303-1.727-.863-2.3329-1.613-.7945-.967-1.2117-2.188-1.175-3.438l1.8391-19.045c-3.1211 1.791-6.698 2.637-10.2937 2.436z" fill="#000"/><path d="m36.0068 230.264v3.718c.0022.105.0451.205.1197.279.0745.075.1751.117.2805.119h21.8732c.0551.002.1099-.008.1608-.03.0509-.021.0968-.052.1346-.092.0377-.04.0666-.088.0847-.14.018-.052.0249-.107.02-.162-.1021-.967-1.1664-3.268-8.8122-3.692l-.1873-.059c-.8417-.274-1.5866-.784-2.1456-1.469 0 0-3.6612 4.185-11.5284 1.528z" fill="#000"/><path d="m47.3906 213.646s-5.5938.305-9.289-3.149l10.2171-3.887z" fill="#000"/><path d="m16.1769 208.536-1.1749 18.927v6.502c0 .052.0103.104.0304.152.0201.049.0496.093.0868.13.0371.037.0812.066.1298.086.0485.02.1006.031.1531.031h21.8732c.0551.001.11-.009.1609-.03.0509-.022.0967-.053.1345-.093s.0666-.088.0847-.14c.018-.052.0249-.107.0201-.162-.1022-.967-1.1665-3.268-8.8123-3.692l-.1873-.059c-.8417-.274-1.5865-.784-2.1456-1.469-.7289-.891-1.1098-2.016-1.0728-3.165l1.9242-19.878c-3.3183 2.155-7.2561 3.16-11.2048 2.86z" fill="#fff"/><path d="m37.2754 234.805h-21.8732c-.2258 0-.4424-.09-.602-.249-.1597-.159-.2494-.375-.2494-.6v-6.493l1.175-18.969c.0029-.059.018-.116.0444-.169s.0634-.099.1088-.137c.0913-.072.2076-.106.3236-.093 3.843.281 7.6738-.69 10.9153-2.767.0673-.043.1456-.066.2256-.066s.1583.023.2256.066c.0703.041.1275.101.1651.173.0377.072.0542.153.0478.234l-1.8987 19.878c-.0347 1.038.3137 2.053.9791 2.852.5073.62 1.1803 1.085 1.9413 1.341l.1362.042c7.6629.425 9.0166 2.725 9.1614 4.066.0086.111-.0051.223-.0401.33-.0351.106-.0909.205-.1643.289-.0794.086-.1755.154-.2824.2-.107.047-.2224.071-.3391.072zm-20.6982-25.81-1.1494 18.511v6.476h21.8476c-.0937-.628-.9196-2.852-8.4377-3.268h-.0936l-.2044-.059c-.9194-.303-1.7322-.863-2.3414-1.613-.7921-.968-1.2064-2.189-1.1664-3.438l1.839-19.045c-3.1195 1.795-6.6976 2.642-10.2937 2.436z" fill="#000"/><path d="m15.002 230.264v3.718c0 .052.0103.104.0304.152.0201.049.0496.093.0868.13.0371.037.0812.066.1298.086.0485.02.1006.03.1531.03h21.8732c.0551.002.11-.008.1609-.03.0509-.021.0967-.052.1345-.092s.0666-.088.0847-.14c.018-.052.0249-.107.0201-.162-.1022-.967-1.1665-3.268-8.8123-3.692l-.1873-.059c-.8417-.274-1.5865-.784-2.1456-1.469 0 0-3.6612 4.185-11.5283 1.528z" fill="#000"/><path d="m26.3945 213.646s-5.5938.305-9.289-3.149l10.2171-3.887z" fill="#000"/><path d="m36.8926 159.81 1.6007-23.162s-.3747-5.254 2.3073-6.918l-.5023 27.16-1.0813 12.197" fill="#000"/><path d="m52.9335 106.381c-.0766 19.734.0511 76.336-3.7207 104.116h-15.7685l1.9498-72.432 4.2571-27.16" fill="#fff"/><path d="m49.2128 210.921h-15.7685c-.116-.003-.2261-.052-.3065-.136-.0784-.082-.1212-.192-.1192-.305l1.9498-72.423 4.2571-27.262c.0181-.113.0803-.213.1729-.28s.2081-.095.321-.077.214.08.281.173c.0671.092.0946.207.0766.32l-4.2572 27.202-1.9327 71.939h14.9511c3.4567-25.929 3.593-77.116 3.6526-99.039v-4.652c0-.112.0448-.22.1247-.3.0798-.079.1881-.124.301-.124.1137.002.2219.049.3015.13s.1242.19.1242.303v4.651c-.0596 22.067-.1958 73.645-3.7122 99.507-.0124.102-.0615.196-.1382.265-.0768.068-.1759.107-.279.108z" fill="#000"/><path d="m40.0681 136.648s-.4683 20.056-1.8391 30.554c-.9972 7.187-2.39 14.313-4.172 21.346l-.7748-23.238z" fill="#000"/><path d="m44.9641 123.916s-1.7795 2.351-3.4057 2.657c-.6896 4.626-1.4048 7.189-1.473 10.117.5705 10.032-6.9731 46.061-10.745 73.841h-15.7769l6.1047-75.182.0766-24.452s3.857-2.275 22.4948-5.093" fill="#fff"/><path d="m29.3227 210.921h-15.7599c-.0593-.001-.1177-.014-.1718-.038-.054-.025-.1024-.06-.1423-.103-.0399-.044-.0704-.096-.0896-.151-.0192-.056-.0267-.116-.022-.175l6.1047-75.173.0766-24.418c-.0004-.073.0182-.145.054-.209s.0876-.118.1504-.156c.1618-.093 4.1464-2.351 22.648-5.143.0555-.01.1123-.008.1672.004.0548.013.1064.037.1518.07.0453.034.0835.076.112.124.0286.049.0471.102.0543.158.0148.111-.0142.224-.0809.314s-.1659.151-.2767.17c-16.0154 2.419-21.1069 4.456-22.1371 4.931l-.0767 24.189-6.0706 74.757h14.934c1.473-10.736 3.4568-22.483 5.381-33.856 3.0396-17.951 5.6876-33.466 5.3129-39.568.0923-1.998.3457-3.985.7578-5.941.2214-1.231.4683-2.632.7152-4.295.0147-.087.0562-.167.1188-.23.0625-.062.143-.103.2303-.118 1.209-.221 2.6905-1.876 3.1588-2.495.0691-.089.1697-.147.2808-.163.1111-.015.2241.012.3152.078.0903.067.15.168.166.279.016.112-.0131.225-.0809.315-.0766.102-1.7028 2.232-3.4057 2.741-.2299 1.553-.4683 2.869-.6811 4.04-.3971 1.893-.6448 3.815-.7408 5.746.3491 6.137-2.2818 21.686-5.3299 39.696-1.9413 11.492-3.9506 23.374-5.4151 34.187.0002.111-.042.217-.118.298-.076.08-.18.129-.2907.135z" fill="#000"/><path d="m47.3477 69.0369s8.0545 3.4459 8.395 20.93c0 0 .1192 9.752-.911 13.7241 0 0-1.7028 1.163-7.484 0z" fill="#fff"/><path d="m51.8857 104.616c-1.5545-.026-3.1029-.202-4.6232-.526-.0962-.02-.1826-.072-.2447-.148-.062-.075-.0959-.17-.0959-.268v-34.6372c-.0008-.0702.0159-.1396.0486-.2018s.0803-.1154.1387-.1547c.0629-.0334.1331-.0509.2044-.0509.0712 0 .1414.0175.2043.0509.3321.1443 8.3099 3.76 8.6505 21.295 0 .4074.1022 9.8539-.9281 13.8347-.0249.1-.0854.187-.1702.246-.1192.051-.9536.56-3.1844.56zm-4.1124-1.29c4.3849.849 6.2155.263 6.6837.059.9622-3.9887.8515-13.3333.8515-13.4267-.1703-8.8609-2.384-13.9788-4.2061-16.7117-.8758-1.3646-2.0094-2.5465-3.3376-3.4799z" fill="#000"/><path d="m34.1418 65.3533s3.4057 0 10.2172 2.5462c0 0 2.5542 12.4086-5.1086 13.2574 0 0-7.6628-.8488-11.92-7.6387 0 0-4.4359-6.79-3.4994-7.2143z" fill="#fff"/><path d="m21.1328 66.8895 10.745-2.2237c1.8824-.5853 3.8989-.5853 5.7812 0l6.3176 3.1319" fill="#fff"/><path d="m43.9766 68.2219c-.0646.0128-.1311.0128-.1958 0l-6.3176-3.1743c-1.7794-.5556-3.6867-.5556-5.4661 0l-10.7706 2.2576c-.1115.0205-.2266-.0024-.3216-.064-.0951-.0615-.1628-.1571-.1893-.267-.0111-.0546-.0114-.1109-.0008-.1656s.032-.1068.0628-.1533.0706-.0865.1169-.1177c.0464-.0312.0984-.053.1532-.0641l10.745-2.2238c1.9405-.6041 4.0196-.6041 5.96 0l6.3772 3.1489c.0505.0243.0955.0585.1324.1005.0369.0421.0649.0911.0824.1442.0175.053.0241.1091.0193.1647-.0047.0557-.0206.1098-.0468.1592-.0278.0696-.0743.1301-.1344.175-.0601.045-.1314.0725-.2062.0797z" fill="#000"/><path d="m47.3482 69.0368-2.7416-1.0184c2.384 10.0915-3.2183 12.4935-3.2183 12.4935-10.3193 3.5647-18.0929-14.0722-18.0929-14.0722-4.7084.4923-6.3772 2.8263-6.3772 2.8263-7.74797 9.4974.6556 30.2407 1.4475 32.023.7918 1.782 1.1579 9.336 1.1579 9.336l4.9383 2.385c3.3869 1.639 7.1884 2.231 10.9153 1.698 8.8463-.73 16.1771-6.79 16.1771-6.79-.4257-1.698-.9536-3.395-1.4815-5.016 2.4975-5.6161 3.3591-11.8193 2.4862-17.9003" fill="#fff"/><path d="m32.6861 115.327c-2.9145.004-5.7914-.655-8.4121-1.927l-5.1682-2.495v-.246c-.1021-2.088-.4938-7.8-1.1238-9.2-.0937-.221-9.61266-22.3647-1.3879-32.4648.0511-.0764 1.8221-2.4698 6.6667-2.9791h.3065l.1277.2801c.0767.1698 7.731 17.238 17.565 13.843.1873-.0849 5.2022-2.4104 2.9374-12.0012l-.1788-.7639 3.4823 1.2901c.0526.0195.1008.0492.1418.0872.0411.0381.0742.0838.0976.1347.0233.0508.0363.1057.0384.1616.002.0559-.007.1116-.0266.164-.0195.0523-.0493.1004-.0875.1413-.0381.0409-.084.074-.135.0972-.051.0233-.1061.0363-.1622.0383-.056.002-.1119-.007-.1645-.0265l-2.0008-.7469c1.9838 9.6757-3.4057 12.1116-3.6356 12.2135-4.4359 1.5277-9.0592-.4838-13.4185-5.8224-2.0086-2.5254-3.7224-5.2703-5.1086-8.1819-4.206.5262-5.7641 2.5971-5.7812 2.6141-7.91823 9.7181 1.4049 31.4036 1.4986 31.6076.7407 1.697 1.1068 7.884 1.1749 9.242l4.7595 2.25c3.3074 1.611 7.022 2.202 10.6684 1.697l.9451-.136v.043c7.4159-.917 13.6228-5.475 14.8404-6.408-.3662-1.401-.8515-2.988-1.4049-4.711l-.0596-.161.0766-.153c2.4718-5.542 3.3219-11.6677 2.4521-17.6707-.0083-.0553-.0054-.1117.0086-.1659s.0389-.105.0731-.1494c.0342-.0443.077-.0814.1259-.1089.0488-.0275.1028-.0448.1586-.0511.1117-.0144.2246.0159.314.0843s.1479.1693.1628.2807c.8768 6.1056.0276 12.334-2.4522 17.985.5875 1.799 1.0643 3.395 1.439 4.88l.0596.263-.2044.17c-.3065.246-7.5266 6.119-16.407 6.858h-.1107c-.8923.111-1.7914.159-2.6905.144z" fill="#000"/><path d="m52.9335 115.887c-4.85 1.234-9.8857 1.57-14.8574.994-6.1647-.727-12.2866-1.778-18.3398-3.149" fill="#fff"/><path d="m42.7331 117.543c-1.57.001-3.1388-.081-4.6999-.247-6.1852-.744-12.3268-1.812-18.3994-3.199-.0559-.013-.1087-.037-.1554-.07-.0468-.033-.0865-.075-.1169-.124-.0615-.098-.0814-.216-.0555-.328.026-.113.0958-.211.194-.272s.2168-.081.3297-.055c6.0383 1.383 12.1459 2.445 18.2971 3.183 4.9047.57 9.8724.248 14.6616-.951.1027-.019.2087.001.2978.055.0892.054.1552.139.1857.239.0305.099.0232.206-.0204.301-.0436.094-.1205.17-.2162.211-3.3626.874-6.8274 1.297-10.3022 1.257z" fill="#000"/><path d="m24.8018 98.6748-.9366-15.3028.2555-.017.928 15.3028z" fill="#000"/><path d="m27.1617 109.423-1.6392 1.582.1776.183 1.6392-1.583z" fill="#000"/><path d="m40.7242 66.3718-.9707-7.9273c-2.3518.7569-4.9051.5868-7.1349-.4753l-1.1069 8.4875" fill="#fff"/><path d="m31.5025 66.9149h-.0596c-.1117-.0148-.213-.0731-.2816-.1622s-.099-.2017-.0845-.3131l1.192-9.1325.5449.2801c2.1307 1.0044 4.5629 1.1711 6.8114.4668l.5024-.1867 1.0387 8.4874c.0135.1126-.0183.2259-.0886.315-.0702.0892-.1731.1468-.286.1603s-.2266-.0182-.316-.0883c-.0894-.07-.1473-.1726-.1608-.2851l-.9111-7.418c-2.1294.5656-4.3856.4256-6.4282-.3989l-1.0473 7.9018c-.0125.1035-.0629.1987-.1414.2676s-.1797.1066-.2843.1058z" fill="#000"/><path d="m40.1018 62.3657s-3.4058.628-4.9724-1.027c-.9145-.9777-1.6468-2.1101-2.1626-3.3441h6.8114z" fill="#000"/><path d="m38.6885 59.8108c5.2807 0 9.5615-4.2673 9.5615-9.5314 0-5.264-4.2808-9.5314-9.5615-9.5314s-9.5615 4.2674-9.5615 9.5314c0 5.2641 4.2808 9.5314 9.5615 9.5314z" fill="#fff"/><path d="m38.6884 60.2606c-1.9742 0-3.9041-.5832-5.546-1.6761-1.6418-1.0928-2.9219-2.6462-3.6786-4.4639-.7566-1.8177-.9559-3.8181-.5726-5.7486.3833-1.9306 1.332-3.7046 2.7262-5.0979 1.3941-1.3934 3.1713-2.3435 5.107-2.7306 1.9356-.387 3.9429-.1935 5.7683.5562 1.8253.7496 3.3869 2.0217 4.4874 3.6556 1.1004 1.6338 1.6905 3.5562 1.6955 5.5241.0023 1.3093-.2543 2.6061-.7551 3.8164s-1.236 2.3104-2.1635 3.2374c-.9275.9269-2.0292 1.6626-3.2421 2.1649-1.2128.5023-2.5131.7614-3.8265.7625zm0-19.0627c-1.808 0-3.5753.5347-5.0782 1.5366-1.503 1.0018-2.6739 2.4256-3.3646 4.0912s-.8702 3.498-.5156 5.2653c.3546 1.7672 1.2273 3.3899 2.5075 4.6625s2.9104 2.138 4.6843 2.4865c1.7738.3485 3.6115.1645 5.2804-.5287s3.094-1.8644 4.0948-3.3654 1.5323-3.2642 1.5272-5.0665c-.0023-2.4146-.9655-4.7297-2.6783-6.4371s-4.0352-2.6676-6.4575-2.6699z" fill="#000"/><path d="m48.2504 52.0535s-10.3874-1.6975-13.0013-5.4235c0 0-1.8391 5.6187-5.8493 5.9412 0 0-2.1201-10.6687 9.2891-11.7975 0-.034 9.2975-.034 9.5615 11.2798z" fill="#000"/><path d="m29.2466 43.8036c3.0989 0 5.611-2.5041 5.611-5.5932 0-3.089-2.5121-5.5932-5.611-5.5932-3.0988 0-5.6109 2.5042-5.6109 5.5932 0 3.0891 2.5121 5.5932 5.6109 5.5932z" fill="#000"/><path d="m53.7333 104.031s-.5109 4.243-.8515 9.234z" fill="#fff"/><path d="m52.8905 113.732c-.1114-.011-.2145-.063-.2888-.147-.0742-.083-.114-.192-.1113-.303.3235-4.965.8514-9.218.8514-9.26.0148-.111.0733-.212.1627-.281.0894-.068.2023-.098.3141-.084.0549.006.1081.024.1563.05.0483.027.0907.064.1248.107.034.044.0591.093.0737.146.0146.054.0184.109.0113.164 0 .042-.5109 4.244-.8514 9.209-.0022.055-.0154.11-.039.16-.0235.05-.0569.095-.0982.132-.0412.037-.0895.066-.142.084s-.1081.026-.1636.023z" fill="#000"/><path d="m25.4488 110.905-1.4559-6.713-10.3279 2.308 2.4522 6.765" fill="#fff"/><path d="m16.1176 113.732c-.0875 0-.1728-.027-.2444-.077-.0717-.051-.126-.121-.1558-.203l-2.4606-6.79c-.0232-.056-.0351-.115-.0351-.174 0-.06.0119-.119.0351-.174.0285-.054.0684-.101.1169-.138.0485-.036.1045-.062.1641-.075l10.3278-2.308c.1105-.023.2256-.002.321.058s.1635.155.1898.264l1.456 6.714c.0125.055.0141.111.0046.166-.0095.056-.0298.108-.0599.156-.0301.047-.0693.088-.1153.12-.0461.032-.098.055-.153.067-.1116.023-.2278.001-.3234-.061s-.1629-.159-.1874-.27l-1.3623-6.289-9.4423 2.105 2.2903 6.314c.0384.106.033.223-.0149.325s-.1344.18-.2405.219z" fill="#000"/><path d="m20.8086 119.376s2.2222.781 1.473 1.46c-.7493.679-.9621-.51-.9621-.51" fill="#fff"/><path d="m21.8563 121.464c-.0842 0-.1678-.014-.247-.043-.5364-.178-.6811-.849-.7066-1.018-.0166-.088-.0049-.179.0333-.26.0383-.08.1011-.147.1795-.19-.1468-.068-.2975-.128-.4512-.178-.113-.038-.2064-.118-.2599-.224s-.0626-.228-.0254-.341c.0373-.112.1179-.206.2241-.259.1061-.053.2292-.062.3421-.025.5279.187 1.754.687 1.8987 1.417.0281.141.0168.287-.0328.422-.0496.134-.1354.253-.2482.342-.1818.204-.4343.331-.7066.357zm-.1533-1.189c.0254.115.0715.224.1362.323 0 0 .0511-.043.1107-.102-.0537-.081-.1232-.15-.2043-.204z" fill="#000"/><path d="m23.1839 111.117 20.7237-9.191c.3408-.159.6658-.349.9707-.569.7748-.637 3.0396-2.8265 4.6828-3.5903.0959-.0504.2055-.0685.3125-.0517.107.0169.2057.0677.2814.145.0756.0774.1242.177.1384.2841.0141.107-.0068.2158-.0597.3101-.5108.8487-1.4729 1.9268-1.4644 2.3338 0 0 0 .849 1.3963.306 1.6007-.662 5.1852-2.2834 7.2882-3.4631.0915-.0563.2013-.0753.3064-.0529.1052.0224.1976.0844.258.1731s.0841.1972.0662.3029-.076.2004-.1623.2644c-2.0472 1.5783-4.2134 2.9966-6.4793 4.2436l.1702.051c2.1797-.908 6.1133-2.7584 8.1397-3.8618.0926-.0608.2056-.0824.3142-.0601.1085.0223.2038.0867.2648.1789.0609.0923.0826.205.0603.3132-.0224.1083-.0869.2032-.1795.264-2.296 1.7588-4.724 3.3388-7.2627 4.7278v.11c1.805-.755 4.6318-2.156 6.4283-3.166.0915-.056.2012-.075.3064-.053.1051.023.1975.085.2579.173.0604.089.0841.198.0662.303-.0179.106-.076.201-.1622.265-2.1778 1.659-4.4806 3.149-6.8881 4.456v.127c1.2853-.347 2.5129-.879 3.6441-1.579.4598-.271.9366.501.5024.849-2.1166 1.487-4.32 2.848-6.5986 4.074l-2.2563 1.222-22.5628 11.543c-1.0396.532-2.2246.713-3.3764.516s-2.2079-.763-3.0093-1.611l-3.1588-8.088" fill="#fff"/><path d="m23.2188 123.458c-.7964.003-1.585-.156-2.3172-.469-.7322-.312-1.3924-.771-1.94-1.347-.0361-.04-.065-.086-.0851-.136l-3.1673-8.089c-.0252-.052-.0391-.11-.041-.168s.0083-.116.03-.171c.0216-.054.0543-.103.0959-.144s.0913-.073.1459-.094.113-.031.1715-.029c.0585.003.1159.017.1686.043.0526.025.0994.061.1374.106.038.044.0665.096.0835.152l3.1332 8.004c.7432.755 1.7085 1.254 2.7558 1.425s2.1221.005 3.068-.475l22.5628-11.534 2.2478-1.222c2.2655-1.213 4.4549-2.563 6.556-4.04-.014-.042-.0408-.077-.0766-.102-1.1586.729-2.4218 1.279-3.7463 1.629-.0687.016-.1403.013-.2076-.008s-.1278-.059-.1756-.111c-.0503-.05-.0869-.112-.1063-.18-.0194-.069-.0209-.141-.0043-.21.0326-.158.1164-.301.2384-.407 2.3794-1.297 4.6564-2.773 6.8114-4.414-2.1013 1.175-4.261 2.243-6.4709 3.2-.0557.027-.1168.041-.1788.041-.0619 0-.1231-.014-.1788-.041-.056-.029-.1049-.07-.1432-.12-.0383-.049-.065-.107-.0781-.169-.025-.102-.0215-.209.01-.309s.0899-.19.1688-.259c2.5187-1.382 4.9294-2.951 7.2116-4.6939-2.1116 1.1539-6.0622 3.0049-8.1737 3.8869-.0913.03-.1898.03-.281 0l-.1703-.042c-.0802-.026-.1515-.074-.2057-.139-.0541-.064-.0891-.143-.1008-.226-.0084-.083.0081-.167.0475-.241s.0999-.135.1738-.175c2.2435-1.23 4.3897-2.6288 6.4198-4.1842-2.3822 1.2893-4.829 2.4562-7.3308 3.4972-.2393.142-.5109.221-.7895.23-.2785.009-.5547-.053-.8026-.179-.1222-.085-.2218-.198-.29-.33-.0683-.131-.1032-.278-.1017-.426 0-.356.298-.8486.8514-1.553.2384-.331.4853-.679.6727-.9931 0-.1188-.0852-.1018-.1022-.0933-1.4205.8236-2.7381 1.8122-3.9251 2.9454l-.6641.585c-.3351.239-.6913.446-1.0643.62l-20.6982 9.209c-.1028.046-.2196.049-.3249.009-.1054-.039-.1906-.119-.237-.221-.024-.051-.0376-.106-.0398-.162s.0069-.111.0267-.164c.0199-.052.0501-.1.089-.14.0388-.04.0853-.073.1369-.095l20.7238-9.2c.2975-.149.5823-.322.8514-.518l.63-.551c1.256-1.1935 2.6543-2.2283 4.1635-3.0813.1806-.0851.3838-.1104.5799-.0723.1961.0382.3747.1379.5099.2845.1329.1456.2146.3303.2331.5262.0184.1959-.0275.3925-.1309.5602-.2043.3395-.4683.7044-.7152 1.0524-.2707.3313-.5021.6933-.6896 1.0783 0 .051.1958.152.8514-.102 1.7029-.679 5.2022-2.2918 7.2371-3.3952.1854-.1024.4025-.1322.6088-.0835.2063.0486.3869.1722.5066.3466.1175.1756.1652.3885.1337.5972s-.1399.3983-.304.5317c-.5108.4073-1.0643.8487-1.6262 1.2137 1.1239-.5432 2.1882-1.078 2.9885-1.5108.1855-.0992.4013-.1263.6058-.0761.2044.0502.3829.174.5011.3477.1175.1756.1651.3885.1336.5972s-.1398.3982-.3039.5316c-.3832.3139-.8004.6279-1.2346.9419.1828-.058.3798-.052.5592.015.1794.068.3306.194.4292.358.0985.164.1386.356.1137.546-.0248.19-.1132.365-.2507.499-1.0049.795-2.0508 1.537-3.1332 2.223.1102.028.2138.078.3044.147.0907.068.1667.154.2235.252.0693.09.1197.194.1483.304s.0347.224.018.337c-.0166.112-.0558.22-.1151.317s-.1375.181-.23.247c-2.1342 1.5-4.3577 2.869-6.6582 4.1l-2.2478 1.222-22.5713 11.543c-.8192.406-1.7245.61-2.6394.594z" fill="#000"/><path d="m24.5805 106.942s-6.1814 1.417-9.2465-.399l8.659-2.309z" fill="#000"/><path d="m18.6719 67.7722s-17.1563 8.0206-8.327 38.3208c0 0 9.3657 2.054 15.2661-2.988 0 0-2.4436-14.0802-1.6177-19.7329" fill="#fff"/><path d="m14.8659 106.942c-1.5487.006-3.0943-.139-4.6147-.433-.0748-.016-.1437-.052-.1993-.105-.05552-.052-.09556-.119-.11572-.192-4.60622-15.7868-2.06045-25.4625.85142-30.8351 3.2184-5.8478 7.4926-7.8933 7.6629-7.9781.1002-.0393.2115-.0392.3117.0001.1001.0394.1816.1151.228.2119s.0543.2076.0221.31-.1022.1888-.1957.2418c-.1703.0849-16.62841 8.2159-8.1822 37.5654 1.4814.263 9.2975 1.426 14.4742-2.792-.332-1.944-2.3499-14.3102-1.5751-19.6233.0158-.1126.0758-.2142.1668-.2827.0451-.0339.0964-.0586.151-.0727.0547-.0141.1116-.0174.1675-.0096s.1097.0265.1584.0551c.0486.0285.0912.0663.1252.1112.034.045.0587.0961.0729.1506s.0174.1112.0096.1669c-.8089 5.5253 1.5837 19.4615 1.6092 19.6055.0133.073.0069.147-.0186.216-.0254.068-.069.129-.1261.175-3.3376 2.86-7.7225 3.514-10.9835 3.514z" fill="#000"/><path d="m220.997 234.958h-220.571286c-.112907 0-.221188-.045-.301025-.125-.0798371-.079-.124689-.187-.124689-.3 0-.112.0448519-.22.124689-.3.079837-.079.188118-.124.301025-.124h220.571286c.112 0 .221.045.301.124.079.08.124.188.124.3 0 .113-.045.221-.124.3-.08.08-.189.125-.301.125z" fill="#000"/><path d="m158.28 131.267c7.256 0 13.138-5.864 13.138-13.096 0-7.233-5.882-13.097-13.138-13.097s-13.137 5.864-13.137 13.097c0 7.232 5.881 13.096 13.137 13.096z" fill="#fff"/><path d="m158.281 131.691c-2.683.002-5.306-.79-7.538-2.275-2.231-1.484-3.971-3.595-4.999-6.066-1.028-2.47-1.298-5.189-.775-7.812.522-2.623 1.813-5.033 3.71-6.925 1.896-1.892 4.313-3.18 6.944-3.703 2.631-.522 5.359-.255 7.838.768s4.597 2.756 6.088 4.98 2.286 4.838 2.286 7.512c-.004 3.583-1.433 7.018-3.974 9.553-2.541 2.534-5.986 3.961-9.58 3.968zm0-26.192c-2.515-.002-4.973.74-7.065 2.131-2.091 1.391-3.722 3.37-4.686 5.685-.963 2.316-1.216 4.864-.726 7.322.489 2.459 1.699 4.718 3.477 6.491 1.777 1.773 4.042 2.98 6.508 3.47s5.023.239 7.346-.72c2.323-.958 4.309-2.583 5.706-4.667s2.143-4.534 2.143-7.041c-.002-3.358-1.341-6.579-3.723-8.954-2.381-2.376-5.611-3.713-8.98-3.717z" fill="#000"/><path d="m155.436 131.267c7.256 0 13.138-5.864 13.138-13.096 0-7.233-5.882-13.097-13.138-13.097-7.255 0-13.137 5.864-13.137 13.097 0 7.232 5.882 13.096 13.137 13.096z" fill="#fff"/><path d="m155.428 131.691c-2.682 0-5.304-.793-7.535-2.279-2.23-1.485-3.969-3.597-4.995-6.068-1.027-2.47-1.295-5.189-.772-7.811.523-2.623 1.815-5.032 3.712-6.923s4.313-3.179 6.944-3.7c2.631-.522 5.359-.254 7.837.769s4.597 2.756 6.087 4.98c1.49 2.223 2.286 4.837 2.286 7.511-.003 3.586-1.432 7.023-3.975 9.558s-5.992 3.961-9.589 3.963zm0-26.192c-2.514 0-4.971.743-7.062 2.135-2.09 1.393-3.72 3.372-4.682 5.687-.962 2.316-1.214 4.863-.723 7.322.49 2.458 1.701 4.715 3.479 6.488 1.778 1.772 4.043 2.979 6.509 3.468 2.465.489 5.021.238 7.344-.721 2.323-.96 4.308-2.584 5.705-4.668 1.397-2.083 2.142-4.533 2.142-7.04-.002-3.36-1.342-6.581-3.725-8.957-2.384-2.376-5.616-3.712-8.987-3.714z" fill="#000"/><path d="m155.437 127.456c5.144 0 9.314-4.157 9.314-9.285 0-5.129-4.17-9.286-9.314-9.286-5.145 0-9.315 4.157-9.315 9.286 0 5.128 4.17 9.285 9.315 9.285z" fill="#f9b121"/><path d="m165.228 109.403-18.57 18.503c-1.452-1.353-2.579-3.016-3.295-4.864l17.029-16.975c1.844.734 3.497 1.875 4.836 3.336z" fill="#fff" opacity=".2"/><path d="m168.583 115.938-15.326 15.278c-1.372-.25-2.695-.72-3.916-1.392l17.88-17.824c.664 1.231 1.124 2.561 1.362 3.938z" fill="#fff" opacity=".2"/><path d="m138.127 171.064h-30.413c-.357 0-.647.289-.647.645v5.22c0 .356.29.645.647.645h30.413c.358 0 .648-.289.648-.645v-5.22c0-.356-.29-.645-.648-.645z" fill="#fff"/><path d="m138.127 177.998h-30.404c-.142.002-.282-.025-.413-.078-.131-.054-.251-.132-.351-.232-.101-.099-.18-.217-.235-.348-.054-.13-.082-.27-.082-.411v-5.22c.002-.284.117-.556.319-.756.203-.201.477-.313.762-.313h30.404c.284.002.556.115.756.316.201.2.315.47.317.753v5.22c0 .284-.113.556-.314.756-.201.201-.474.313-.759.313zm-30.404-6.509c-.06 0-.117.023-.16.064s-.068.097-.07.156v5.22c.002.059.027.115.07.157.043.041.1.064.16.064h30.404c.059 0 .115-.024.157-.065.041-.041.065-.097.065-.156v-5.22c0-.058-.024-.114-.065-.156-.042-.041-.098-.064-.157-.064z" fill="#000"/><path d="m130.337 171.064-4.598 6.595h4.598l4.853-6.595z" fill="#000"/><path d="m107.067 172.125h31.708l-1.065-1.061h-29.578z" fill="#000"/><path d="m138.127 164.469h-30.413c-.357 0-.647.289-.647.646v5.219c0 .357.29.645.647.645h30.413c.358 0 .648-.288.648-.645v-5.219c0-.357-.29-.646-.648-.646z" fill="#fff"/><path d="m138.127 171.446h-30.404c-.287 0-.562-.113-.765-.316-.202-.202-.316-.476-.316-.762v-5.211c0-.286.114-.56.316-.762.203-.202.478-.316.765-.316h30.404c.286.002.559.117.759.319.201.202.314.475.314.759v5.211c0 .285-.113.558-.314.76-.2.201-.473.316-.759.318zm-30.404-6.518c-.061 0-.12.024-.163.067s-.067.101-.067.162v5.211c0 .061.024.119.067.162s.102.067.163.067h30.404c.06-.002.116-.027.157-.07.042-.042.065-.099.065-.159v-5.211c0-.059-.023-.116-.065-.159-.041-.043-.097-.068-.157-.07z" fill="#000"/><path d="m130.337 164.469-4.598 6.595h4.598l4.853-6.595z" fill="#000"/><path d="m107.067 165.53h31.708l-1.065-1.061h-29.578z" fill="#000"/><path d="m138.127 157.654h-30.413c-.357 0-.647.289-.647.645v5.22c0 .356.29.645.647.645h30.413c.358 0 .648-.289.648-.645v-5.22c0-.356-.29-.645-.648-.645z" fill="#fff"/><path d="m138.127 164.588h-30.404c-.287 0-.562-.113-.765-.315-.202-.202-.316-.477-.316-.763v-5.211c0-.141.028-.281.082-.411.055-.13.134-.249.235-.348.1-.099.22-.178.351-.231.131-.054.271-.08.413-.079h30.404c.285 0 .558.112.759.313s.314.473.314.756v5.211c0 .285-.113.558-.314.76-.2.202-.473.316-.759.318zm-30.404-6.509c-.03-.002-.06.003-.087.014-.028.01-.054.026-.075.047-.022.021-.039.045-.05.073-.012.027-.018.056-.018.086v5.211c0 .061.024.12.067.163.043.042.102.067.163.067h30.404c.06-.003.116-.028.157-.07.042-.043.065-.1.065-.16v-5.211c0-.058-.024-.114-.065-.156-.042-.041-.098-.064-.157-.064z" fill="#000"/><path d="m130.337 157.654-4.598 6.586h4.598l4.853-6.586z" fill="#000"/><path d="m107.067 158.715h31.708l-1.065-1.061h-29.578z" fill="#000"/><path d="m138.127 150.83h-30.413c-.357 0-.647.289-.647.645v5.22c0 .356.29.645.647.645h30.413c.358 0 .648-.289.648-.645v-5.22c0-.356-.29-.645-.648-.645z" fill="#fff"/><path d="m138.127 157.764h-30.404c-.285 0-.559-.112-.762-.312-.202-.201-.317-.473-.319-.757v-5.22c.002-.284.117-.556.319-.757.203-.2.477-.312.762-.312h30.404c.284.002.556.115.756.315.201.201.315.471.317.754v5.22c-.002.283-.116.554-.317.754-.2.2-.472.313-.756.315zm-30.404-6.509c-.06-.001-.117.022-.16.064-.043.041-.068.097-.07.156v5.22c.002.059.027.115.07.157.043.041.1.064.16.064h30.404c.059 0 .115-.024.157-.065.041-.041.065-.098.065-.156v-5.22c0-.058-.024-.114-.065-.156-.042-.041-.098-.064-.157-.064z" fill="#000"/><path d="m130.337 150.83-4.598 6.595h4.598l4.853-6.595z" fill="#000"/><path d="m107.067 151.891h31.708l-1.065-1.061h-29.578z" fill="#000"/><path d="m138.127 144.235h-30.413c-.357 0-.647.289-.647.645v5.22c0 .356.29.645.647.645h30.413c.358 0 .648-.289.648-.645v-5.22c0-.356-.29-.645-.648-.645z" fill="#fff"/><path d="m138.127 151.17h-30.404c-.142.001-.282-.026-.413-.079-.131-.054-.251-.132-.351-.232-.101-.099-.18-.217-.235-.348-.054-.13-.082-.27-.082-.411v-5.22c.002-.284.117-.556.319-.756.203-.201.477-.313.762-.313h30.404c.284.002.556.116.756.316.201.2.315.471.317.753v5.22c0 .284-.113.556-.314.756-.201.201-.474.314-.759.314zm-30.404-6.51c-.06 0-.117.023-.16.064s-.068.097-.07.156v5.22c0 .03.006.059.018.087.011.027.028.052.05.072.021.021.047.037.075.048.027.01.057.015.087.014h30.404c.059 0 .115-.023.157-.065.041-.041.065-.097.065-.156v-5.22c0-.058-.024-.114-.065-.156-.042-.041-.098-.064-.157-.064z" fill="#000"/><path d="m130.337 144.235-4.598 6.595h4.598l4.853-6.595z" fill="#000"/><path d="m107.067 145.296h31.708l-1.065-1.061h-29.578z" fill="#000"/><path d="m164.513 171.064h-30.413c-.357 0-.647.289-.647.645v5.22c0 .356.29.645.647.645h30.413c.358 0 .647-.289.647-.645v-5.22c0-.356-.289-.645-.647-.645z" fill="#fff"/><path d="m164.513 177.998h-30.404c-.142.002-.282-.025-.414-.078-.131-.054-.25-.132-.35-.232-.101-.099-.181-.217-.235-.348-.055-.13-.083-.27-.083-.411v-5.22c.003-.284.118-.556.32-.756.203-.201.476-.313.762-.313h30.404c.285 0 .558.113.759.313.201.201.314.473.314.756v5.22c.001.141-.026.28-.079.411-.054.13-.133.248-.233.348-.1.099-.218.178-.349.231-.131.054-.271.081-.412.079zm-30.404-6.509c-.06 0-.117.023-.16.064s-.068.097-.07.156v5.22c.002.059.027.115.07.157.043.041.1.064.16.064h30.404c.059 0 .115-.024.157-.065.041-.041.065-.097.065-.156v-5.22c0-.058-.024-.114-.065-.156-.042-.041-.098-.064-.157-.064z" fill="#000"/><path d="m156.722 171.064-4.589 6.595h4.589l4.853-6.595z" fill="#000"/><path d="m133.453 172.125h31.707l-1.055-1.061h-29.588z" fill="#000"/><path d="m164.513 164.469h-30.413c-.357 0-.647.289-.647.646v5.219c0 .357.29.645.647.645h30.413c.358 0 .647-.288.647-.645v-5.219c0-.357-.289-.646-.647-.646z" fill="#fff"/><path d="m164.513 171.446h-30.404c-.287 0-.562-.113-.765-.316-.203-.202-.317-.476-.317-.762v-5.211c0-.286.114-.56.317-.762s.478-.316.765-.316h30.404c.142 0 .282.028.413.082.13.055.249.134.349.234.099.101.178.219.232.35.053.131.08.271.079.412v5.211c.001.141-.026.281-.079.412-.054.131-.133.25-.232.35-.1.1-.219.18-.349.234-.131.054-.271.082-.413.082zm-30.404-6.518c-.031 0-.06.006-.088.017-.028.012-.054.029-.075.05s-.038.047-.05.074c-.011.028-.017.058-.017.088v5.211c0 .03.006.06.017.088.012.028.029.053.05.074.021.022.047.038.075.05s.057.017.088.017h30.404c.03 0 .059-.006.087-.017.027-.012.052-.029.073-.05.02-.022.037-.047.047-.075.011-.027.016-.057.015-.087v-5.211c.001-.03-.004-.059-.015-.087-.01-.028-.027-.053-.047-.075-.021-.021-.046-.038-.073-.05-.028-.011-.057-.017-.087-.017z" fill="#000"/><path d="m156.722 164.469-4.589 6.595h4.589l4.853-6.595z" fill="#000"/><path d="m133.453 165.53h31.707l-1.055-1.061h-29.588z" fill="#000"/><path d="m164.513 157.654h-30.413c-.357 0-.647.289-.647.645v5.22c0 .356.29.645.647.645h30.413c.358 0 .647-.289.647-.645v-5.22c0-.356-.289-.645-.647-.645z" fill="#fff"/><path d="m164.513 164.588h-30.404c-.287 0-.562-.113-.765-.315s-.317-.477-.317-.763v-5.211c0-.141.028-.281.083-.411.054-.13.134-.249.235-.348.1-.099.219-.178.35-.231.132-.054.272-.08.414-.079h30.404c.141-.001.281.026.412.079s.249.132.349.231c.1.1.179.218.233.349.053.13.08.269.079.41v5.211c.001.142-.026.282-.079.412-.054.131-.133.25-.232.35-.1.1-.219.18-.349.234-.131.054-.271.082-.413.082zm-30.404-6.509c-.03-.002-.06.003-.088.014-.028.01-.053.026-.074.047-.022.021-.039.045-.051.073-.011.027-.017.056-.017.086v5.211c0 .031.006.06.017.088.012.028.029.053.05.075.021.021.047.038.075.049.028.012.057.018.088.018h30.404c.03 0 .059-.006.087-.018.027-.012.052-.029.073-.05.02-.021.037-.047.047-.074.011-.028.016-.058.015-.088v-5.211c.001-.029-.004-.058-.015-.086-.011-.027-.027-.052-.048-.073-.02-.02-.045-.036-.073-.047-.027-.011-.056-.016-.086-.014z" fill="#000"/><path d="m156.722 157.654-4.589 6.586h4.589l4.853-6.586z" fill="#000"/><path d="m133.453 158.715h31.707l-1.055-1.061h-29.588z" fill="#000"/><path d="m164.513 150.83h-30.413c-.357 0-.647.289-.647.645v5.22c0 .356.29.645.647.645h30.413c.358 0 .647-.289.647-.645v-5.22c0-.356-.289-.645-.647-.645z" fill="#fff"/><path d="m164.513 157.764h-30.404c-.286 0-.559-.112-.762-.312-.202-.201-.317-.473-.32-.757v-5.22c.003-.284.118-.556.32-.757.203-.2.476-.312.762-.312h30.404c.285 0 .558.112.759.313s.314.473.314.756v5.22c0 .284-.113.556-.314.756-.201.201-.474.313-.759.313zm-30.404-6.509c-.06-.001-.117.022-.16.064-.043.041-.068.097-.07.156v5.22c.002.059.027.115.07.157.043.041.1.064.16.064h30.404c.059 0 .115-.024.157-.065.041-.041.065-.098.065-.156v-5.22c0-.058-.024-.114-.065-.156-.042-.041-.098-.064-.157-.064z" fill="#000"/><path d="m156.722 150.83-4.589 6.595h4.589l4.853-6.595z" fill="#000"/><path d="m133.453 151.891h31.707l-1.055-1.061h-29.588z" fill="#000"/><path d="m164.513 144.235h-30.413c-.357 0-.647.289-.647.645v5.22c0 .356.29.645.647.645h30.413c.358 0 .647-.289.647-.645v-5.22c0-.356-.289-.645-.647-.645z" fill="#fff"/><path d="m164.513 151.17h-30.404c-.142.001-.282-.026-.414-.079-.131-.054-.25-.132-.35-.232-.101-.099-.181-.217-.235-.348-.055-.13-.083-.27-.083-.411v-5.22c.003-.284.118-.556.32-.756.203-.201.476-.313.762-.313h30.404c.285 0 .558.113.759.313.201.201.314.473.314.756v5.22c.001.141-.026.281-.079.411-.054.13-.133.248-.233.348-.1.099-.218.178-.349.232-.131.053-.271.08-.412.079zm-30.404-6.51c-.06 0-.117.023-.16.064s-.068.097-.07.156v5.22c0 .03.006.059.017.087.012.027.029.052.051.072.021.021.046.037.074.048.028.01.058.015.088.014h30.404c.03.001.059-.004.086-.014.028-.011.053-.027.073-.048.021-.021.037-.046.048-.073s.016-.056.015-.086v-5.22c0-.058-.024-.114-.065-.156-.042-.041-.098-.064-.157-.064z" fill="#000"/><path d="m156.722 144.235-4.589 6.595h4.589l4.853-6.595z" fill="#000"/><path d="m133.453 145.296h31.707l-1.055-1.061h-29.588z" fill="#000"/><path d="m138.127 137.641h-30.413c-.357 0-.647.288-.647.645v5.219c0 .357.29.645.647.645h30.413c.358 0 .648-.288.648-.645v-5.219c0-.357-.29-.645-.648-.645z" fill="#fff"/><path d="m138.127 144.583h-30.404c-.287 0-.562-.113-.765-.315-.202-.202-.316-.477-.316-.762v-5.212c0-.286.114-.56.316-.762.203-.202.478-.316.765-.316h30.404c.286.003.559.117.759.319.201.202.314.475.314.759v5.212c0 .284-.113.557-.314.759-.2.202-.473.316-.759.318zm-30.404-6.518c-.061 0-.12.024-.163.067s-.067.101-.067.162v5.212c0 .03.006.059.018.087.011.028.028.053.049.075.022.021.047.038.075.049.028.012.058.018.088.018h30.404c.06-.003.116-.028.157-.07.042-.043.065-.1.065-.159v-5.212c0-.059-.023-.116-.065-.159-.041-.043-.097-.068-.157-.07z" fill="#000"/><path d="m130.337 137.641-4.598 6.594h4.598l4.853-6.594z" fill="#000"/><path d="m107.067 138.702h31.708l-1.065-1.061h-29.578z" fill="#000"/><path d="m138.127 131.046h-30.413c-.357 0-.647.289-.647.645v5.22c0 .356.29.645.647.645h30.413c.358 0 .648-.289.648-.645v-5.22c0-.356-.29-.645-.648-.645z" fill="#fff"/><path d="m138.127 137.989h-30.404c-.287 0-.562-.114-.765-.316-.202-.202-.316-.476-.316-.762v-5.212c0-.141.028-.281.082-.412s.134-.25.234-.35c.101-.1.22-.179.351-.233.131-.055.272-.082.414-.082h30.404c.286.002.559.116.759.318.201.202.314.475.314.759v5.212c0 .284-.113.557-.314.759-.2.202-.473.316-.759.319zm-30.404-6.519c-.061 0-.12.024-.163.067s-.067.102-.067.162v5.212c0 .061.024.119.067.162s.102.067.163.067h30.404c.06-.002.116-.027.157-.07.042-.043.065-.1.065-.159v-5.212c0-.059-.023-.116-.065-.159-.041-.042-.097-.067-.157-.07z" fill="#000"/><path d="m130.337 131.046-4.598 6.595h4.598l4.853-6.595z" fill="#000"/><path d="m107.067 132.107h31.708l-1.065-1.061h-29.578z" fill="#000"/><path d="m138.127 124.46h-30.413c-.357 0-.647.289-.647.645v5.22c0 .356.29.645.647.645h30.413c.358 0 .648-.289.648-.645v-5.22c0-.356-.29-.645-.648-.645z" fill="#fff"/><path d="m138.127 131.394h-30.404c-.285 0-.559-.113-.762-.313-.202-.2-.317-.472-.319-.757v-5.219c0-.142.028-.281.082-.412.055-.13.134-.248.235-.348.1-.099.22-.178.351-.231s.271-.08.413-.079h30.404c.285 0 .558.113.759.313.201.201.314.473.314.757v5.219c-.002.283-.116.554-.317.754-.2.2-.472.314-.756.316zm-30.404-6.51c-.03-.001-.06.004-.087.014-.028.011-.054.027-.075.047-.022.021-.039.046-.05.073-.012.028-.018.057-.018.087v5.219c.002.06.027.116.07.157s.1.064.16.064h30.404c.059 0 .115-.023.157-.065.041-.041.065-.097.065-.156v-5.219c0-.059-.024-.115-.065-.156-.042-.042-.098-.065-.157-.065z" fill="#000"/><path d="m130.337 124.46-4.598 6.586h4.598l4.853-6.586z" fill="#000"/><path d="m107.067 125.521h31.708l-1.065-1.061h-29.578z" fill="#000"/><path d="m138.782 145.296 1.005 32.252-9.442.085v-30.139s.247-4.006 8.437-2.198z" fill="#000"/><path d="m107.067 149.684s13.955 1.698 14.219 14.785c-.022 2.787-.853 5.507-2.393 7.832-1.54 2.326-3.722 4.157-6.283 5.273h-8.114l2.554-26.863" fill="#000"/><path d="m105.654 177.659c7.256 0 13.138-5.863 13.138-13.096s-5.882-13.096-13.138-13.096c-7.2555 0-13.1374 5.863-13.1374 13.096s5.8819 13.096 13.1374 13.096z" fill="#fff"/><path d="m105.654 178.083c-2.684.004-5.308-.787-7.5405-2.27-2.2327-1.484-3.9737-3.594-5.0029-6.064-1.0292-2.471-1.3002-5.19-.7788-7.814.5214-2.623 1.8118-5.034 3.708-6.927 1.8962-1.892 4.3132-3.182 6.9442-3.705 2.632-.523 5.36-.256 7.839.767s4.599 2.756 6.09 4.979c1.491 2.224 2.287 4.839 2.287 7.514-.016 3.578-1.448 7.005-3.984 9.537-2.537 2.532-5.973 3.963-9.562 3.983zm0-26.192c-2.515-.003-4.975.737-7.0674 2.127-2.0927 1.391-3.7247 3.369-4.6894 5.684s-1.2189 4.863-.7303 7.322c.4885 2.46 1.6979 4.719 3.475 6.493s4.0421 2.982 6.5081 3.473c2.467.49 5.023.24 7.347-.719 2.324-.958 4.31-2.582 5.708-4.666 1.397-2.085 2.143-4.535 2.143-7.042-.024-3.347-1.37-6.55-3.746-8.915-2.376-2.366-5.591-3.703-8.948-3.723z" fill="#000"/><path d="m102.809 177.659c7.256 0 13.138-5.863 13.138-13.096s-5.882-13.096-13.138-13.096c-7.2553 0-13.1371 5.863-13.1371 13.096s5.8818 13.096 13.1371 13.096z" fill="#fff"/><path d="m102.81 178.083c-2.682 0-5.3046-.793-7.535-2.278-2.2305-1.486-3.9689-3.598-4.9955-6.068-1.0266-2.471-1.2952-5.189-.7718-7.812.5233-2.623 1.8151-5.032 3.712-6.923 1.8968-1.891 4.3136-3.178 6.9443-3.7 2.631-.522 5.358-.254 7.837.769 2.478 1.024 4.596 2.757 6.087 4.98 1.49 2.224 2.286 4.838 2.286 7.512-.016 3.581-1.45 7.011-3.99 9.543-2.541 2.532-5.981 3.962-9.574 3.977zm0-26.192c-2.514 0-4.9715.743-7.062 2.136-2.0904 1.392-3.7197 3.371-4.6819 5.686-.9621 2.316-1.2138 4.864-.7233 7.322.4904 2.458 1.7011 4.716 3.4789 6.488s4.0428 2.979 6.5083 3.468c2.466.489 5.022.238 7.345-.721s4.308-2.583 5.705-4.667 2.142-4.534 2.142-7.04c-.024-3.35-1.373-6.556-3.752-8.921-2.38-2.366-5.599-3.702-8.96-3.717z" fill="#000"/><path d="m102.81 173.848c5.144 0 9.314-4.157 9.314-9.285s-4.17-9.285-9.314-9.285c-5.1446 0-9.3149 4.157-9.3149 9.285s4.1703 9.285 9.3149 9.285z" fill="#f9b121"/><path d="m112.61 155.795-18.5699 18.503c-1.4569-1.349-2.5841-3.012-3.295-4.863l16.9779-16.933c1.857.717 3.527 1.843 4.887 3.293z" fill="#fff" opacity=".2"/><path d="m115.922 162.331-15.326 15.277c-1.3717-.256-2.6939-.729-3.9163-1.4l17.8803-17.824c.664 1.234 1.124 2.566 1.362 3.947z" fill="#fff" opacity=".2"/><path d="m156.51 58.8546-36.489 13.5199c-1.89.7006-2.854 2.7966-2.151 4.6815l7.654 20.5256c.703 1.8849 2.805 2.8454 4.696 2.1443l36.488-13.5198c1.891-.7006 2.854-2.7966 2.151-4.6815l-7.653-20.5256c-.703-1.8849-2.805-2.845-4.696-2.1444z" fill="#fff"/><path d="m128.94 100.389c-.588.004-1.17-.124-1.703-.373-.487-.2205-.926-.535-1.292-.9254-.365-.3904-.649-.8489-.836-1.3492l-7.612-20.5057c-.188-.5009-.275-1.0339-.256-1.5685.019-.5345.143-1.0601.366-1.5466.223-.4864.541-.9242.934-1.2883s.854-.6473 1.357-.8333l36.484-13.512c1.015-.374 2.137-.3322 3.122.1163.984.4485 1.75 1.2672 2.131 2.2772l7.663 20.5226c.188.5003.275 1.0327.256 1.5667-.019.5339-.144 1.0589-.367 1.5446-.223.4858-.54.9229-.933 1.2862s-.854.6456-1.357.8307l-36.526 13.5207c-.46.162-.944.242-1.431.237zm27.723-41.1296-36.492 13.5204c-.401.1476-.768.3739-1.08.6655-.311.2916-.561.6425-.734 1.032-.358.7785-.392 1.6667-.094 2.4699l7.663 20.5226c.302.7979.909 1.4445 1.687 1.799s1.665.3882 2.468.0937l36.484-13.512c.4-.1497.766-.3767 1.077-.6681.311-.2913.561-.6412.736-1.0294.178-.3839.278-.7994.292-1.2221.015-.4227-.055-.844-.207-1.2393l-7.662-20.5226c-.299-.7969-.901-1.4443-1.676-1.8018s-1.659-.3962-2.462-.1078z" fill="#000"/><path d="m161.882 62.829-43.336 16.057 1.904 5.1075 43.336-16.057z" fill="#000"/><path d="m147.012 82.7335-19.393 7.1857.644 1.7264 19.393-7.1858z" fill="#000"/><path d="m135.084 82.956-8.843 3.2764.54 1.4479 8.843-3.2764z" fill="#000"/><path d="m164.802 82.4978c-.087-.0001-.173-.027-.244-.0771-.072-.0501-.126-.121-.156-.203l-2.776-7.435c-.019-.0524-.028-.1081-.026-.164.002-.0558.015-.1108.038-.1616.024-.0508.057-.0966.098-.1346.041-.0381.089-.0677.142-.0873.052-.0195.108-.0285.164-.0264.056.002.111.015.162.0383.051.0232.097.0562.135.0972.038.0409.068.0889.088.1413l2.75 7.435c.02.0524.03.1083.029.1644-.001.0562-.014.1116-.037.1629s-.056.0976-.097.1361-.089.0685-.142.0883z" fill="#000"/><path d="m173.47 177.998h-83.7972c-.1129 0-.2212-.044-.301-.124-.0799-.079-.1247-.187-.1247-.3.0022-.112.0477-.219.1271-.298.0793-.079.1864-.124.2986-.126h83.7972c.113.002.22.047.299.126s.125.186.127.298c0 .113-.045.221-.125.3-.08.08-.188.124-.301.124z" fill="#000"/></g></svg>