<svg fill="none" height="235" viewBox="0 0 249 235" width="249" xmlns="http://www.w3.org/2000/svg" xmlns:xlink="http://www.w3.org/1999/xlink"><clipPath id="a"><path d="m0 0h249v234.964h-249z"/></clipPath><g clip-path="url(#a)"><path d="m137.113 194.975c-1.305-.002-2.608.125-3.888.381-.738-4.462-2.845-8.584-6.029-11.795-3.185-3.212-7.289-5.353-11.745-6.128-4.456-.776-9.042-.146-13.124 1.801s-7.4575 5.116-9.6589 9.066c-1.1658-2.823-3.0495-5.292-5.4641-7.162-2.4145-1.87-5.2761-3.077-8.3009-3.5-3.0247-.423-6.1075-.047-8.9425 1.089-2.8349 1.136-5.3235 2.994-7.2189 5.389-2.7942-3.029-6.3898-5.203-10.3698-6.272-3.9799-1.068-8.1811-.986-12.1162.237-3.9352 1.223-7.4431 3.536-10.1168 6.672-2.6738 3.135-4.4038 6.965-4.9895 11.044-2.6877-.805-5.5172-1.022-8.2962-.636s-5.4423 1.366-7.80869 2.873c-2.36643 1.508-4.38056 3.507-5.90543 5.862-1.52486 2.355-2.52471 5.011-2.931556 7.787-.406847 2.776-.21115102 5.607.573781 8.301.784935 2.693 2.140695 5.186 3.975105 7.309 1.8344 2.123 4.10444 3.826 6.65579 4.993 2.5513 1.168 5.324 1.772 8.1297 1.772h117.5711c5.183 0 10.153-2.059 13.818-5.724 3.665-3.664 5.724-8.635 5.724-13.817 0-5.183-2.059-10.154-5.724-13.818-3.665-3.665-8.635-5.724-13.818-5.724z" fill="#95d67c"/><g fill="#000"><path d="m201.218 153.656c.078-2.8-.771-5.546-2.414-7.813-1.644-2.267-3.991-3.928-6.675-4.724-5.413-1.457-11.164 1.22-14.824 5.176-1.644 1.721-2.877 3.791-3.608 6.056-.534 1.787-.72 4.235 1.262 5.176 1.982.94 3.829-.466 5.082-1.881 1.576-1.736 2.694-3.812 4.617-5.218 1.188-.879 2.547-1.502 3.989-1.827 1.443-.325 2.937-.346 4.388-.062 1.418.298 2.744.928 3.871 1.838 1.219 1.105 2.233 2.416 2.999 3.872.079.103.193.174.32.199.128.025.26.003.373-.062.112-.066.197-.17.238-.294.04-.123.035-.258-.016-.377-1.22-2.025-2.44-3.871-4.541-5.082-1.908-1.08-4.104-1.539-6.285-1.313-2.193.208-4.284 1.024-6.039 2.354-1.627 1.229-2.677 2.872-3.948 4.439-1.025 1.271-3.388 3.905-5.082 2.084-1.398-1.483.076-4.591.847-6.031 2.541-4.498 7.437-8.115 12.706-8.378 6.539-.33 11.943 5.413 11.715 11.859 0 .678 1.033.678 1.059 0z"/><path d="m189.579 230.805h-.135c-.106-.038-.193-.116-.242-.218-.049-.101-.056-.217-.021-.324 5.523-15.908 8.174-45.478 9.758-63.148.398-4.455.746-8.301 1.042-10.961.209-1.633-.131-3.29-.966-4.709-.034-.048-.059-.101-.072-.159-.012-.057-.013-.116-.002-.174.012-.057.035-.112.068-.16.034-.048.077-.089.127-.119.05-.031.106-.051.164-.059s.117-.003.173.013c.057.016.109.044.154.081s.082.084.108.136c.931 1.58 1.315 3.423 1.093 5.244-.305 2.651-.652 6.488-1.05 10.943-1.584 17.704-4.235 47.342-9.792 63.352-.033.08-.09.148-.162.195-.073.047-.158.07-.245.067z"/><path d="m219.658 147.98c2.474-5.175 8.793-8.013 14.239-5.929 5.006 1.923 8.208 7.336 8.877 12.469.35 1.99.16 4.037-.55 5.929-.941 2.101-3.126 1.821-4.075-.11-.847-1.796-.957-3.888-1.363-5.811-.463-2.165-1.522-4.157-3.058-5.751-1.776-1.864-4.139-3.061-6.692-3.389-3.024-.355-5.438.797-7.937 2.33-.103.079-.174.193-.2.32-.025.128-.003.261.063.373.065.112.17.197.293.238.124.041.258.035.378-.016 1.254-.883 2.641-1.561 4.108-2.008 1.392-.337 2.844-.337 4.235 0 1.39.353 2.694.986 3.831 1.86 1.138.874 2.085 1.97 2.785 3.223 1.16 2.024 1.313 4.235 1.778 6.446.365 1.753.992 4.023 2.864 4.726 4.641 1.745 4.963-5.802 4.591-8.53-.72-5.319-3.939-10.774-8.988-13.01-5.98-2.643-13.29.313-16.094 6.149-.288.61.619 1.152.915.534z"/><path d="m197.093 232.643h-.059c-.056-.007-.11-.025-.158-.053-.049-.029-.092-.067-.126-.112-.033-.044-.058-.096-.072-.15-.014-.055-.017-.112-.008-.167 3.142-21.321 16.704-70.441 21.227-82.224.642-1.719 1.833-3.178 3.388-4.15.097-.059.213-.077.322-.05.11.027.204.097.263.194.058.096.076.212.049.322-.027.109-.097.204-.193.262-1.401.869-2.471 2.181-3.041 3.727-4.515 11.757-18.034 60.768-21.177 82.046-.016.098-.066.188-.142.253-.076.066-.173.102-.273.102z"/><path d="m193.891 231.856c-.048.008-.096.008-.144 0-.105-.037-.191-.113-.241-.213-.049-.1-.057-.215-.021-.321 6.818-19.635 16.526-81.563 18.11-95.37.207-1.634-.136-3.291-.975-4.709-.058-.097-.076-.213-.049-.322.027-.11.097-.205.193-.263.097-.058.213-.076.323-.049.109.027.204.096.262.193.934 1.579 1.315 3.424 1.084 5.243-1.584 13.833-11.308 75.863-18.144 95.548-.032.079-.087.146-.158.193s-.155.071-.24.07z"/><path d="m207.334 165.413c-.056-.002-.11-.016-.16-.039s-.095-.057-.132-.098-.066-.089-.084-.141-.026-.107-.023-.163c.382-6.547-1.219-20.414-1.236-20.558-.012-.111.02-.222.09-.309.07-.088.171-.144.282-.157.112-.011.223.021.31.091s.144.171.156.282c0 .136 1.627 14.087 1.245 20.694-.008.111-.06.215-.144.289-.083.075-.193.114-.304.109z"/><path d="m206.554 148.48c-.105-.008-.204-.057-.274-.136-.071-.079-.109-.181-.107-.287-.065-2.025-.502-4.02-1.287-5.887-.749-1.882-1.991-3.528-3.597-4.762s-3.515-2.013-5.526-2.252c-5.438-.847-8.945-2.397-10.427-4.625-.31-.418-.527-.897-.638-1.405s-.113-1.034-.006-1.543c.131-.575.383-1.116.739-1.586.356-.471.809-.86 1.328-1.141 2.346-1.322 6.353-1.11 11.858.627 11.978 3.752 8.386 22.472 8.352 22.658-.019.096-.071.182-.147.244-.075.061-.17.095-.268.095zm-15.882-23.624c-1.224-.065-2.444.189-3.541.737-.425.22-.797.53-1.09.909s-.499.817-.604 1.285c-.074.395-.065.802.025 1.194s.261.761.5 1.084c.924 1.389 3.389 3.253 9.852 4.235 7.344 1.144 9.842 6.777 10.689 10.436.432-5.379.136-15.857-8.174-18.457-2.468-.851-5.048-1.33-7.657-1.423z"/><path d="m212.018 135.977s-10.851-12.265-5.227-12.9c5.625-.635 7.268 8.293 5.227 12.9z"/><path d="m212.018 136.376c-.06-.002-.12-.015-.175-.04s-.105-.06-.146-.104c-.847-.932-8.022-9.199-6.777-12.376.157-.362.415-.672.745-.89.329-.218.715-.336 1.11-.338.897-.109 1.806.034 2.626.412.819.379 1.518.978 2.016 1.731 2.041 2.779 2.541 7.979 1.008 11.351-.03.063-.075.119-.131.162-.056.042-.121.071-.191.083zm-4.658-12.935h-.517c-.932.11-1.101.551-1.152.695-.847 2.134 3.82 8.216 6.183 11.012 1.076-3.109.602-7.471-1.16-9.869-.367-.554-.865-1.01-1.45-1.326-.585-.317-1.239-.484-1.904-.486z"/><path d="m202.599 194.23s4.404-8.64 8.36-5.286-8.36 5.286-8.36 5.286z"/><path d="m202.599 194.653c-.067.001-.134-.014-.194-.044-.06-.029-.113-.072-.153-.125-.04-.069-.061-.146-.061-.225s.021-.156.061-.224c.118-.22 2.88-5.565 6.141-6.218.513-.097 1.041-.07 1.542.077.5.147.959.411 1.338.77.328.217.585.528.736.891.151.364.189.765.111 1.151-.72 2.541-8.556 3.846-9.445 3.99zm6.421-6.056c-.166 0-.33.017-.492.051-2.194.432-4.235 3.549-5.124 5.014 3.151-.584 7.496-1.83 7.894-3.227 0-.127.144-.525-.61-1.161-.455-.422-1.048-.663-1.668-.677z"/><path d="m216.11 190.96c-.605.017-1.199-.161-1.694-.508-1.262-.89-1.83-2.88-1.694-5.93.11-2.431-.339-4.235-1.296-5.302-.432-.501-1.037-.819-1.695-.89-.088-.003-.174-.035-.244-.089-.069-.055-.12-.13-.145-.216-.028-.083-.028-.174 0-.257.027-.084.081-.157.152-.208.144-.102 3.541-2.465 6.582-1.483 1.609.517 2.804 1.872 3.532 4.015 2.431 7.107 1.025 9.318-1.83 10.512-.53.217-1.095.338-1.668.356zm-5.26-13.206c.455.201.866.489 1.211.847 1.143 1.229 1.694 3.228 1.541 5.93-.152 2.702.331 4.498 1.33 5.201.389.211.822.326 1.265.335.442.009.88-.089 1.276-.284 2.033-.847 3.821-2.254 1.356-9.454-.644-1.872-1.652-3.049-2.99-3.481-1.805-.551-3.871.305-4.989.906z"/><path d="m213.704 164.608h-.093c-.108-.028-.202-.096-.261-.191-.06-.094-.082-.207-.061-.317l9.233-41.591c.025-.112.093-.21.19-.272s.214-.083.327-.058c.112.025.21.093.272.19s.083.214.058.327l-9.233 41.59c-.023.096-.079.18-.158.239-.079.058-.176.088-.274.083z"/><path d="m221.928 126.211c-2.134-7.767-18.754-4.981-19.956-8.098-2.432-6.336 6.09-4.32 8.614-3.6 3.847 1.165 7.418 3.099 10.495 5.684-1.804-3.625-4.82-5.828-8.013-7.818-2.372-1.305-10.571-4.371-9.911-8.03 1.415-8.2675 17.789 7.335 19.584 10.588-.474-3.558-5.082-20.7614 2.245-21.5915 6.014-.5337-.644 15.5855.923 18.6355 2.626-2.686 6.328-8.327 9.572-10.495 7.183-4.7947 11.791-1.6013 6.599 2.075-4.634 3.27-11.69 7.623-14.4 13.765 3.667-1.466 6.522-3.609 10.249-4.312 2.228-.576 12.172-1.635 11.012 2.634-1.694 5.252-17.788 2.127-21.905 5.328 2.431 2.059 7.437.678 10.766 2.084 3.295 1.042 8.174 5.159 2.219 6.438-5.607.847-12.553-7.802-18.059-3.338"/><path d="m198.838 181.625c-3.541-3.955-12.536 2.542-14.154 1.076-3.295-3.024 2.321-4.337 4.023-4.65 2.616-.437 5.294-.336 7.87.296-2.135-1.618-4.558-2.024-7.023-2.27-1.787-.068-7.521.525-8.208-1.829-1.592-5.295 12.664-.89 14.663.508-1.321-1.965-9.08-10.766-5.015-13.409 3.389-2.075 4.236 9.394 6.031 10.749.754-2.363 1.288-6.776 2.542-9.004 2.829-4.939 6.488-4.405 4.497-.72-1.77 3.295-4.65 7.954-4.464 12.358 1.737-1.939 2.796-4.04 4.786-5.548 1.144-.991 6.701-4.54 7.26-1.694.567 3.592-9.886 6.488-11.359 9.572 2.041.499 4.582-1.779 6.962-1.923 2.254-.356 6.336.644 3.202 3.142-3.058 2.16-9.699-.923-11.638 3.329"/><path d="m214.644 161.465c.483-5.294-10.419-7.42-10.436-9.622 0-4.473 4.76-1.254 6.141-.22 2.106 1.601 3.86 3.619 5.15 5.929-.271-2.66-1.618-4.71-3.125-6.675-1.169-1.364-5.515-5.15-4.236-7.259 2.787-4.769 9.318 8.657 9.631 11.071.534-2.304 1.694-13.985 6.387-12.808 3.837 1.068-4.006 9.471-3.752 11.741 2.244-1.059 5.836-3.685 8.335-4.236 5.548-1.296 7.623 1.745 3.6 2.813-3.634.931-9.013 1.965-12.105 5.133 2.601-.051 4.862-.712 7.327-.28 1.508.161 7.886 1.804 6.175 4.168-2.236 2.863-11.477-2.804-14.747-1.779 1.025 1.83 4.43 2.134 6.158 3.778 1.796 1.406 3.846 5.082-.118 4.481-3.668-.754-5.93-7.717-10.377-6.235"/></g><path d="m82.2916 234.371c-13.4512-.923-36.1692.051-39.4558.051-12.6465 0 8.9111-10.673 13.7901-10.571 7.0983.059 15.3401 2.321 21.5999 5.294-4.9722-5.675-11.4522-8.199-18.1355-10.275-4.9044-1.177-21.1255-2.871-21.6761-9.749-1.3722-15.561 35.5763 4.752 40.3029 9.766-2.5412-6.175-18.9995-34.983-6.2259-39.955 10.5797-3.812 6.2851 28.368 10.5204 33.17 3.4391-6.09 7.4287-18.008 12.2399-23.446 10.6645-12.054 20.4815-8.471 12.8755.593-6.777 8.098-17.4157 19.338-19.4232 31.637 5.9294-4.37 10.0376-9.588 16.4162-12.629 3.735-2.092 21.176-8.733 21.058-.491-.492 10.257-31.062 12.307-36.9151 20.015 5.3618 2.542 13.7051-2.321 20.3801-1.363 6.429.296 19.126 6.446 7.835 7.496-9.749.915-18.7366.153-34.0344.195" fill="#95d67c"/><path d="m189.368.423584h-86.56c-7.4853 0-13.5531 6.067826-13.5531 13.552816v206.5796c0 7.485 6.0678 13.553 13.5531 13.553h86.56c7.485 0 13.553-6.068 13.553-13.553v-206.5796c0-7.48499-6.068-13.552816-13.553-13.552816z" fill="#fff"/><path d="m189.368 234.532h-86.561c-3.7049-.004-7.2573-1.478-9.8774-4.098s-4.0941-6.173-4.0985-9.878v-206.5796c.0044-3.7054 1.4784-7.25775 4.0985-9.87786s6.1725-4.09405676 9.8774-4.09854h86.561c3.705.00448324 7.258 1.47843 9.878 4.09854s4.094 6.17246 4.098 9.87786v206.5796c-.004 3.705-1.478 7.258-4.098 9.878s-6.173 4.094-9.878 4.098zm-86.561-233.684946c-3.481.002244-6.8192 1.386226-9.2809 3.847976-2.4618 2.46174-3.8457 5.79997-3.848 9.28137v206.5796c.0023 3.481 1.3862 6.82 3.848 9.281 2.4617 2.462 5.7999 3.846 9.2809 3.848h86.561c3.481-.002 6.82-1.386 9.281-3.848 2.462-2.461 3.846-5.8 3.848-9.281v-206.5796c-.002-3.4814-1.386-6.81963-3.848-9.28137-2.461-2.46175-5.8-3.845732-9.281-3.847976z" fill="#000"/><path d="m175.883.423584h-86.4082c-7.5271 0-13.6291 6.101956-13.6291 13.629116v206.4273c0 7.527 6.102 13.629 13.6291 13.629h86.4082c7.527 0 13.629-6.102 13.629-13.629v-206.4273c0-7.52716-6.102-13.629116-13.629-13.629116z" fill="#fff"/><path d="m175.882 234.532h-86.3993c-1.8484.004-3.6793-.357-5.3881-1.062-1.7088-.704-3.2621-1.739-4.5711-3.044-1.3089-1.305-2.3479-2.855-3.0575-4.561-.7097-1.707-1.0761-3.537-1.0783-5.385v-206.4274c.0022-1.8476.3683-3.6767 1.0775-5.38286.7091-1.70615 1.7473-3.25592 3.0554-4.56083 1.308-1.30491 2.8603-2.3394 4.5681-3.0444 1.7079-.70501 3.5379-1.06672586 5.3855-1.06449979h86.3998c3.725.0044833 7.297 1.48645979 9.931 4.12086979 2.635 2.63441 4.117 6.20612 4.121 9.93172v206.4274c-.004 3.724-1.485 7.294-4.118 9.928-2.632 2.635-6.202 4.118-9.926 4.124zm-86.4078-233.684936c-1.7367-.00334-3.4571.335706-5.0626.997746-1.6056.66205-3.0649 1.6341-4.2946 2.86057-1.2296 1.22647-2.2054 2.68331-2.8715 4.28719-.6662 1.60393-1.0096 3.32333-1.0108 5.06003v206.4274c.0023 3.501 1.3943 6.859 3.8703 9.335 2.4761 2.476 5.8337 3.868 9.3353 3.87h86.3997c3.501-.004 6.857-1.397 9.333-3.872 2.475-2.476 3.868-5.832 3.872-9.333v-206.4274c-.004-3.4936-1.391-6.84351-3.857-9.31785-2.467-2.47435-5.812-3.872022-9.306-3.887686z" fill="#000"/><path d="m175.468 3.22729h-85.5866c-6.2033 0-11.232 5.02871-11.232 11.23191v181.0408c0 6.203 5.0287 11.232 11.232 11.232h85.5866c6.203 0 11.232-5.029 11.232-11.232v-181.0408c0-6.2032-5.029-11.23191-11.232-11.23191z" fill="#fff"/><path d="m175.476 207.164h-85.552c-3.0905-.002-6.0538-1.231-8.2392-3.416-2.1853-2.186-3.414-5.149-3.4162-8.239v-181.0498c.0022-3.0832 1.225-6.04016 3.4012-8.22429 2.1762-2.18412 5.1287-3.41777 8.2119-3.4312h85.5943c3.09.00449 6.051 1.23418 8.234 3.41927 2.184 2.1851 3.411 5.14712 3.413 8.23622v181.0498c-.002 3.089-1.229 6.051-3.413 8.236-2.183 2.185-5.144 3.414-8.234 3.419zm-85.5943-203.51323c-2.8652.00448-5.6118 1.14465-7.6378 3.17065s-3.1662 4.77258-3.1706 7.63778v181.0498c.0044 2.865 1.1446 5.611 3.1706 7.637s4.7726 3.166 7.6378 3.171h85.5943c2.865-.005 5.611-1.145 7.635-3.171 2.025-2.026 3.163-4.773 3.165-7.637v-181.0498c-.002-2.8644-1.14-5.61102-3.165-7.63726-2.024-2.02624-4.77-3.16669-7.635-3.17117z" fill="#000"/><path d="m181.762 232.609c.288-.141.57-.293.847-.457-.277.164-.559.316-.847.457z" fill="#eaf4ff"/><path d="m181.762 1.92285c.288.14118.57.29365.847.45741-.277-.15812-.559-.31059-.847-.45741z" fill="#eaf4ff"/><path d="m198.397 21.007c0-1.0339-.838-1.872-1.872-1.872s-1.872.8381-1.872 1.872v12.1637c0 1.0339.838 1.872 1.872 1.872s1.872-.8381 1.872-1.872z" fill="#000"/><path d="m129.142 229.899c5.174 0 9.368-4.194 9.368-9.368s-4.194-9.369-9.368-9.369-9.369 4.195-9.369 9.369 4.195 9.368 9.369 9.368z" fill="#000"/><path d="m150.555 7.75903h-27.935c-.754 0-1.364.61058-1.364 1.36376s.61 1.36371 1.364 1.36371h27.935c.754 0 1.364-.61053 1.364-1.36371s-.61-1.36376-1.364-1.36376z" fill="#000"/><path d="m119.435 9.12279c0-.75318-.611-1.36376-1.364-1.36376s-1.364.61058-1.364 1.36376.611 1.36371 1.364 1.36371 1.364-.61053 1.364-1.36371z" fill="#000"/><path d="m177.382 24.0818h-88.2965c-1.8713 0-3.3882 1.5169-3.3882 3.3882v32.8403c0 1.8712 1.5169 3.3882 3.3882 3.3882h88.2965c1.872 0 3.389-1.517 3.389-3.3882v-32.8403c0-1.8713-1.517-3.3882-3.389-3.3882z" fill="#fff"/><path d="m177.391 64.122h-88.3058c-1.0103-.0023-1.9785-.4046-2.6929-1.1189-.7143-.7144-1.1166-1.6826-1.1189-2.6929v-32.8403c.0023-1.0102.4046-1.9784 1.1189-2.6928.7144-.7143 1.6826-1.1167 2.6929-1.1189h88.3058c1.01.0022 1.978.4046 2.692 1.1189.715.7144 1.117 1.6826 1.119 2.6928v32.8403c-.002 1.0103-.404 1.9785-1.119 2.6929-.714.7143-1.682 1.1166-2.692 1.1189zm-88.3058-39.6167c-.7863 0-1.5404.3123-2.0964.8683s-.8683 1.3101-.8683 2.0963v32.8403c0 .7863.3123 1.5404.8683 2.0964s1.3101.8683 2.0964.8683h88.3058c.786 0 1.54-.3123 2.096-.8683s.868-1.3101.868-2.0964v-32.8403c0-.7862-.312-1.5403-.868-2.0963s-1.31-.8683-2.096-.8683z" fill="#d4d4d4"/><path d="m105.713 58.5483c7.672 0 13.892-6.2196 13.892-13.8917 0-7.6722-6.22-13.8917-13.892-13.8917-7.6722 0-13.8917 6.2195-13.8917 13.8917 0 7.6721 6.2195 13.8917 13.8917 13.8917z" fill="#d4d4d4"/><path d="m173.13 33.4756h-45.385c-.936 0-1.694.7585-1.694 1.6941v4.4809c0 .9356.758 1.6941 1.694 1.6941h45.385c.936 0 1.694-.7585 1.694-1.6941v-4.4809c0-.9356-.758-1.6941-1.694-1.6941z" fill="#d4d4d4"/><path d="m154.876 47.7314h-27.131c-.936 0-1.694.7585-1.694 1.6942v4.4809c0 .9356.758 1.6941 1.694 1.6941h27.131c.936 0 1.694-.7585 1.694-1.6941v-4.4809c0-.9357-.758-1.6942-1.694-1.6942z" fill="#d4d4d4"/><path d="m177.382 67.6458h-88.2965c-1.8713 0-3.3882 1.5169-3.3882 3.3882v32.84c0 1.872 1.5169 3.388 3.3882 3.388h88.2965c1.872 0 3.389-1.516 3.389-3.388v-32.84c0-1.8713-1.517-3.3882-3.389-3.3882z" fill="#fff"/><path d="m177.391 107.686h-88.3058c-1.0103-.002-1.9785-.405-2.6929-1.119-.7143-.714-1.1166-1.683-1.1189-2.693v-32.8401c.0023-1.0102.4046-1.9785 1.1189-2.6928.7144-.7144 1.6826-1.1167 2.6929-1.1189h88.3058c1.01.0022 1.978.4045 2.692 1.1189.715.7143 1.117 1.6826 1.119 2.6928v32.8401c-.002 1.01-.404 1.979-1.119 2.693-.714.714-1.682 1.117-2.692 1.119zm-88.3058-39.6168c-.7863 0-1.5404.3124-2.0964.8684-.556.5559-.8683 1.31-.8683 2.0963v32.8401c0 .786.3123 1.541.8683 2.097s1.3101.868 2.0964.868h88.3058c.786 0 1.54-.312 2.096-.868s.868-1.311.868-2.097v-32.8401c0-.7863-.312-1.5404-.868-2.0963-.556-.556-1.31-.8684-2.096-.8684z" fill="#d4d4d4"/><path d="m105.713 102.112c7.672 0 13.892-6.219 13.892-13.8912s-6.22-13.8917-13.892-13.8917c-7.6722 0-13.8917 6.2195-13.8917 13.8917s6.2195 13.8912 13.8917 13.8912z" fill="#d4d4d4"/><path d="m173.13 77.0396h-45.385c-.936 0-1.694.7584-1.694 1.6941v4.4809c0 .9356.758 1.6941 1.694 1.6941h45.385c.936 0 1.694-.7585 1.694-1.6941v-4.4809c0-.9357-.758-1.6941-1.694-1.6941z" fill="#d4d4d4"/><path d="m154.876 91.2954h-27.131c-.936 0-1.694.7585-1.694 1.6941v4.4809c0 .9357.758 1.6941 1.694 1.6941h27.131c.936 0 1.694-.7584 1.694-1.6941v-4.4809c0-.9356-.758-1.6941-1.694-1.6941z" fill="#d4d4d4"/><path d="m177.382 112.54h-88.2965c-1.8713 0-3.3882 1.517-3.3882 3.388v32.84c0 1.871 1.5169 3.388 3.3882 3.388h88.2965c1.872 0 3.389-1.517 3.389-3.388v-32.84c0-1.871-1.517-3.388-3.389-3.388z" fill="#fff"/><path d="m177.391 152.58h-88.3058c-1.0103-.002-1.9785-.405-2.6929-1.119-.7143-.715-1.1166-1.683-1.1189-2.693v-32.84c.0023-1.011.4046-1.979 1.1189-2.693.7144-.714 1.6826-1.117 2.6929-1.119h88.3058c1.01.002 1.978.405 2.692 1.119.715.714 1.117 1.682 1.119 2.693v32.84c-.002 1.01-.404 1.978-1.119 2.693-.714.714-1.682 1.117-2.692 1.119zm-88.3058-39.617c-.7863 0-1.5404.312-2.0964.868s-.8683 1.31-.8683 2.097v32.84c0 .786.3123 1.54.8683 2.096s1.3101.869 2.0964.869h88.3058c.786 0 1.54-.313 2.096-.869s.868-1.31.868-2.096v-32.84c0-.787-.312-1.541-.868-2.097s-1.31-.868-2.096-.868z" fill="#d4d4d4"/><path d="m105.713 147.006c7.672 0 13.892-6.219 13.892-13.891 0-7.673-6.22-13.892-13.892-13.892-7.6722 0-13.8917 6.219-13.8917 13.892 0 7.672 6.2195 13.891 13.8917 13.891z" fill="#d4d4d4"/><path d="m173.13 121.933h-45.385c-.936 0-1.694.759-1.694 1.694v4.481c0 .936.758 1.694 1.694 1.694h45.385c.936 0 1.694-.758 1.694-1.694v-4.481c0-.935-.758-1.694-1.694-1.694z" fill="#d4d4d4"/><path d="m154.876 136.189h-27.131c-.936 0-1.694.759-1.694 1.695v4.48c0 .936.758 1.695 1.694 1.695h27.131c.936 0 1.694-.759 1.694-1.695v-4.48c0-.936-.758-1.695-1.694-1.695z" fill="#d4d4d4"/><path d="m177.382 161.406h-88.2965c-1.8713 0-3.3882 1.517-3.3882 3.388v32.841c0 1.871 1.5169 3.388 3.3882 3.388h88.2965c1.872 0 3.389-1.517 3.389-3.388v-32.841c0-1.871-1.517-3.388-3.389-3.388z" fill="#fff"/><path d="m177.391 201.446h-88.3058c-1.0103-.002-1.9785-.404-2.6929-1.118-.7143-.715-1.1166-1.683-1.1189-2.693v-32.841c.0023-1.01.4046-1.978 1.1189-2.692.7144-.715 1.6826-1.117 2.6929-1.119h88.3058c1.01.002 1.978.404 2.692 1.119.715.714 1.117 1.682 1.119 2.692v32.841c-.002 1.01-.404 1.978-1.119 2.693-.714.714-1.682 1.116-2.692 1.118zm-88.3058-39.616c-.7863 0-1.5404.312-2.0964.868s-.8683 1.31-.8683 2.096v32.841c0 .786.3123 1.54.8683 2.096s1.3101.868 2.0964.868h88.3058c.786 0 1.54-.312 2.096-.868s.868-1.31.868-2.096v-32.841c0-.786-.312-1.54-.868-2.096s-1.31-.868-2.096-.868z" fill="#d4d4d4"/><path d="m105.713 195.873c7.672 0 13.892-6.22 13.892-13.892s-6.22-13.892-13.892-13.892c-7.6722 0-13.8917 6.22-13.8917 13.892s6.2195 13.892 13.8917 13.892z" fill="#d4d4d4"/><path d="m173.13 170.792h-45.385c-.936 0-1.694.758-1.694 1.694v4.481c0 .935.758 1.694 1.694 1.694h45.385c.936 0 1.694-.759 1.694-1.694v-4.481c0-.936-.758-1.694-1.694-1.694z" fill="#d4d4d4"/><path d="m154.876 185.056h-27.131c-.936 0-1.694.758-1.694 1.694v4.481c0 .936.758 1.694 1.694 1.694h27.131c.936 0 1.694-.758 1.694-1.694v-4.481c0-.936-.758-1.694-1.694-1.694z" fill="#d4d4d4"/><path d="m67.2814 205.732h-28.173v28.809h28.173z" fill="#fff"/><path d="m67.2821 234.964h-28.173c-.1124 0-.2201-.044-.2995-.124-.0794-.079-.1241-.187-.1241-.299v-28.8c.0022-.112.0475-.218.1265-.297s.1854-.124.2971-.127h28.173c.1123 0 .22.045.2995.124.0794.08.124.188.124.3v28.8c0 .112-.0446.22-.124.299-.0795.08-.1872.124-.2995.124zm-27.7495-.847h27.326v-27.953h-27.326z" fill="#000"/><path d="m39.1085 205.732h-21.3712v28.809h21.3712z" fill="#fff"/><path d="m39.1091 234.964h-21.3711c-.1123 0-.2201-.044-.2995-.124-.0794-.079-.124-.187-.124-.299v-28.8c.0021-.112.0474-.218.1264-.297s.1854-.124.2971-.127h21.3711c.1124 0 .2201.045.2995.124.0795.08.1241.188.1241.3v28.8c0 .112-.0446.22-.1241.299-.0794.08-.1871.124-.2995.124zm-20.9476-.847h20.5241v-27.953h-20.5241z" fill="#000"/><path d="m64.8765 218.362h-10.8423v7.022h10.8423z" fill="#000"/><path d="m53.1699 205.732 2.3464 12.63v16.179h3.9388l-.0254-28.809z" fill="#000"/><path d="m106.399 205.732h-28.1734v28.809h28.1734z" fill="#fff"/><path d="m106.399 234.964h-28.1727c-.1124 0-.2201-.044-.2995-.124-.0794-.079-.1241-.187-.1241-.299v-28.8c0-.112.0447-.22.1241-.3.0794-.079.1871-.124.2995-.124h28.1727c.112.003.218.048.297.127s.125.185.127.297v28.8c0 .112-.045.22-.124.299-.08.08-.187.124-.3.124zm-27.7492-.847h27.3262v-27.953h-27.3262z" fill="#000"/><path d="m78.2257 205.732h-21.3712v28.809h21.3712z" fill="#fff"/><path d="m78.2254 234.964h-21.3712c-.1123 0-.2201-.044-.2995-.124-.0794-.079-.124-.187-.124-.299v-28.8c0-.112.0446-.22.124-.3.0794-.079.1872-.124.2995-.124h21.3712c.1116.003.2181.048.297.127.079.079.1243.185.1265.297v28.8c0 .112-.0446.22-.1241.299-.0794.08-.1871.124-.2994.124zm-20.9477-.847h20.5241v-27.953h-20.5241z" fill="#000"/><path d="m103.985 218.362h-10.8424v7.022h10.8424z" fill="#000"/><path d="m87.6027 176.924h-28.173v28.809h28.173z" fill="#fff"/><path d="m87.6024 206.156h-28.173c-.1123 0-.2201-.045-.2995-.124-.0794-.08-.124-.187-.124-.3v-28.799c0-.113.0446-.22.124-.3.0794-.079.1872-.124.2995-.124h28.173c.1116.002.2181.048.2971.126.0789.079.1243.186.1264.298v28.799c0 .113-.0446.22-.124.3-.0794.079-.1872.124-.2995.124zm-27.7495-.847h27.326v-27.953h-27.326z" fill="#000"/><path d="m59.4298 176.924h-21.3712v28.809h21.3712z" fill="#fff"/><path d="m59.4295 206.156h-21.3712c-.1123 0-.2201-.045-.2995-.124-.0794-.08-.124-.187-.124-.3v-28.799c0-.113.0446-.22.124-.3.0794-.079.1872-.124.2995-.124h21.3712c.1116.002.2181.048.297.126.079.079.1243.186.1265.298v28.799c0 .113-.0446.22-.1241.3-.0794.079-.1871.124-.2994.124zm-20.9477-.847h20.5241v-27.953h-20.5241z" fill="#000"/><path d="m85.189 189.554h-10.8423v7.022h10.8423z" fill="#000"/><path d="m53.1953 208.748.5252 18.906v6.489c0 .105.0419.207.1166.281.0747.075.1759.117.2815.117h21.7608c.0549.001.1094-.009.1601-.03.0506-.021.0962-.053.1338-.093s.0663-.087.0843-.139c.0179-.052.0247-.107.0199-.162-.1016-.965-1.1604-3.261-8.767-3.684l-.1948-.06c-.8231-.278-1.5491-.787-2.0922-1.465-.7251-.89-1.1041-2.012-1.0673-3.16l.2202-19.838c-3.313 2.151-7.2433 3.149-11.1811 2.838z" fill="#fff"/><path d="m75.8798 234.964h-21.7609c-.2246 0-.4401-.089-.5989-.248-.1589-.158-.2481-.374-.2481-.599v-6.488l-.5252-18.898c-.0034-.06.0071-.121.0306-.176.0235-.056.0594-.106.1049-.146.0463-.04.1001-.07.1583-.089s.1196-.026.1806-.021c3.8233.281 7.6344-.688 10.8592-2.761.0644-.042.1394-.064.216-.064s.1516.022.216.064c.0697.036.128.091.1684.158s.0612.144.0603.223l-.2202 19.838c-.0366 1.047.3098 2.07.9741 2.88.5046.619 1.1742 1.083 1.9313 1.338l.1355.043c7.6235.423 8.9703 2.719 9.1058 4.057.0058.115-.0119.23-.0519.337-.04.108-.1015.206-.1807.29-.0792.083-.1746.149-.2802.194s-.2193.069-.3342.068zm-22.2522-25.742.5167 18.432v6.506h21.7355c-.0932-.627-.9064-2.846-8.3943-3.261h-.0932l-.2033-.06c-.9147-.302-1.7233-.86-2.3294-1.609-.7915-.964-1.2041-2.184-1.1605-3.431l.2118-19.118c-3.1041 1.838-6.6804 2.722-10.2833 2.541z" fill="#000"/><path d="m53.7207 230.399v3.71c0 .105.0419.207.1166.281.0747.075.1759.117.2815.117h21.7608c.0549.001.1094-.009.1601-.03.0506-.021.0962-.053.1338-.093s.0663-.087.0843-.139c.0179-.052.0247-.107.02-.162-.1017-.965-1.1605-3.261-8.7671-3.684l-.1948-.06c-.8189-.269-1.5445-.765-2.0922-1.431s-3.6762 4.176-11.503 1.491z" fill="#000"/><path d="m64.0636 213.847s-7.6235.949-9.9445-3.955l10.0885-1.313z" fill="#000"/><path d="m39.1084 208.748.5252 18.906v6.489c0 .105.0419.207.1166.281.0746.075.1759.117.2815.117h21.8032c.0548.001.1093-.009.16-.03.0506-.021.0962-.053.1338-.093s.0663-.087.0843-.139c.0179-.052.0248-.107.02-.162-.1017-.965-1.1605-3.261-8.767-3.684l-.1864-.06c-.8389-.27-1.5807-.779-2.1346-1.465-.7251-.89-1.1041-2.012-1.0673-3.16l.2203-19.838c-3.3151 2.154-7.2489 3.151-11.1896 2.838z" fill="#fff"/><path d="m61.8356 234.964h-21.8032c-.2246 0-.4401-.089-.5989-.248-.1589-.159-.2481-.374-.2481-.599v-6.488l-.5252-18.898c-.001-.06.0105-.12.0338-.175.0233-.056.058-.106.1018-.147.0462-.04.1-.07.1582-.089s.1196-.026.1806-.021c3.8233.281 7.6344-.688 10.8592-2.761.066-.042.1423-.064.2202-.064s.1543.022.2203.064c.0675.038.1235.093.1623.16.0387.067.0587.143.0579.221l-.2202 19.838c-.0366 1.046.3098 2.07.9741 2.88.5115.623 1.1903 1.087 1.9567 1.338l.1355.042c7.6235.424 8.9703 2.72 9.1143 4.058.0074.112-.0075.224-.0438.33-.0364.106-.0935.204-.168.288-.0709.082-.1579.148-.2555.195-.0976.046-.2038.072-.312.076zm-22.2944-25.742.5167 18.432v6.506h21.7354c-.0932-.627-.9149-2.847-8.3943-3.262h-.0932l-.2033-.059c-.9134-.3-1.7198-.859-2.3209-1.609-.7938-.964-1.2094-2.183-1.169-3.431l.2118-19.118c-3.1043 1.837-6.6804 2.721-10.2832 2.541z" fill="#000"/><path d="m39.6338 230.399v3.71c0 .105.0419.207.1166.281.0747.075.1759.117.2815.117h21.8032c.0548.001.1094-.009.16-.03s.0963-.053.1338-.093c.0376-.04.0663-.087.0843-.139s.0248-.107.02-.162c-.1017-.965-1.1605-3.261-8.767-3.684l-.1864-.06c-.8389-.27-1.5807-.779-2.1345-1.465s-3.7101 4.21-11.5115 1.525z" fill="#000"/><path d="m49.9766 213.847s-7.6234.949-9.9444-3.955l10.0884-1.313z" fill="#000"/><path d="m70.729 104.399s6.1751 13.968 3.4814 32.612c-.4489 10.741-4.3877 45.97-8.1486 73.694h-15.679c.8471-12.647 1.2621-35.882 4.2861-47.774 3.456-13.553 2.5412-20.973 1.3892-24.514-.4489-.843-.8422-1.715-1.1774-2.609-.0293-.048-.0634-.094-.1017-.135v-.06c-3.888-10.503-.847-24.344-.847-24.344 5.0823-6.463 10.0545-8.217 13.9933-8.157" fill="#fff"/><path d="m66.0703 211.128h-15.6874c-.0586 0-.1166-.011-.1703-.035-.0537-.023-.102-.057-.1418-.1s-.0703-.094-.0895-.15c-.0191-.055-.0266-.114-.0219-.172.1778-2.787.3473-6.141.5167-9.69.6353-12.85 1.423-28.851 3.7863-38.118 3.5153-13.824 2.3802-21.176 1.3976-24.285-.4423-.82-.83-1.669-1.1604-2.541l-.0509-.076c-.0686-.09-.1017-.201-.0931-.314-3.8033-10.486-.8471-24.302-.7793-24.446.0161-.061.0449-.119.0847-.169 4.3538-5.514 9.1058-8.318 14.1204-8.318h.2117c.0557.001.1105.013.1615.035.0509.023.097.055.1356.095.0385.04.0688.087.089.139.0203.052.0301.107.029.163.0025.056-.0068.112-.0273.164s-.0518.099-.0918.138c-.0399.039-.0877.069-.1402.089-.0524.019-.1084.028-.1642.024-4.7605-.076-9.3684 2.592-13.6037 7.92-.2541 1.228-2.8122 14.197.847 24.014.0076.03.0076.062 0 .093l.0509.093c.3262.872.7111 1.721 1.152 2.541 1.2705 4.015 2.0414 11.503-1.3469 24.819-2.3463 9.224-3.1341 25.174-3.7609 37.99-.1694 3.389-.3219 6.548-.4913 9.259h14.8574c3.8879-28.732 7.6234-62.903 8.0978-73.287 1.6253-10.923.4418-22.079-3.439-32.417-.027-.051-.0432-.107-.0476-.165-.0045-.058.0029-.116.0217-.17.0188-.055.0486-.105.0876-.148s.0862-.077.139-.101c.0527-.023.1097-.036.1675-.037s.1152.01.1686.032.1017.055.142.097c.0402.041.0715.09.092.145 3.944 10.47 5.1538 21.772 3.5152 32.84-.432 10.41-4.2352 44.894-8.1486 73.694-.0176.098-.0685.187-.1441.251-.0757.065-.1714.102-.271.104z" fill="#000"/><path d="m61.4461 130.116.7285 29.749-1.4569 19.71-7.039 30.249-1.1182-1.821.7455-14.875 2.8799-13.265 2.9563-42.869s-.3643-5.218 2.3039-6.878z" fill="#000"/><path d="m67.307 118.181-1.6941 6.082s7.9285-1.084-3.3882.957c-.6892 3.903-1.1755 7.838-1.4569 11.791.559 10.012-4.3962 45.97-8.1571 73.694h-15.7298l3.5322-75.032.0762-24.404s3.8456-2.27 22.3792-5.082" fill="#fff"/><path d="m52.5596 211.128h-15.679c-.0575.001-.1144-.011-.167-.035-.0525-.023-.0996-.057-.1379-.1-.0414-.041-.0734-.09-.0939-.144s-.0289-.112-.0247-.17l3.5322-75.032.0763-24.378c.0004-.074.0202-.146.0573-.21.0372-.064.0904-.117.1544-.154.161-.093 4.1252-2.346 22.5232-5.133.1123-.018.2272.009.3193.076s.154.167.172.28c.0179.112-.0094.227-.0762.319-.0667.092-.1673.154-.2796.172-15.9415 2.414-21.0069 4.447-22.0234 4.921l-.0762 24.141-3.5153 74.609h14.8743l.4066-3.033c3.6677-27.021 8.2248-60.649 7.6912-70.212.1905-3.224.5666-6.434 1.1266-9.614l.3388-2.27c.0117-.087.0509-.167.1119-.23.0611-.062.1406-.104.2269-.117l3.0579-.568s0-.059 0-.085l1.6941-6.09c.0156-.056.0419-.108.0776-.153.0357-.046.08-.083.1303-.112.0503-.028.1058-.046.1631-.053.0574-.007.1155-.003.1711.013s.1076.042.1531.078c.0454.035.0833.08.1117.13.0283.05.0464.106.0533.163s.0024.116-.0131.171l-1.5502 5.464c2.4565-.331 2.465-.271 2.5412.161s.0847.533-6.1496 1.694l-.288 1.965c-.5491 3.133-.9224 6.295-1.1181 9.47.5421 9.614-4.032 43.284-7.6997 70.305l-.4574 3.389c-.014.101-.0634.194-.1394.262-.0759.068-.1736.107-.2757.11z" fill="#000"/><path d="m67.9512 69.5261s8.0131 3.4391 8.3604 20.8714c0 0 .1101 9.7325-.9148 13.6965 0 0-1.6941 1.161-7.4456 0z" fill="#fff"/><path d="m72.4657 105.035c-1.5466-.026-3.0869-.202-4.5995-.525-.0957-.02-.1817-.072-.2434-.148-.0618-.075-.0955-.17-.0955-.267v-34.5688c.0002-.0708.0181-.1405.0521-.2027.034-.0621.0831-.1148.1428-.153.061-.0334.1295-.0509.199-.0509.0696 0 .138.0175.1991.0509.3388.144 8.2672 3.7524 8.6145 21.2526 0 .4066.1017 9.8339-.9317 13.8069-.0248.1-.085.187-.1694.246-.1186.051-.9487.559-3.168.559zm-4.0913-1.288c4.3623.847 6.1835.263 6.6578.06.9487-3.9816.8471-13.3077.8471-13.4009-.1779-8.8432-2.3802-13.951-4.2353-16.6785-.8689-1.3637-1.9971-2.5436-3.3204-3.4729z" fill="#000"/><path d="m58.8794 82.5792s10.9524-1.1859 7.3439-13.6968l-7.3439-3.3883-12.7821 1.0165-2.736 1.3722s3.7948 14.5609 15.5181 14.6964z" fill="#fff"/><path d="m41.8789 67.3833 10.6814-2.2193c1.8726-.5842 3.8788-.5842 5.7515 0l6.2851 3.1256" fill="#fff"/><path d="m64.5964 68.7131c-.0644-.0009-.1279-.0153-.1864-.0424l-6.2851-3.1256c-1.7703-.5545-3.6678-.5545-5.4381 0l-10.7237 2.2193c-.0545.0111-.1107.0114-.1653.0008s-.1066-.0318-.153-.0625-.0864-.0702-.1175-.1163-.0529-.0979-.064-.1524c-.0123-.0546-.0135-.1111-.0034-.1661.0101-.0551.0312-.1075.062-.1542.0309-.0467.0709-.0867.1176-.1175s.0991-.0519.1542-.062l10.7237-2.1854c1.9305-.6029 3.9989-.6029 5.9294 0l6.3444 3.1426c.0556.0122.1083.0353.155.0679s.0865.0741.1172.122c.0307.048.0516.1016.0616.1576.0099.0561.0088.1136-.0035.1692-.0122.0556-.0353.1083-.0679.155-.0325.0467-.074.0865-.122.1172s-.1015.0516-.1576.0616-.1135.0088-.1692-.0034z" fill="#000"/><path d="m67.9515 69.5262-2.7276-1.0165c2.3718 10.0715-3.1934 12.4686-3.1934 12.4686-10.2662 3.5577-17.9829-14.0611-17.9829-14.0611-4.6758.4913-6.3444 2.8207-6.3444 2.8207-7.6998 9.4786.6522 30.1806 1.4484 31.9591.7962 1.779 1.1435 9.318 1.1435 9.318l4.9129 2.38c3.3723 1.637 7.1573 2.227 10.8678 1.694 8.8008-.728 16.094-6.776 16.094-6.776-.4236-1.694-.9572-3.388-1.4824-5.006 2.4516-5.5755 3.2993-11.724 2.448-17.7546" fill="#fff"/><path d="m53.3648 115.725c-2.8998.005-5.7624-.653-8.3689-1.923l-5.1416-2.491v-.245c-.1017-2.084-.4913-7.785-1.1097-9.182-.1101-.237-9.5801-22.3201-1.3976-32.4255.0593-.0762 1.8127-2.4649 6.6324-2.9731h.305l.127.2795c.0763.1694 7.6997 17.2036 17.4747 13.8154.1864-.0847 5.1755-2.4056 2.9308-11.9773l-.1863-.7624 3.4729 1.2876c.1056.0393.1913.1189.2381.2214.0469.1024.0511.2193.0118.3249s-.119.1912-.2214.2381c-.1025.0469-.2194.0511-.3249.0118l-1.9991-.7454c1.9736 9.6564-3.3882 12.0874-3.6084 12.1891-4.4132 1.5247-9.0212-.4828-13.3496-5.8108-2.0001-2.519-3.7054-5.2587-5.0823-8.1656-4.1845.5252-5.7346 2.592-5.7515 2.6089-7.8776 9.6988 1.3976 31.3414 1.4908 31.5444.7369 1.694 1.1011 7.869 1.1774 9.224l4.6842 2.27c3.2921 1.613 6.9916 2.203 10.622 1.695l.9318-.136v.042c7.3694-.914 13.5529-5.463 14.7557-6.395-.3642-1.398-.8471-2.982-1.3977-4.701l-.0508-.161.0678-.152c2.458-5.5469 3.295-11.6761 2.4141-17.6785-.0144-.1111.0158-.2235.0841-.3124.0682-.0889.169-.1471.2801-.1619.1112-.0144.2236.0158.3125.0841s.1471.169.1619.2801c.8959 6.0923.0654 12.3137-2.3972 17.9576.5845 1.796 1.0673 3.431 1.4315 4.871l.0678.262-.2118.17c-.2964.245-7.4879 6.107-16.3227 6.844h-.1101c-.8757.12-1.7588.18-2.6428.178z" fill="#000"/><path d="m72.7288 110.719c-4.1198 3.197-8.9 5.436-13.9933 6.556-8.3943 1.804-18.2541-3.185-18.2541-3.185" fill="#fff"/><path d="m54.7711 118.096c-7.2169 0-14.1373-3.456-14.4762-3.634-.0501-.024-.0949-.058-.1316-.1-.0368-.042-.0646-.091-.082-.144s-.024-.109-.0193-.164c.0047-.056.0206-.11.0466-.159.0508-.1.139-.175.2453-.21.1064-.035.2222-.027.3222.024.0932.05 9.8259 4.904 17.966 3.151 5.0244-1.113 9.7416-3.319 13.8155-6.463.0854-.073.1962-.11.3082-.101s.216.062.289.147c.073.086.1091.196.1003.308-.0087.112-.0616.216-.1469.289-4.1825 3.234-9.0271 5.504-14.1882 6.65-1.332.275-2.6888.411-4.0489.406z" fill="#000"/><path d="m45.5209 99.1052-.9232-15.2723.2541-.017.9233 15.2724z" fill="#000"/><path d="m47.8632 109.833-1.6308 1.579.1768.183 1.6308-1.58z" fill="#000"/><path d="m61.3614 66.8665-.9656-7.903c-2.3454.7395-4.8848.5547-7.0983-.5167l-1.1012 8.4705" fill="#fff"/><path d="m52.1961 67.4085h-.0509c-.0555-.0062-.1091-.0235-.1578-.051-.0486-.0274-.0912-.0644-.1252-.1087-.034-.0442-.0587-.0949-.0727-.149-.0139-.0541-.0168-.1104-.0085-.1656l1.1774-9.1058.5337.288c2.1208.9996 4.5405 1.1629 6.7764.4574l.4997-.1864 1.0334 8.4706c.0071.0556.0031.1122-.0119.1663-.0149.0541-.0405.1047-.0752.1488-.0346.0442-.0777.081-.1268.1083-.049.0273-.103.0446-.1588.0509-.0566.0035-.1133-.0047-.1666-.024s-.1021-.0493-.1434-.0882-.0742-.0858-.0966-.1379-.0339-.1082-.0338-.1649l-.9064-7.4033c-2.118.5689-4.3641.4291-6.3952-.3981l-1.025 7.9199c-.0148.1102-.0715.2103-.1582.2797-.0868.0694-.197.1028-.3076.093z" fill="#000"/><path d="m60.7428 62.8684s-3.3882.6268-4.9383-1.0249c-.9104-.977-1.6416-2.1067-2.16-3.3374h6.7765z" fill="#000"/><path d="m59.3366 60.3188c5.2536 0 9.5124-4.2589 9.5124-9.5124 0-5.2536-4.2588-9.5125-9.5124-9.5125-5.2535 0-9.5124 4.2589-9.5124 9.5125 0 5.2535 4.2589 9.5124 9.5124 9.5124z" fill="#fff"/><path d="m59.3363 60.7423c-1.9658-.0001-3.8875-.5832-5.5219-1.6757-1.6343-1.0926-2.9078-2.6453-3.6593-4.4619-.7515-1.8165-.9473-3.8152-.5625-5.743.3847-1.9279 1.3327-3.6983 2.724-5.0872 1.3912-1.3888 3.1632-2.3338 5.0917-2.7153 1.9285-.3814 3.9268-.1823 5.7421.5724 1.8152.7546 3.3659 2.0307 4.4556 3.6669s1.6696 3.5589 1.6663 5.5248c-.009 2.6308-1.0592 5.1511-2.9211 7.0098-1.8619 1.8588-4.384 2.9047-7.0149 2.9092zm0-19.0249c-1.7969 0-3.5534.5327-5.0477 1.5306-1.4943.998-2.6593 2.4165-3.3477 4.0762-.6884 1.6598-.8694 3.4864-.52 5.249.3493 1.7627 1.2132 3.3822 2.4826 4.6539 1.2694 1.2718 2.8874 2.1388 4.6493 2.4914 1.762.3526 3.5889.175 5.25-.5103 1.661-.6853 3.0817-1.8476 4.0824-3.3401 1.0008-1.4924 1.5367-3.248 1.54-5.0448 0-2.4121-.957-4.7257-2.661-6.4329s-4.0158-2.6685-6.4279-2.673z" fill="#000"/><path d="m68.8487 52.5767s-10.3341-1.6941-12.9346-5.4127c0 0-1.8296 5.6075-5.8192 5.9294 0 0-2.1007-10.6475 9.2413-11.7741 0-.0254 9.2753-.0169 9.5125 11.2574z" fill="#000"/><path d="m49.9424 44.3434c3.0829 0 5.5821-2.4992 5.5821-5.5821s-2.4992-5.5821-5.5821-5.5821-5.582 2.4992-5.582 5.5821 2.4991 5.5821 5.582 5.5821z" fill="#000"/><path d="m74.3041 104.45s-.5082 4.235-.8471 9.216z" fill="#fff"/><path d="m73.4741 114.09c-.0556-.003-.1101-.018-.1603-.042-.0501-.024-.095-.058-.132-.1-.0369-.042-.0653-.09-.0835-.143s-.0257-.108-.0223-.164c.3219-4.955.8471-9.199.8471-9.241.0168-.111.0755-.21.1639-.278s.1996-.099.3104-.087c.111.013.2125.069.2823.156.0698.088.1023.199.0904.31 0 0-.5082 4.235-.847 9.191-.0033.055-.0175.11-.0418.16s-.0583.095-.1001.132c-.0417.037-.0903.065-.143.084-.0527.018-.1084.025-.1641.022z" fill="#000"/><path d="m41.5488 119.765s2.2108.779 1.4654 1.457c-.7454.677-.9571-.508-.9571-.508" fill="#fff"/><path d="m42.5899 121.849c-.0813.014-.1644.014-.2457 0-.5251-.178-.6776-.847-.703-1.017-.0157-.088-.0028-.18.0368-.26.0396-.081.1038-.147.1834-.189-.1525-.068-.3049-.127-.4574-.178-.1042-.04-.1888-.118-.2362-.22-.0474-.101-.0538-.216-.0179-.322.0384-.106.1165-.192.2177-.241.1013-.049.2176-.057.3244-.021.5167.186 1.7365.694 1.8889 1.414.021.141.0064.284-.0424.417-.0489.133-.1304.252-.2371.346-.1949.176-.4488.272-.7115.271zm-.1525-1.186c.0289.113.0746.222.1355.322l.1186-.094c-.0541-.085-.1264-.157-.2117-.211z" fill="#000"/><path d="m43.2085 111.489.4997-6.835-10.5119-.686.432 7.166" fill="#fff"/><path d="m43.2002 111.913c-.0553-.003-.1094-.018-.1591-.042s-.0941-.059-.1304-.1c-.0363-.042-.0639-.091-.0811-.144-.0172-.052-.0237-.108-.019-.163l.4658-6.412-9.6055-.627.4065 6.683c.0068.113-.0314.223-.106.307-.0747.084-.1798.135-.2921.142s-.2227-.031-.3069-.106-.1353-.18-.142-.292l-.432-7.166c-.0052-.06.0029-.121.0236-.178.0208-.057.0537-.108.0964-.151.0428-.043.0944-.076.1512-.096.0568-.021.1175-.029.1777-.024l10.512.695c.0566.002.1121.016.1631.041s.0964.06.1333.103c.0711.085.1074.194.1017.305l-.5083 6.835c-.0086.111-.0606.214-.1446.287s-.1933.11-.3043.103z" fill="#000"/><path d="m109.389 85.3999h-23.1419v23.6581h23.1419z" fill="#fff"/><path d="m109.389 109.482h-23.1413c-.1123 0-.22-.045-.2994-.124-.0795-.08-.1241-.187-.1241-.3v-23.6579c0-.1123.0446-.2201.1241-.2995.0794-.0794.1871-.124.2994-.124h23.1413c.113 0 .22.0446.3.124.079.0794.124.1872.124.2995v23.6579c0 .113-.045.22-.124.3-.08.079-.187.124-.3.124zm-22.7177-.847h22.2947v-22.8114h-22.2947z" fill="#000"/><path d="m68.6968 85.3999h23.1415l-4.9468-9.3938h-23.1415z" fill="#fff"/><path d="m91.8298 85.8235h-23.133c-.0773.0003-.1531-.0209-.2189-.0613-.0659-.0404-.1191-.0984-.1538-.1674l-4.9468-9.36c-.0373-.0628-.057-.1345-.057-.2075 0-.0731.0197-.1447.057-.2075.038-.0625.0915-.114.1553-.1496.0638-.0357.1358-.0542.2089-.0537h23.1415c.0771.0006.1525.0222.2182.0625.0656.0403.1191.0978.1545.1662l4.9468 9.3853c.0356.0649.0543.1378.0543.2118s-.0187.1469-.0543.2118c-.0427.0574-.0993.1031-.1645.1327s-.1368.0422-.2082.0367zm-22.8704-.8471h22.1843l-4.5063-8.5468h-22.1844z" fill="#000"/><path d="m88.7461 79.5469 3.0917 5.8531h-23.1415l17.1613-1.2113" fill="#000"/><path d="m109.389 85.3999h-23.1419l4.9468-9.3938h23.1411z" fill="#fff"/><path d="m109.389 85.8235h-23.1411c-.0718-.0002-.1424-.019-.2047-.0546-.0624-.0357-.1144-.0869-.1511-.1486-.0356-.065-.0542-.1378-.0542-.2118s.0186-.1469.0542-.2118l4.9468-9.3853c.0355-.0685.0889-.1259.1546-.1662s.1411-.0619.2181-.0625h23.1414c.074-.002.146.0156.21.0508.065.0353.119.087.157.1498.037.0629.058.1346.059.208s-.017.1457-.053.2097l-4.947 9.3938c-.036.0717-.092.1315-.161.1721-.069.0405-.148.0602-.229.0566zm-22.438-.847h22.184l4.498-8.5468h-22.1503z" fill="#000"/><path d="m86.2473 85.3999h-17.551v23.6581h17.551z" fill="#fff"/><path d="m86.247 109.482h-17.551c-.1123 0-.2201-.045-.2995-.124-.0794-.08-.124-.187-.124-.3v-23.6579c0-.1123.0446-.2201.124-.2995s.1872-.124.2995-.124h17.551c.1123 0 .22.0446.2994.124.0795.0794.1241.1872.1241.2995v23.6579c0 .113-.0446.22-.1241.3-.0794.079-.1871.124-.2994.124zm-17.1275-.847h16.7039v-22.8114h-16.7039z" fill="#000"/><path d="m107.406 95.7678h-8.9021v5.7682h8.9021z" fill="#000"/><path d="m40.9813 111.066 22.3707-2.99c.3696-.054.7329-.145 1.0843-.271.9232-.39 3.7016-1.847 5.4804-2.118.1055-.021.2148-.006.3113.041.0964.047.1747.125.2228.221.048.096.0632.206.0433.311-.02.106-.074.202-.1539.274-.7284.678-1.9482 1.44-2.0583 1.83 0 0-.2711.847 1.2452.677 2.6625-.289 5.3087-.713 7.9284-1.27.0993-.015.2006.006.2858.059.0851.054.1486.135.1792.231.0305.096.026.199-.0126.292-.0386.092-.1089.168-.1983.214-2.4089.926-4.8835 1.67-7.4033 2.228l.144.084c2.3379-.254 6.6155-.923 8.8602-1.406.0523-.016.1073-.022.1617-.016.0545.005.1074.02.1558.046s.0912.06.1262.103c.0349.042.0611.09.0773.143.0161.052.0218.107.0167.161-.0051.055-.0209.108-.0465.156s-.0604.091-.1025.126c-.0422.035-.0907.061-.143.077-2.6902 1.035-5.4535 1.867-8.2673 2.491.0042.036.0042.073 0 .11 1.9398-.22 5.0315-.771 7.0306-1.228.0993-.015.2006.006.2858.06.0851.053.1486.134.1792.23.0305.096.026.199-.0126.292-.0386.092-.1089.168-.1983.214-2.545.975-5.1618 1.751-7.8268 2.321-.0175.042-.0403.082-.0678.118 1.3273.032 2.6518-.134 3.9304-.491.5082-.127.7454.746.2541.915-2.4412.833-4.9304 1.517-7.4541 2.05l-2.4903.542-24.7848 4.71c-1.1416.218-2.3231.059-3.3665-.453-1.0435-.512-1.8924-1.349-2.4189-2.385l-.72-8.632" fill="#fff"/><path d="m39.1677 123.128c-1.07-.004-2.1184-.301-3.0311-.86-.9126-.558-1.6543-1.357-2.1444-2.308-.0191-.052-.0333-.106-.0423-.161l-.7454-8.631c-.0045-.056.0021-.112.0192-.165.0172-.053.0447-.102.0809-.145.0361-.042.0803-.077.13-.103.0497-.025.1039-.04.1595-.045.0556-.004.1116.002.1647.019.0531.018.1023.045.1447.081.0425.036.0774.081.1028.13.0254.05.0408.104.0452.16l.737 8.547c.4948.931 1.2747 1.681 2.2256 2.138s2.0231.598 3.06.403l24.7933-4.718 2.4818-.534c2.5033-.53 4.9726-1.209 7.3948-2.033.0101-.036.0101-.074 0-.11-1.3106.372-2.67.543-4.032.508-.0705-.005-.1387-.027-.198-.066s-.1078-.092-.1408-.154c-.0334-.063-.0508-.132-.0508-.203s.0174-.141.0508-.204c.0777-.144.1994-.26.3473-.33 2.6428-.563 5.2372-1.333 7.759-2.304-2.0414.483-5.1501 1.033-7.0729 1.254-.063.006-.1266-.001-.1866-.022-.0599-.02-.1147-.053-.1607-.097-.0433-.044-.0764-.098-.0969-.156-.0205-.059-.0279-.121-.0217-.183.0046-.104.0378-.205.0961-.292s.1393-.156.2343-.199c2.7902-.618 5.5309-1.442 8.1995-2.465-2.3379.517-6.6325 1.169-8.8941 1.423-.0946.015-.1914-.006-.2711-.059l-.1524-.093c-.0712-.045-.127-.11-.1603-.187-.0333-.078-.0424-.163-.0261-.245.0123-.083.0498-.16.1074-.221.0576-.06.1325-.102.2145-.118 2.4866-.547 4.9276-1.283 7.3016-2.203-2.6361.565-5.2993.995-7.9792 1.288-.2683.07-.55.07-.8184 0-.2683-.07-.5144-.207-.7148-.398-.0957-.117-.1607-.255-.1888-.403s-.0185-.301.0279-.444c.0931-.348.5167-.686 1.2536-1.254.3134-.246.6522-.508.9233-.754 0-.135-.0593-.127-.0678-.118-1.5896.371-3.1264.94-4.5741 1.694l-.847.364c-.3844.14-.7816.242-1.1859.305l-22.3707 2.99c-.0556.007-.1121.003-.1663-.011-.0541-.015-.1049-.04-.1493-.074s-.0817-.077-.1097-.126c-.0279-.048-.0461-.102-.0533-.157-.0072-.056-.0034-.113.0112-.167s.0397-.105.0739-.149.0769-.082.1255-.11.1023-.046.1579-.053l22.3622-2.982c.3365-.054.668-.136.9911-.245l.7623-.356c1.5244-.791 3.1403-1.391 4.8113-1.787.1953-.03.3948.004.5699.095s.3166.236.4042.413c.086.176.1126.375.076.567-.0367.193-.1346.368-.2793.5-.288.271-.6438.542-.9826.847-.3529.245-.6769.529-.9656.847 0 .06.1524.204.847.136 1.7788-.187 5.616-.746 7.8776-1.262.1996-.033.4042.008.5768.113.1725.105.3017.269.3641.461.0624.193.054.401-.0238.588-.0778.186-.2198.339-.4004.43-.6098.254-1.2536.491-1.9058.712 1.2282-.204 2.3971-.424 3.2781-.61.2023-.036.4109.002.5868.109.1759.106.3072.272.3694.468s.0511.408-.0314.596c-.0824.189-.2305.341-.4166.428-.4574.186-.9487.372-1.4485.559.2002-.024.4024.024.5703.136.1678.111.2903.279.3454.473s.0393.401-.0447.585c-.084.183-.2307.33-.4136.415-1.135.466-2.4141.89-3.6169 1.245.1896.122.3282.309.3897.526.0417.106.0616.219.0585.333s-.0292.226-.0766.329c-.0475.104-.1153.197-.1996.274-.0842.077-.183.136-.2906.173-2.48.821-5.0056 1.497-7.5642 2.025l-2.4903.533-24.7933 4.752c-.3523.063-.7093.097-1.0673.102z" fill="#000"/><path d="m43.5056 107.415s-7.4626 1.855-9.8767-.771l10.0799-1.99z" fill="#000"/><path d="m39.4303 68.2642s-17.0766 7.9707-8.2926 38.2358c4.8363.452 9.7123-.194 14.2643-1.889 0 0-.2541-14.1794-.6776-20.7865" fill="#fff"/><path d="m34.0774 107.076c-.9987.005-1.997-.046-2.9901-.152-.082-.013-.1588-.048-.2218-.102-.0629-.054-.1093-.124-.1339-.203-4.5741-15.7556-2.0414-25.412.847-30.7739 3.1934-5.8362 7.4456-7.8776 7.6235-7.9623.0985-.0326.2056-.0279.3009.0132s.1721.1157.216.2098c.0439.094.0517.2009.022.3003s-.0949.1845-.1831.239c-.1694.0848-16.5345 8.1911-8.1402 37.4649 4.5766.374 9.1804-.235 13.502-1.787 0-2.075-.2795-14.4761-.6691-20.4732-.0071-.111.0299-.2204.1028-.3044s.1759-.1359.2868-.1446c.1127-.0048.223.0338.3081.1078.0851.0741.1386.178.1493.2903.4235 6.5393.6692 20.6601.6776 20.8041.0019.086-.0232.171-.0718.242s-.1182.126-.1992.156c-3.6495 1.386-7.5228 2.09-11.4268 2.075z" fill="#000"/><path d="m214.305 234.964h-205.79163c-.11233 0-.22005-.044-.29948-.124-.07943-.079-.12405-.187-.12405-.299 0-.113.04462-.22.12405-.3.07943-.079.18715-.124.29948-.124h205.79163c.112 0 .22.045.3.124.079.08.124.187.124.3 0 .112-.045.22-.124.299-.08.08-.188.124-.3.124z" fill="#000"/></g></svg>