<svg fill="none" height="50" viewBox="0 0 50 50" width="50" xmlns="http://www.w3.org/2000/svg"><path clip-rule="evenodd" d="m43.3817 41.8588c-4.8029 2.5865-11.2326 4.3316-17.0813 4.2692.9683.8726 2.324 1.2777 3.7571 1.6828 1.0071.2493.581 1.527-.426 1.2465-1.4719-.4051-2.8663-.8414-3.9896-1.6204.0259.644.0388 1.288.0388 1.9321.0387.8413-1.5881.8413-1.6268 0 0-.7272-.0129-1.4439-.0387-2.1503-1.1879.831-2.466 1.5789-3.8346 2.2437-.8909.4363-1.7043-.6855-.8134-1.1218 1.3169-.644 2.5564-1.3816 3.7184-2.2126-4.8029-.1558-9.7995-1.2776-14.02142-2.9604-5.2677-2.1502-8.095212-5.6716-8.869874-10.3772-.929594-5.6716 1.510594-11.125 6.584624-15.1138 2.78879-2.1814 6.19727-3.4279 9.33467-5.2042 3.4085-1.9009 5.5776-6.326 4.7642-9.62924-.0388-.03116 0-.06233 0-.06233-.0258-.0831-.0258-.15582 0-.21814 0-.02078 0-.04156 0-.06233.0258-.06233.0645-.11426.1162-.15581 0-.02078.0129-.04154.0387-.06231.1549-.18698.4261-.28048.7359-.24932h.0775c.0258 0 .0646.0104.1162.03117.1549.02078.2711.10387.3486.2493.6585.52977 1.2007 1.15302 1.6268 1.77627.7747-1.46464 1.9366-2.80463 3.486-3.832995.1549-.2804637.6197-.3116378.9683-.1869873.4261.1558133.6972.5297683.4648.8413943-.5423 3.209748-.8134 6.980428 1.9754 9.598128 2.324 2.1813 5.8874 3.272 8.7924 4.8925 5.5388 3.0539 9.4509 7.7907 10.2255 13.213.6972 5.1418-.9683 10.2525-6.4684 13.2441zm1.2007-20.7855c-3.9507-4.4874-10.884-5.7339-15.1059-9.7851-2.5564-2.49299-2.7888-5.7339-2.4402-8.819-1.007 1.02837-1.7429 2.21255-2.2077 3.49022.3098.96604.4647 1.99441.426 3.05394 0 .84139-1.6268.84139-1.6268 0 .0388-1.52697-.2324-2.9293-1.0458-4.1758-.1936 2.86696-1.7429 6.01434-4.1444 7.85294-2.5951 2.0256-6.3522 3.0228-9.14102 4.9237-2.98244 1.9944-5.42264 4.6433-6.70083 7.6349-2.478917 5.8897-.65846 13.2753 6.4297 16.4227 4.80295 2.119 11.00025 3.3967 16.50035 3.1786 6.3134.2181 14.5249-1.8386 19.0954-5.4535 5.9261-4.6744 4.2993-13.3687-.0388-18.3236zm-28.4301-3.7395c-5.3451 6.1079-7.97898 17.638-1.4718 23.9017.6584.6544-.5035 1.5581-1.162.9349-6.97197-6.7311-4.60924-18.8534 1.2395-25.491.581-.6856 1.9753-.0312 1.3943.6544zm19.1342-.9661c6.3135 7.0428 8.1339 19.6948-.1549 26.2078-.736.5921-1.898-.3428-1.1233-.9349 7.7466-6.0767 5.7325-18.0743-.1549-24.6184-.6198-.6856.8134-1.3401 1.4331-.6545zm-12.5495-.0311c-1.4719 4.2069-1.9367 8.632-2.0142 13.0259-.0774 4.1758-.1549 8.7256 1.5106 12.7456.3486.779-1.2394 1.1218-1.5493.3427-1.743-4.1446-1.6655-8.7878-1.588-13.0883.0774-4.4874.5809-9.0371 2.0915-13.3687.2712-.8102 1.8592-.4675 1.5494.3428zm8.1339 13.1506c.0775 4.4563 0 9.1306-2.0528 13.3376-.3874.7479-1.9367.4363-1.5494-.374 2.0142-4.0823 2.0529-8.6008 1.9754-12.9636-.0387-4.5497-.4648-9.1618-2.0528-13.5557-.3099-.8103 1.2782-1.1531 1.588-.3428 1.6268 4.4874 2.0529 9.2241 2.0916 13.8985z" fill="#fff" fill-rule="evenodd"/></svg>