<svg width="28" height="28" viewBox="0 0 28 28" fill="none" xmlns="http://www.w3.org/2000/svg">
<path d="M22.167 12.8332H8.33032L12.5653 7.74658C12.7634 7.50833 12.8586 7.20117 12.8302 6.89267C12.8017 6.58417 12.6519 6.29961 12.4137 6.10158C12.1754 5.90355 11.8682 5.80828 11.5597 5.83672C11.2512 5.86517 10.9667 6.015 10.7687 6.25325L4.93533 13.2532C4.89608 13.3089 4.86098 13.3674 4.83033 13.4282C4.83033 13.4866 4.83033 13.5216 4.74866 13.5799C4.69578 13.7137 4.66809 13.8561 4.66699 13.9999C4.66809 14.1438 4.69578 14.2861 4.74866 14.4199C4.74866 14.4782 4.74866 14.5132 4.83033 14.5716C4.86098 14.6324 4.89608 14.6909 4.93533 14.7466L10.7687 21.7466C10.8784 21.8783 11.0157 21.9842 11.171 22.0568C11.3262 22.1294 11.4956 22.1669 11.667 22.1666C11.9396 22.1671 12.2038 22.0722 12.4137 21.8982C12.5318 21.8003 12.6294 21.68 12.701 21.5443C12.7726 21.4085 12.8167 21.26 12.8308 21.1072C12.8449 20.9544 12.8287 20.8003 12.7831 20.6538C12.7376 20.5072 12.6636 20.3711 12.5653 20.2532L8.33032 15.1666H22.167C22.4764 15.1666 22.7732 15.0437 22.9919 14.8249C23.2107 14.6061 23.3337 14.3093 23.3337 13.9999C23.3337 13.6905 23.2107 13.3937 22.9919 13.175C22.7732 12.9562 22.4764 12.8332 22.167 12.8332Z" fill="#030113"/>
</svg>
