<svg width="20" height="20" viewBox="0 0 20 20" fill="none" xmlns="http://www.w3.org/2000/svg">
<path d="M9.99996 1.66675C5.41663 1.66675 1.66663 5.41675 1.66663 10.0001C1.66663 11.9167 2.33329 13.7501 3.58329 15.2501L1.91663 16.9167C1.58329 17.2501 1.58329 17.7501 1.91663 18.0834C2.08329 18.2501 2.24996 18.3334 2.49996 18.3334H9.99996C14.5833 18.3334 18.3333 14.5834 18.3333 10.0001C18.3333 5.41675 14.5833 1.66675 9.99996 1.66675ZM6.66663 10.8334C6.16663 10.8334 5.83329 10.5001 5.83329 10.0001C5.83329 9.50008 6.16663 9.16675 6.66663 9.16675C7.16663 9.16675 7.49996 9.50008 7.49996 10.0001C7.49996 10.5001 7.16663 10.8334 6.66663 10.8334ZM9.99996 10.8334C9.49996 10.8334 9.16663 10.5001 9.16663 10.0001C9.16663 9.50008 9.49996 9.16675 9.99996 9.16675C10.5 9.16675 10.8333 9.50008 10.8333 10.0001C10.8333 10.5001 10.5 10.8334 9.99996 10.8334ZM13.3333 10.8334C12.8333 10.8334 12.5 10.5001 12.5 10.0001C12.5 9.50008 12.8333 9.16675 13.3333 9.16675C13.8333 9.16675 14.1666 9.50008 14.1666 10.0001C14.1666 10.5001 13.8333 10.8334 13.3333 10.8334Z" fill="#6BAF92"/>
</svg>
