<svg fill="none" height="24" viewBox="0 0 24 24" width="24" xmlns="http://www.w3.org/2000/svg"><path d="m16.191 2c3.089 0 4.809 1.78 4.809 4.83v10.33c0 3.1-1.72 4.84-4.809 4.84h-8.381c-3.04 0-4.81-1.74-4.81-4.84v-10.33c0-3.05 1.77-4.83 4.81-4.83zm-8.111 13.74c-.3-.03-.59.11-.75.37-.16.25-.16.58 0 .84.16.25.45.4.75.36h7.84c.399-.04.7-.381.7-.78 0-.41-.301-.75-.7-.79zm7.84-4.561h-7.84c-.431 0-.78.351-.78.781s.349.78.78.78h7.84c.43 0 .78-.35.78-.78s-.35-.781-.78-.781zm-4.851-4.529h-2.989v.01c-.431 0-.78.35-.78.78s.349.78.78.78h2.989c.431 0 .781-.35.781-.791 0-.429-.35-.779-.781-.779z" fill="#6baf92"/></svg>