<svg fill="none" height="32" viewBox="0 0 32 32" width="32" xmlns="http://www.w3.org/2000/svg"><path d="m2 16c0-7.732 6.268-14 14-14s14 6.268 14 14-6.268 14-14 14-14-6.268-14-14zm20.707-3.293c.1822-.1886.283-.4412.2807-.7034s-.1075-.513-.2929-.6984-.4362-.2906-.6984-.2929-.5148.0985-.7034.2807l-6.793 6.793-3.293-3.293c-.1886-.1822-.4412-.283-.7034-.2807s-.51301.1075-.69842.2929-.29058.4362-.29285.6984c-.00228.2622.09851.5148.28067.7034l4 4c.1875.1875.4418.2928.707.2928s.5195-.1053.707-.2928z" fill="#6baf92"/></svg>