<svg fill="none" height="20" viewBox="0 0 20 20" width="20" xmlns="http://www.w3.org/2000/svg"><path d="m20 7.92414v8.86156c0 .4911-.1749.9115-.5246 1.2612s-.77.5246-1.2611.5246h-16.42859c-.49107 0-.911454-.1749-1.261156-.5246-.349703-.3497-.524554-.7701-.524554-1.2612v-8.86156c.327381.36458.703125.68825 1.12723.97098 2.69345 1.83038 4.54241 3.11388 5.54688 3.85048.4241.3125.76823.5561 1.03236.731.26414.1748.6157.3534 1.05469.5357s.84822.2734 1.22768.2734h.02236c.3794 0 .7887-.0911 1.2276-.2734.439-.1823.7906-.3609 1.0547-.5357.2642-.1749.6083-.4185 1.0324-.731 1.2649-.9152 3.1176-2.1987 5.558-3.85048.4241-.29017.7962-.61384 1.1161-.97098zm0-3.28125c0 .5878-.1823 1.14956-.5469 1.68527s-.8184.9933-1.3616 1.37277c-2.7976 1.94196-4.5387 3.15107-5.2232 3.62727-.0744.052-.2325.1655-.4743.3404-.2418.1748-.4427.3162-.6027.4241s-.3534.2288-.5804.3627c-.2269.1339-.4408.2344-.6417.3013-.2009.067-.3869.1005-.558.1005h-.02236c-.17113 0-.35714-.0335-.55804-.1005-.20089-.0669-.4148-.1674-.64174-.3013-.22693-.1339-.42038-.2548-.58035-.3627s-.36087-.2493-.60268-.4241c-.24182-.1749-.39993-.2884-.47433-.3404-.67709-.4762-1.65179-1.1552-2.92411-2.03687-1.27232-.8817-2.03497-1.41183-2.28795-1.5904-.46131-.3125-.89657-.74219-1.305801-1.28907-.409226-.54687-.613839-1.05468-.613839-1.52343 0-.58036.15439-1.06399.46317-1.4509.308779-.3869.74963-.58035 1.32254-.58035h16.42859c.4836 0 .9021.17485 1.2556.52455.3534.3497.5301.77009.5301 1.26116z" fill="#6baf92"/></svg>