<svg fill="none" height="20" viewBox="0 0 20 20" width="20" xmlns="http://www.w3.org/2000/svg"><g fill="#6baf92"><path d="m18.2247 9.58331c-.5333-.925-3.4666-5.56667-8.44997-5.41667-4.60833.11667-7.275 4.16667-8 5.41667-.07314.12668-.11164.27038-.11164.41666 0 .14633.0385.29003.11164.41663.525.9084 3.33334 5.4167 8.24167 5.4167h.2083c4.6084-.1167 7.2834-4.1667 8-5.4167.0732-.1266.1117-.2703.1117-.41663 0-.14628-.0385-.28998-.1117-.41666zm-8.0416 4.58329c-3.5917.0834-5.93337-2.9916-6.6667-4.16663.83333-1.34166 3.00833-4.08333 6.34167-4.16666 3.57503-.09167 5.92503 2.99166 6.66663 4.16666-.8583 1.34163-3.0083 4.08333-6.3416 4.16663z"/><path d="m9.99968 7.0835c-.57687 0-1.14077.17106-1.62042.49154-.47964.32049-.85348.77601-1.07423 1.30896-.22076.53295-.27852 1.1194-.16598 1.6852s.39033 1.0855.79823 1.4934.9276.6856 1.49338.7982c.56578.1125 1.15224.0548 1.68514-.166.533-.2207.9885-.5946 1.309-1.0742.3205-.4797.4915-1.0436.4915-1.6204 0-.77358-.3072-1.51545-.8542-2.06243s-1.2889-.85427-2.06242-.85427zm0 4.1667c-.24723 0-.48891-.0733-.69447-.2107s-.36577-.3326-.46038-.561-.11937-.47972-.07114-.7222c.04824-.24248.16729-.4652.3421-.64002.17482-.17482.39755-.29387.64002-.3421.24248-.04823.49379-.02348.72219.07113s.4237.25483.561.46039c.1374.20556.2107.44724.2107.6945 0 .3315-.1317.6494-.3661.8838-.2345.2345-.5524.3662-.88392.3662z"/></g></svg>