<svg fill="none" height="20" viewBox="0 0 20 20" width="20" xmlns="http://www.w3.org/2000/svg"><g fill="#6baf92"><path d="m3.92548 2.74166c-.0777-.0777-.16994-.13933-.27146-.18138s-.21032-.0637-.32021-.0637c-.10988 0-.21869.02165-.3202.0637-.10152.04205-.19376.10368-.27146.18138-.15692.15692-.24508.36975-.24508.59167 0 .22191.08816.43474.24508.59166l4.69166 4.69167c-.29683.55218-.40784 1.18531-.31659 1.80554.09125.6202.37992 1.1946.82321 1.6378.44329.4433 1.01761.732 1.63784.8233.62023.0912 1.25333-.0198 1.80553-.3166l4.6917 4.6916c.0775.0781.1696.1401.2712.1824.1015.0423.2104.0641.3204.0641.1101 0 .219-.0218.3205-.0641.1016-.0423.1937-.1043.2712-.1824.0781-.0774.1401-.1696.1824-.2712.0423-.1015.0641-.2104.0641-.3204 0-.1101-.0218-.219-.0641-.3205-.0423-.1016-.1043-.1937-.1824-.2712zm6.07502 8.50834c-.33154 0-.64948-.1317-.8839-.3661s-.36612-.5524-.36612-.88391v-.05833l1.30002 1.30004z"/><path d="m10.1831 14.1666c-3.58337.0834-5.93337-2.9916-6.6667-4.16663.52206-.83275 1.14947-1.59461 1.86666-2.26666l-1.21666-1.175c-.94056.88622-1.74633 1.90536-2.39167 3.025-.07314.12668-.11164.27038-.11164.41666 0 .14633.0385.29003.11164.41663.525.9084 3.33334 5.4167 8.24167 5.4167h.2083c.923-.0274 1.834-.2163 2.6917-.5583l-1.3167-1.3167c-.463.1218-.9381.1917-1.4166.2083zm8.0416-4.58329c-.5333-.925-3.475-5.56667-8.44997-5.41667-.92296.02738-1.83397.21635-2.69167.55833l1.31667 1.31667c.46303-.12181.93818-.19168 1.41667-.20833 3.575-.09167 5.925 2.99166 6.6667 4.16666-.535.83523-1.1765 1.59723-1.9084 2.26663l1.2584 1.175c.9523-.8839 1.7694-1.9031 2.425-3.025.0681-.1295.1009-.2748.095-.4211-.0058-.14629-.0501-.28846-.1284-.41219z"/></g></svg>