<svg fill="none" height="32" viewBox="0 0 32 32" width="32" xmlns="http://www.w3.org/2000/svg"><path d="m20.0585 25.3872c-.6535.1224-1.3087-.2039-1.5939-.7937-.0709-.107-.1277-.2224-.169-.3435-.1811-2.7958-.3743-5.5442-.5554-8.2926.0041-.2857-.0408-.57-.1329-.8411-.2166-.5334-.7559-.8718-1.3403-.8411l-8.87483.5686-.06037-.0237-.16199-.0116c-.32082-.0411-.61993-.1875-.84703-.418-.26495-.2688-.41017-.6299-.40392-1.0038.34992-5.09613 4.08614-9.35413 9.17074-10.4511 5.0845-1.09697 10.2968 1.23041 12.7933 5.71247.7341 1.2909 1.1979 2.71263 1.3644 4.18183.0646.4353.0928.8751.0845 1.315-.0168 5.4189-3.8749 10.0963-9.2733 11.2423zm-5.2766 3.945c-6.09444-.1825-11.18781-4.6067-12.11092-10.5198-.00586-.0353-.00586-.0713 0-.1066l.00164-.1669c.02005-.2207.11066-.4311.26112-.6001.18808-.2112.45418-.3402.73944-.3584l10.23932-.6753.1687-.0033c.2795.0136.5475.1223.7563.3102.2505.2255.3925.5442.3911.8778l.6883 10.0577v.1658c-.0125.2829-.1392.5493-.3522.7404-.2129.1911-.4945.2913-.7828.2785z" fill="#6baf92"/></svg>