<svg fill="none" height="32" viewBox="0 0 32 32" width="32" xmlns="http://www.w3.org/2000/svg"><path d="m11.9414 6.61275c.6535-.12232 1.3087.20397 1.5938.79372.071.10701.1278.22246.1691.34355.1811 2.79578.3743 5.54418.5554 8.29258-.0041.2857.0408.57.1328.8411.2167.5334.7559.8718 1.3403.8411l8.8749-.5686.0604.0237.162.0116c.3208.0411.6199.1875.847.418.2649.2688.4102.6299.4039 1.0038-.3499 5.0961-4.0862 9.3541-9.1707 10.4511s-10.29678-1.2304-12.7933-5.7125c-.73408-1.2909-1.19797-2.7126-1.36444-4.1818-.06456-.4353-.09283-.8751-.08452-1.315.01683-5.4189 3.87495-10.09627 9.27336-11.24235zm5.2766-3.9449c6.0944.18244 11.1878 4.60663 12.1109 10.51975.0059.0353.0059.0713 0 .1066l-.0016.1669c-.0201.2207-.1107.4311-.2612.6001-.188.2112-.4541.3402-.7394.3584l-10.2393.6753-.1687.0033c-.2795-.0136-.5475-.1223-.7563-.3102-.2505-.2255-.3925-.5442-.3912-.8778l-.6882-10.0577v-.16585c.0125-.28287.1392-.54923.3521-.74035.213-.19112.4946-.2913.7829-.27845z" fill="#6baf92"/></svg>