<svg fill="none" height="20" viewBox="0 0 20 20" width="20" xmlns="http://www.w3.org/2000/svg"><path d="m14.1663 7.50008v-1.66666c0-2.33334-1.8333-4.16667-4.16663-4.16667s-4.16666 1.83333-4.16666 4.16667v1.66666c-1.41667 0-2.5 1.08334-2.5 2.50002v5.8333c0 1.4167 1.08333 2.5 2.5 2.5h8.33329c1.4167 0 2.5-1.0833 2.5-2.5v-5.8333c0-1.41668-1.0833-2.50002-2.5-2.50002zm-6.66663-1.66666c0-1.41667 1.08334-2.50001 2.5-2.50001 1.41663 0 2.50003 1.08334 2.50003 2.50001v1.66666h-5.00003zm3.41663 7.08328-.0833.0834v1.1666c0 .5-.3333.8334-.83333.8334-.5 0-.83333-.3334-.83333-.8334v-1.1666c-.5-.5-.58333-1.25-.08333-1.75s1.24999-.5834 1.74999-.0834c.5.4167.5833 1.25.0833 1.75z" fill="#6baf92"/></svg>