<svg width="20" height="20" viewBox="0 0 20 20" fill="none" xmlns="http://www.w3.org/2000/svg">
<path d="M10.4177 19.0429C11.445 19.0429 12.2854 18.2025 12.2854 17.1753H8.55008C8.55008 18.2025 9.38119 19.0429 10.4177 19.0429ZM16.0207 13.44V8.77081C16.0207 5.90395 14.4892 3.50401 11.8185 2.869V2.234C11.8185 1.45892 11.1928 0.833252 10.4177 0.833252C9.64266 0.833252 9.01699 1.45892 9.01699 2.234V2.869C6.3369 3.50401 4.81475 5.89461 4.81475 8.77081V13.44L3.61011 14.6446C3.0218 15.2329 3.43268 16.2415 4.26379 16.2415H16.5623C17.3935 16.2415 17.8137 15.2329 17.2254 14.6446L16.0207 13.44Z" fill="#6BAF92"/>
</svg>
