<svg fill="none" height="24" viewBox="0 0 24 24" width="24" xmlns="http://www.w3.org/2000/svg"><path d="m21.5625 6.63758h-.0094c-.1346-.22821-.3249-.41852-.5531-.55312l-8.25-4.65938c-.2253-.12476-.4785-.19022-.736-.19022-.2574 0-.5107.06546-.7359.19022l-8.25001 4.64063c-.23295.1316-.42699.32242-.5625.55312 0 .00123-.00024.00245-.00071.00359s-.00116.00217-.00203.00304-.00191.00156-.00304.00203c-.00114.00047-.00236.00072-.00359.00072v.01875c-.13126.22116-.19935.47408-.19688.73125v9.24379c.00048.2672.0719.5295.20696.7601.13507.2306.32893.4212.56179.5524l8.25001 4.6406c.2077.1133.4386.1774.675.1875h.1312c.2332-.0115.4608-.0756.6657-.1875l8.25-4.6406c.2304-.1331.4219-.3244.5552-.5547.1332-.2304.2037-.4917.2041-.7578v-9.24379c.0014-.25999-.0665-.51564-.1968-.74063zm-9.5532-3.9 7.4813 4.2-2.8781 1.63125-7.55628-4.17187zm.0844 8.40002-7.54686-4.20002 2.97188-1.66875 7.56558 4.17188zm.675 9.7031.075-8.4 3.0094-1.7156v3.5719c0 .1989.079.3896.2197.5303.1406.1406.3314.2197.5303.2197s.3897-.0791.5303-.2197c.1407-.1407.2197-.3314.2197-.5303v-4.42504l2.9062-1.65v8.40004z" fill="#6baf92"/></svg>