<svg fill="none" height="32" viewBox="0 0 32 32" width="32" xmlns="http://www.w3.org/2000/svg"><path d="m28.75 8.85011h-.0125c-.1794-.30428-.4332-.55803-.7375-.7375l-11-6.2125c-.3003-.16635-.6379-.25363-.9812-.25363s-.681.08728-.9813.25363l-10.99996 6.1875c-.3106.17548-.56933.42989-.75.7375 0 .00164-.00033.00327-.00095.00478-.00063.00152-.00155.0029-.00271.00406s-.00254.00208-.00406.00271-.00314.00095-.00478.00095v.025c-.17501.29488-.2658.63211-.2625.975v12.32499c.00063.3563.09586.7061.27594 1.0136.18009.3074.43858.5616.74906.7364l10.99996 6.1875c.277.1511.5849.2366.9.25h.175c.3109-.0153.6144-.1008.8875-.25l11-6.1875c.3073-.1774.5626-.4325.7403-.7396s.2716-.6556.2722-1.0104v-12.32499c.0019-.34665-.0887-.68752-.2625-.9875zm-12.7375-5.2 9.975 5.6-3.8375 2.17499-10.075-5.56249zm.1125 11.19999-10.06246-5.59999 3.96246-2.225 10.0875 5.56249zm.9 12.9375.1-11.2 4.0125-2.2875v4.7625c0 .2652.1054.5196.2929.7071.1876.1876.4419.2929.7071.2929.2653 0 .5196-.1053.7071-.2929.1876-.1875.2929-.4419.2929-.7071v-5.9l3.875-2.2v11.2z" fill="#6baf92"/></svg>