<svg fill="none" height="24" viewBox="0 0 24 24" width="24" xmlns="http://www.w3.org/2000/svg"><g stroke="#6baf92" stroke-linecap="round" stroke-linejoin="round" stroke-width="1.5"><path d="m11.579 12.056c2.6388 0 4.778-2.13918 4.778-4.778s-2.1392-4.778-4.778-4.778c-2.63879 0-4.77797 2.13918-4.77797 4.778s2.13918 4.778 4.77797 4.778z"/><path clip-rule="evenodd" d="m4.00002 18.7013c-.00127-.3359.07385-.6677.21969-.9702.45767-.9154 1.74829-1.4005 2.81922-1.6202.77236-.1648 1.55539-.2749 2.34325-.3295 1.45872-.1281 2.92582-.1281 4.38442 0 .7878.0552 1.5708.1653 2.3433.3295 1.0709.2197 2.3615.6591 2.8192 1.6202.2933.6168.2933 1.3328 0 1.9496-.4577.9611-1.7483 1.4005-2.8192 1.611-.7715.1716-1.5548.2849-2.3433.3387-1.1872.1006-2.38.119-3.5698.0549-.27457 0-.54002 0-.81462-.0549-.78553-.0532-1.56585-.1664-2.33409-.3387-1.08009-.2105-2.36156-.6499-2.82838-1.611-.1451-.3061-.22014-.6407-.21969-.9794z" fill-rule="evenodd"/></g></svg>