<svg fill="none" height="24" viewBox="0 0 24 24" width="24" xmlns="http://www.w3.org/2000/svg"><path d="m9.84846 15.5498c1.43964-.116 2.88594-.116 4.32564 0 .784.0457 1.5642.1438 2.3358.2936 1.6697.3381 2.7598.8897 3.2269 1.7794.3509.6943.3509 1.5209 0 2.2153-.4671.8897-1.5139 1.4768-3.2442 1.7793-.771.1555-1.5514.2566-2.3358.3025-.7267.0801-1.4534.0801-2.1888.0801h-1.3236c-.2769-.0356-.545-.0534-.80459-.0534-.78443-.0403-1.56504-.1384-2.33584-.2936-1.66969-.3203-2.75975-.8897-3.22692-1.7793-.18034-.3447-.27542-.7297-.27695-1.121-.00364-.3938.08856-.7822.2683-1.1299.45852-.8897 1.54858-1.468 3.23557-1.7794.77419-.1519 1.55747-.25 2.34449-.2936zm2.15414-13.5498c2.9002 0 5.2513 2.41782 5.2513 5.40036s-2.3511 5.40034-5.2513 5.40034c-2.90019 0-5.25129-2.4178-5.25129-5.40034s2.3511-5.40036 5.25129-5.40036z" fill="#6baf92"/></svg>