<svg fill="none" height="32" viewBox="0 0 32 32" width="32" xmlns="http://www.w3.org/2000/svg"><path d="m26 10.6666h-3.3333v-2.66668c0-1.46667-1.2-2.66667-2.6667-2.66667h-15.99996c-1.46667 0-2.66667 1.2-2.66667 2.66667v11.99998c0 1.4667 1.2 2.6667 2.66667 2.6667 0 2.2133 1.78667 4 4 4 2.21336 0 3.99996-1.7867 3.99996-4h8c0 2.2133 1.7867 4 4 4 2.2134 0 4-1.7867 4-4h1.3334c.7333 0 1.3333-.6 1.3333-1.3333v-4.44c0-.5734-.1867-1.1334-.5333-1.6l-3.0667-4.0934c-.2533-.3333-.6533-.5333-1.0667-.5333zm-17.99996 13.3333c-.73333 0-1.33333-.6-1.33333-1.3333s.6-1.3333 1.33333-1.3333 1.33333.6 1.33333 1.3333-.6 1.3333-1.33333 1.3333zm17.99996-11.3333 2.6134 3.3333h-5.9467v-3.3333zm-2 11.3333c-.7333 0-1.3333-.6-1.3333-1.3333s.6-1.3333 1.3333-1.3333c.7334 0 1.3334.6 1.3334 1.3333s-.6 1.3333-1.3334 1.3333z" fill="#6baf92"/></svg>