<svg fill="none" height="32" viewBox="0 0 32 32" width="32" xmlns="http://www.w3.org/2000/svg"><path d="m13.1148 2.71204c.1494.05067.296.112.4387.18134l1.7107.84266c.2289.11271.4807.17132.736.17132.2552 0 .507-.05861.736-.17132l1.7106-.84266c.8724-.42913 1.8796-.4942 2.8-.1809.9203.31329 1.6786.9793 2.108 1.85156l.0987.216.084.22267.6133 1.804c.1667.49067.552.87467 1.0414 1.04133l1.8053.61334c.4938.16801.9461.43946 1.3267.7962.3805.35675.6806.79062.8801 1.27252.1995.482.2939 1.001.2769 1.5223-.0171.5214-.1451 1.0331-.3757 1.501l-.8413 1.7106c-.1127.229-.1714.4808-.1714.736 0 .2553.0587.5071.1714.736l.8413 1.7107c.2303.4679.3582.9794.3752 1.5006.0169.5212-.0776 1.04-.2771 1.5218s-.4995.9155-.8799 1.2722c-.3804.3566-.8326.628-1.3262.7961l-1.8053.6133c-.2415.0824-.4609.2191-.6412.3997-.1803.1805-.3168.4-.3988.6416l-.6147 1.8054c-.168.4936-.4395.9458-.7961 1.3262-.3567.3804-.7904.6804-1.2722.8799-.4817.1995-1.0006.294-1.5217.277-.5212-.0169-1.0328-.1448-1.5007-.3751l-1.7106-.8414c-.229-.1127-.4808-.1713-.736-.1713-.2553 0-.5071.0586-.736.1713l-1.7107.8414c-.4678.2303-.9794.3582-1.5006.3751-.5212.017-1.04-.0775-1.5218-.277s-.91551-.4995-1.27217-.8799c-.35665-.3804-.62806-.8326-.7961-1.3262l-.61333-1.8054c-.08252-.2416-.21946-.461-.40024-.6414-.18078-.1803-.40058-.3167-.64243-.3986l-1.804-.6146c-.49377-.1679-.94604-.4392-1.32661-.7958-.38058-.3566-.6807-.7903-.88034-1.2721s-.2942-1.0007-.27737-1.5219c.01684-.5213.14468-1.033.37499-1.5009l.84266-1.7107c.11271-.2289.17132-.4807.17132-.736 0-.2552-.05861-.507-.17132-.736l-.84266-1.7106c-.23031-.4679-.35815-.9796-.37499-1.5009-.01683-.5212.07773-1.0401.27737-1.5219s.49976-.9155.88034-1.27209c.38057-.35659.83284-.6279 1.32661-.7958l1.804-.61333c.24189-.08235.4616-.2192.64216-.4.18056-.18079.31714-.40068.39917-.64267l.61334-1.804c.15504-.45601.39841-.87701.7162-1.23894s.70377-.65771 1.1359-.87043c.4321-.21272.9019-.33822 1.3826-.36933.4806-.0311.9627.03279 1.4186.18803zm7.5107 9.24666-7.2253 7.2267-2.632-3.16c-.0829-.1045-.1859-.1913-.3028-.2554s-.2455-.1041-.3781-.1178c-.13266-.0137-.26669-.0007-.39423.0382-.12755.0389-.24602.103-.34846.1883-.10243.0854-.18676.1904-.24802.3088s-.09822.2479-.1087.3809c-.01048.1329.00574.2666.04769.3931.04195.1266.10879.2435.19658.3439l3.33334 4c.0889.1067.199.1937.3234.2555.1243.0618.2602.0971.3989.1035.1388.0064.2773-.0162.4068-.0663.1296-.0501.2472-.1266.3456-.2247l8-8c.0982-.0916.177-.202.2317-.3246.0546-.1227.084-.2551.0864-.3894s-.0223-.2676-.0726-.3922c-.0503-.1245-.1252-.2376-.2202-.3325-.0949-.095-.208-.1699-.3325-.2202-.1246-.0502-.2579-.0749-.3922-.0726-.1343.0024-.2667.0318-.3894.0864-.1226.0547-.233.1335-.3246.2317z" fill="#6baf92"/></svg>