<svg fill="none" height="26" viewBox="0 0 26 26" width="26" xmlns="http://www.w3.org/2000/svg"><path d="m.00000213 3c0-.79565.31607087-1.55871.87867987-2.12132.562608-.562609 1.325668-.87868 2.121318-.87868h16.75c.862 0 1.6886.34241 2.2981.951903.6095.609497.9519 1.436147.9519 2.298097v1.006c1.748.618 3 2.285 3 4.244v13c0 1.1935-.4741 2.3381-1.318 3.182s-1.9885 1.318-3.182 1.318h-17c-1.19347 0-2.33806-.4741-3.18198-1.318-.843912-.8439-1.31801787-1.9885-1.31801787-3.182v-18.25h.00999997c-.00676263-.08316-.01009878-.16656-.00999997-.25zm20.99999787.25c0-.69-.56-1.25-1.25-1.25h-16.75c-.26521 0-.51957.10536-.7071.29289-.18754.18754-.2929.44189-.2929.70711s.10536.51957.2929.70711c.18753.18753.44189.29289.7071.29289h18zm-3 11.75c-.2652 0-.5196.1054-.7071.2929s-.2929.4419-.2929.7071.1054.5196.2929.7071.4419.2929.7071.2929h3c.2652 0 .5196-.1054.7071-.2929s.2929-.4419.2929-.7071-.1054-.5196-.2929-.7071-.4419-.2929-.7071-.2929z" fill="#6baf92"/></svg>